<svg width="55" height="75" viewBox="0 0 55 75" fill="none" xmlns="http://www.w3.org/2000/svg">
<rect width="55" height="55" rx="5" fill="url(#paint0_linear)"/>
<path d="M13.1113 72V62.7578H16.1328C17.1357 62.7578 17.889 62.9652 18.3926 63.3799C18.9004 63.7946 19.1543 64.4082 19.1543 65.2207C19.1543 65.6523 19.0316 66.0353 18.7861 66.3696C18.5407 66.6997 18.2064 66.9557 17.7832 67.1377C18.2826 67.2773 18.6761 67.5439 18.9639 67.9375C19.2559 68.3268 19.4019 68.7923 19.4019 69.334C19.4019 70.1634 19.1331 70.8151 18.5957 71.2891C18.0583 71.763 17.2987 72 16.3169 72H13.1113ZM14.3301 67.6772V71.0034H16.3423C16.9093 71.0034 17.3558 70.8574 17.6816 70.5654C18.0117 70.2692 18.1768 69.863 18.1768 69.3467C18.1768 68.2337 17.5716 67.6772 16.3613 67.6772H14.3301ZM14.3301 66.6997H16.1709C16.7041 66.6997 17.1294 66.5664 17.4468 66.2998C17.7684 66.0332 17.9292 65.6714 17.9292 65.2144C17.9292 64.7065 17.7811 64.3384 17.4849 64.1099C17.1886 63.8771 16.738 63.7607 16.1328 63.7607H14.3301V66.6997ZM22.4297 68.3818V72H21.2109V62.7578H24.6196C25.631 62.7578 26.4224 63.016 26.9937 63.5322C27.5692 64.0485 27.8569 64.7319 27.8569 65.5825C27.8569 66.4797 27.5755 67.1715 27.0127 67.6582C26.4541 68.1406 25.6522 68.3818 24.6069 68.3818H22.4297ZM22.4297 67.3853H24.6196C25.2713 67.3853 25.7707 67.2329 26.1177 66.9282C26.4647 66.6193 26.6382 66.175 26.6382 65.5952C26.6382 65.0451 26.4647 64.605 26.1177 64.2749C25.7707 63.9448 25.2946 63.7734 24.6895 63.7607H22.4297V67.3853ZM32.0146 62.7578H33.2397V69.3022C33.2397 70.1867 32.9731 70.8786 32.4399 71.3779C31.911 71.8773 31.2043 72.127 30.3198 72.127C29.4015 72.127 28.6864 71.8921 28.1743 71.4224C27.6623 70.9526 27.4062 70.2946 27.4062 69.4482H28.625C28.625 69.9772 28.7689 70.3898 29.0566 70.686C29.3486 70.9823 29.7697 71.1304 30.3198 71.1304C30.8234 71.1304 31.2297 70.9717 31.5386 70.6543C31.8517 70.3369 32.0104 69.8926 32.0146 69.3213V62.7578ZM38.0386 67.8804C36.9933 67.5799 36.2316 67.2118 35.7534 66.7759C35.2795 66.3358 35.0425 65.7941 35.0425 65.1509C35.0425 64.423 35.3324 63.8221 35.9121 63.3481C36.4961 62.87 37.2536 62.6309 38.1846 62.6309C38.8193 62.6309 39.3843 62.7536 39.8794 62.999C40.3787 63.2445 40.7638 63.583 41.0347 64.0146C41.3097 64.4463 41.4473 64.9181 41.4473 65.4302H40.2222C40.2222 64.8716 40.0444 64.4336 39.689 64.1162C39.3335 63.7946 38.832 63.6338 38.1846 63.6338C37.5837 63.6338 37.1139 63.7671 36.7754 64.0337C36.4411 64.2961 36.2739 64.6621 36.2739 65.1318C36.2739 65.5085 36.4326 65.828 36.75 66.0903C37.0716 66.3485 37.6154 66.5854 38.3813 66.8013C39.1515 67.0171 39.7524 67.2562 40.1841 67.5186C40.62 67.7767 40.9416 68.0793 41.1489 68.4263C41.3605 68.7733 41.4663 69.1816 41.4663 69.6514C41.4663 70.4004 41.1743 71.0013 40.5903 71.4541C40.0063 71.9027 39.2256 72.127 38.248 72.127C37.6133 72.127 37.0208 72.0063 36.4707 71.7651C35.9206 71.5197 35.4953 71.1854 35.1948 70.7622C34.8986 70.339 34.7505 69.8587 34.7505 69.3213H35.9756C35.9756 69.8799 36.1808 70.3221 36.5913 70.6479C37.006 70.9696 37.5583 71.1304 38.248 71.1304C38.8913 71.1304 39.3843 70.9992 39.7271 70.7368C40.0698 70.4744 40.2412 70.1169 40.2412 69.6641C40.2412 69.2113 40.0825 68.8621 39.7651 68.6167C39.4478 68.367 38.8722 68.1216 38.0386 67.8804Z" fill="#453F3F"/>
<path d="M43.5 13L25.9659 9L11.1581 13.6417C12.3279 32.4291 14.4304 39.8719 25.9659 45C36.5 42 41.5827 32.7085 43.5 13Z" fill="#07A286"/>
<path d="M39.9465 15.348L25.96 9.08353L10 13.9758C11.1697 32.7632 14.4245 39.8719 25.96 45C36.6274 40.4444 38.0292 35.0566 39.9465 15.348Z" fill="#05D5AF"/>
<path d="M26.1314 45V9.08353L42.1801 14.0951C40.1682 31.9636 37.8538 40.3649 26.1314 45Z" fill="#0CC1A1"/>
<g clip-path="url(#clip0)">
<path d="M25.5464 32.4187L20.1693 26.5551C19.8462 26.2028 19.8462 25.6317 20.1693 25.2794L21.3392 24.0036C21.6622 23.6513 22.186 23.6513 22.5091 24.0036L26.1314 27.9536L33.8899 19.4932C34.213 19.1409 34.7368 19.1409 35.0598 19.4932L36.2297 20.7689C36.5528 21.1212 36.5528 21.6923 36.2297 22.0447L26.7163 32.4187C26.3933 32.771 25.8695 32.771 25.5464 32.4187Z" fill="white"/>
</g>
<defs>
<linearGradient id="paint0_linear" x1="27" y1="5.66515e-07" x2="3.38419e-06" y2="113" gradientUnits="userSpaceOnUse">
<stop offset="0.264434" stop-color="white"/>
<stop offset="0.973958" stop-color="#05D4AF"/>
</linearGradient>
<clipPath id="clip0">
<rect width="16.545" height="18.0418" fill="white" transform="translate(19.927 16.935)"/>
</clipPath>
</defs>
</svg>
