<svg width="55" height="75" viewBox="0 0 55 75" fill="none" xmlns="http://www.w3.org/2000/svg">
<rect y="3.05176e-05" width="55" height="55" rx="5" fill="url(#paint0_linear)"/>
<path d="M18.2832 70.7876C17.9701 71.2362 17.5321 71.5726 16.9692 71.7969C16.4106 72.017 15.759 72.127 15.0142 72.127C14.2609 72.127 13.5923 71.9514 13.0083 71.6001C12.4243 71.2447 11.9715 70.7411 11.6499 70.0894C11.3325 69.4377 11.1696 68.6823 11.1611 67.8233V67.0171C11.1611 65.6249 11.4849 64.5458 12.1323 63.7798C12.784 63.0139 13.6981 62.6309 14.8745 62.6309C15.8394 62.6309 16.6159 62.8784 17.2041 63.3736C17.7923 63.8645 18.152 64.5627 18.2832 65.4683H17.0645C16.8359 64.2453 16.1081 63.6338 14.8809 63.6338C14.0641 63.6338 13.4442 63.9216 13.021 64.4971C12.6021 65.0684 12.3905 65.8978 12.3862 66.9854V67.7408C12.3862 68.7775 12.6232 69.6027 13.0972 70.2163C13.5711 70.8257 14.2122 71.1304 15.0205 71.1304C15.4775 71.1304 15.8774 71.0796 16.2202 70.9781C16.563 70.8765 16.8465 70.7051 17.0708 70.4639V68.3882H14.9316V67.398H18.2832V70.7876ZM24.377 72C24.3092 71.8646 24.2542 71.6234 24.2119 71.2764C23.666 71.8435 23.0143 72.127 22.2568 72.127C21.5798 72.127 21.0233 71.9366 20.5874 71.5557C20.1558 71.1706 19.9399 70.6839 19.9399 70.0957C19.9399 69.3806 20.2108 68.8262 20.7524 68.4326C21.2983 68.0349 22.0643 67.836 23.0503 67.836H24.1929V67.2964C24.1929 66.8859 24.0701 66.5601 23.8247 66.3189C23.5793 66.0734 23.2174 65.9507 22.7393 65.9507C22.3203 65.9507 21.9691 66.0565 21.6855 66.2681C21.402 66.4797 21.2603 66.7357 21.2603 67.0362H20.0796C20.0796 66.6934 20.2002 66.3633 20.4414 66.0459C20.6868 65.7243 21.0169 65.4704 21.4316 65.2842C21.8506 65.098 22.3097 65.0049 22.8091 65.0049C23.6004 65.0049 24.2204 65.2038 24.6689 65.6016C25.1175 65.9951 25.3503 66.5389 25.3672 67.2329V70.3941C25.3672 71.0246 25.4476 71.5261 25.6084 71.8985V72H24.377ZM22.4282 71.105C22.7964 71.105 23.1455 71.0098 23.4756 70.8194C23.8057 70.6289 24.0448 70.3814 24.1929 70.0767V68.6675H23.2725C21.8337 68.6675 21.1143 69.0886 21.1143 69.9307C21.1143 70.2989 21.237 70.5866 21.4824 70.794C21.7279 71.0013 22.0431 71.105 22.4282 71.105ZM28.3125 65.1319L28.3442 65.8936C28.8478 65.3011 29.527 65.0049 30.3818 65.0049C31.3424 65.0049 31.9963 65.3731 32.3433 66.1094C32.5718 65.7793 32.868 65.5127 33.2319 65.3096C33.6001 65.1065 34.0339 65.0049 34.5332 65.0049C36.0397 65.0049 36.8057 65.8026 36.8311 67.398V72H35.6567V67.4678C35.6567 66.9769 35.5446 66.6109 35.3203 66.3697C35.096 66.1242 34.7194 66.0015 34.1904 66.0015C33.7546 66.0015 33.3927 66.1327 33.105 66.3951C32.8172 66.6532 32.6501 67.0023 32.6035 67.4424V72H31.4229V67.4995C31.4229 66.5008 30.9341 66.0015 29.9565 66.0015C29.1864 66.0015 28.6595 66.3295 28.376 66.9854V72H27.2017V65.1319H28.3125ZM41.4585 72.127C40.5275 72.127 39.77 71.8223 39.186 71.2129C38.6021 70.5993 38.3101 69.7805 38.3101 68.7564V68.5406C38.3101 67.8592 38.4391 67.252 38.6973 66.7188C38.9596 66.1813 39.3236 65.7624 39.7891 65.4619C40.2588 65.1573 40.7666 65.0049 41.3125 65.0049C42.2054 65.0049 42.8994 65.299 43.3945 65.8872C43.8896 66.4755 44.1372 67.3176 44.1372 68.4136V68.9024H39.4844C39.5013 69.5795 39.6981 70.1275 40.0747 70.5464C40.4556 70.9611 40.938 71.1685 41.522 71.1685C41.9367 71.1685 42.2879 71.0839 42.5757 70.9146C42.8634 70.7453 43.1152 70.521 43.3311 70.2417L44.0483 70.8003C43.4728 71.6848 42.6095 72.127 41.4585 72.127ZM41.3125 65.9698C40.8385 65.9698 40.4408 66.1433 40.1191 66.4903C39.7975 66.833 39.5986 67.3155 39.5225 67.9375H42.9629V67.8487C42.929 67.252 42.7682 66.7907 42.4805 66.4649C42.1927 66.1348 41.8034 65.9698 41.3125 65.9698Z" fill="#453F3F"/>
<path d="M23.197 30.6064L20.8246 33.1642H34.5402C34.5402 33.1642 39.2851 37.7608 40.7678 39.3918C42.2506 41.0228 46.18 39.1323 45.9205 36.5745C45.661 34.0168 43.6963 23.3779 43.6963 23.3779L23.197 30.6064Z" fill="#608F36"/>
<path d="M18.6746 16.9649C20.1573 16.9649 33.4652 15.0744 33.4652 15.0744L37.3575 15.0002C45.2218 14.9335 46.4394 30.6435 37.3575 30.6435C28.2755 30.6435 17.1918 16.9649 18.6746 16.9649Z" fill="#8BC44A"/>
<path d="M12.2987 21.7468C13.807 17.4467 15.2578 15.8837 19.2306 15.0373H37.3945C43.1994 20.9558 37.3945 30.6435 37.3945 30.6435H23.5677C23.5677 30.6435 17.3771 37.5383 15.153 39.2065C12.9288 40.8746 9.9623 39.4389 10.0004 36.1668L12.2987 21.7468Z" fill="#8BC44A"/>
<rect x="21.9363" y="26.7881" width="2.44657" height="8.30351" transform="rotate(-180 21.9363 26.7881)" fill="white"/>
<rect width="2.44657" height="8.30351" transform="matrix(0 -1 -1 0 24.8648 23.8596)" fill="white"/>
<circle cx="36.3562" cy="20.2268" r="1.29742" fill="white"/>
<circle cx="36.3562" cy="25.1941" r="1.29742" fill="white"/>
<circle cx="38.6545" cy="22.5992" r="1.29742" fill="white"/>
<circle cx="33.9097" cy="22.5992" r="1.29742" fill="white"/>
<defs>
<linearGradient id="paint0_linear" x1="27" y1="3.10841e-05" x2="3.38419e-06" y2="113" gradientUnits="userSpaceOnUse">
<stop offset="0.264434" stop-color="white"/>
<stop offset="0.973958" stop-color="#77B044"/>
</linearGradient>
</defs>
</svg>
