<svg width="55" height="75" viewBox="0 0 55 75" fill="none" xmlns="http://www.w3.org/2000/svg">
<rect width="55" height="55" rx="5" fill="url(#paint0_linear)"/>
<path d="M13.6367 68.3818V72H12.418V62.7578H15.8267C16.8381 62.7578 17.6294 63.016 18.2007 63.5322C18.7762 64.0485 19.064 64.7319 19.064 65.5825C19.064 66.4797 18.7826 67.1715 18.2197 67.6582C17.6611 68.1406 16.8592 68.3818 15.814 68.3818H13.6367ZM13.6367 67.3853H15.8267C16.4784 67.3853 16.9777 67.2329 17.3247 66.9282C17.6717 66.6193 17.8452 66.175 17.8452 65.5952C17.8452 65.0451 17.6717 64.605 17.3247 64.2749C16.9777 63.9448 16.5016 63.7734 15.8965 63.7607H13.6367V67.3853ZM24.6753 71.3208C24.2183 71.8582 23.5475 72.127 22.6631 72.127C21.931 72.127 21.3724 71.9154 20.9873 71.4922C20.6064 71.0648 20.4139 70.4342 20.4097 69.6006V65.1318H21.584V69.5688C21.584 70.6099 22.0072 71.1304 22.8535 71.1304C23.7507 71.1304 24.3473 70.7961 24.6436 70.1274V65.1318H25.8179V72H24.7007L24.6753 71.3208ZM28.8838 72H27.7095V62.25H28.8838V72ZM34.7681 70.1782C34.7681 69.8608 34.6475 69.6154 34.4062 69.4419C34.1693 69.2642 33.7524 69.1118 33.1558 68.9849C32.5633 68.8579 32.0915 68.7056 31.7402 68.5278C31.3932 68.3501 31.1351 68.1385 30.9658 67.8931C30.8008 67.6476 30.7183 67.3556 30.7183 67.0171C30.7183 66.4543 30.9552 65.9782 31.4292 65.5889C31.9074 65.1995 32.5168 65.0049 33.2573 65.0049C34.036 65.0049 34.6665 65.2059 35.1489 65.6079C35.6356 66.0099 35.8789 66.5241 35.8789 67.1504H34.6982C34.6982 66.8288 34.5607 66.5516 34.2856 66.3188C34.0148 66.0861 33.672 65.9697 33.2573 65.9697C32.8299 65.9697 32.4956 66.0628 32.2544 66.249C32.0132 66.4352 31.8926 66.6785 31.8926 66.979C31.8926 67.2625 32.0047 67.4762 32.229 67.6201C32.4533 67.764 32.8574 67.9015 33.4414 68.0327C34.0296 68.1639 34.5057 68.3205 34.8696 68.5024C35.2336 68.6844 35.5023 68.9045 35.6758 69.1626C35.8535 69.4165 35.9424 69.7275 35.9424 70.0957C35.9424 70.7093 35.6969 71.2023 35.2061 71.5747C34.7152 71.9429 34.0783 72.127 33.2954 72.127C32.7453 72.127 32.2586 72.0296 31.8354 71.835C31.4123 71.6403 31.0801 71.3695 30.8389 71.0225C30.6019 70.6712 30.4834 70.2925 30.4834 69.8862H31.6577C31.6789 70.2798 31.8354 70.5929 32.1274 70.8257C32.4237 71.0542 32.813 71.1685 33.2954 71.1685C33.7397 71.1685 34.0952 71.0796 34.3618 70.9019C34.6326 70.7199 34.7681 70.4787 34.7681 70.1782ZM41.7124 72C41.6447 71.8646 41.5897 71.6234 41.5474 71.2764C41.0015 71.8434 40.3498 72.127 39.5923 72.127C38.9152 72.127 38.3587 71.9365 37.9229 71.5557C37.4912 71.1706 37.2754 70.6839 37.2754 70.0957C37.2754 69.3805 37.5462 68.8262 38.0879 68.4326C38.6338 68.0348 39.3997 67.8359 40.3857 67.8359H41.5283V67.2964C41.5283 66.8859 41.4056 66.5601 41.1602 66.3188C40.9147 66.0734 40.5529 65.9507 40.0747 65.9507C39.6558 65.9507 39.3045 66.0565 39.021 66.2681C38.7375 66.4797 38.5957 66.7357 38.5957 67.0361H37.415C37.415 66.6934 37.5356 66.3633 37.7769 66.0459C38.0223 65.7243 38.3524 65.4704 38.7671 65.2842C39.186 65.098 39.6452 65.0049 40.1445 65.0049C40.9359 65.0049 41.5558 65.2038 42.0044 65.6016C42.453 65.9951 42.6857 66.5389 42.7026 67.2329V70.394C42.7026 71.0246 42.783 71.526 42.9438 71.8984V72H41.7124ZM39.7637 71.105C40.1318 71.105 40.481 71.0098 40.811 70.8193C41.1411 70.6289 41.3802 70.3813 41.5283 70.0767V68.6675H40.6079C39.1691 68.6675 38.4497 69.0885 38.4497 69.9307C38.4497 70.2988 38.5724 70.5866 38.8179 70.7939C39.0633 71.0013 39.3786 71.105 39.7637 71.105Z" fill="#453F3F"/>
<rect x="17" y="7" width="18.72" height="36" rx="2" fill="#453F3F"/>
<rect x="18.44" y="9.16" width="15.84" height="28.08" rx="3" fill="white"/>
<circle cx="26.36" cy="40.12" r="1.44" fill="white"/>
<defs>
<linearGradient id="paint0_linear" x1="27" y1="5.66515e-07" x2="3.38419e-06" y2="113" gradientUnits="userSpaceOnUse">
<stop offset="0.264434" stop-color="white"/>
<stop offset="0.973958" stop-color="#C4C4C4"/>
</linearGradient>
</defs>
</svg>
