<svg width="55" height="74" viewBox="0 0 55 74" fill="none" xmlns="http://www.w3.org/2000/svg">
<rect width="55" height="55" rx="5" fill="url(#paint0_linear)"/>
<path d="M6.44775 70.0034H10.8276V71H5.22266V61.7578H6.44775V70.0034ZM16.2739 71C16.2062 70.8646 16.1512 70.6234 16.1089 70.2764C15.563 70.8434 14.9113 71.127 14.1538 71.127C13.4767 71.127 12.9202 70.9365 12.4844 70.5557C12.0527 70.1706 11.8369 69.6839 11.8369 69.0957C11.8369 68.3805 12.1077 67.8262 12.6494 67.4326C13.1953 67.0348 13.9613 66.8359 14.9473 66.8359H16.0898V66.2964C16.0898 65.8859 15.9671 65.5601 15.7217 65.3188C15.4762 65.0734 15.1144 64.9507 14.6362 64.9507C14.2173 64.9507 13.866 65.0565 13.5825 65.2681C13.299 65.4797 13.1572 65.7357 13.1572 66.0361H11.9766C11.9766 65.6934 12.0972 65.3633 12.3384 65.0459C12.5838 64.7243 12.9139 64.4704 13.3286 64.2842C13.7476 64.098 14.2067 64.0049 14.7061 64.0049C15.4974 64.0049 16.1174 64.2038 16.5659 64.6016C17.0145 64.9951 17.2472 65.5389 17.2642 66.2329V69.394C17.2642 70.0246 17.3446 70.526 17.5054 70.8984V71H16.2739ZM14.3252 70.105C14.6934 70.105 15.0425 70.0098 15.3726 69.8193C15.7026 69.6289 15.9417 69.3813 16.0898 69.0767V67.6675H15.1694C13.7306 67.6675 13.0112 68.0885 13.0112 68.9307C13.0112 69.2988 13.134 69.5866 13.3794 69.7939C13.6248 70.0013 13.9401 70.105 14.3252 70.105ZM20.3809 71H19.2065V64.1318H20.3809V71ZM19.1113 62.3101C19.1113 62.1196 19.1685 61.9588 19.2827 61.8276C19.4012 61.6965 19.5747 61.6309 19.8032 61.6309C20.0317 61.6309 20.2052 61.6965 20.3237 61.8276C20.4422 61.9588 20.5015 62.1196 20.5015 62.3101C20.5015 62.5005 20.4422 62.6592 20.3237 62.7861C20.2052 62.9131 20.0317 62.9766 19.8032 62.9766C19.5747 62.9766 19.4012 62.9131 19.2827 62.7861C19.1685 62.6592 19.1113 62.5005 19.1113 62.3101ZM23.377 64.1318L23.415 64.9951C23.9398 64.335 24.6253 64.0049 25.4717 64.0049C26.9232 64.0049 27.6553 64.8237 27.668 66.4614V71H26.4937V66.4551C26.4894 65.96 26.3752 65.5939 26.1509 65.3569C25.9308 65.12 25.5859 65.0015 25.1162 65.0015C24.7354 65.0015 24.401 65.103 24.1133 65.3062C23.8255 65.5093 23.6012 65.7759 23.4404 66.106V71H22.2661V64.1318H23.377ZM30.5498 64.1318L30.5879 64.9951C31.1126 64.335 31.7982 64.0049 32.6445 64.0049C34.096 64.0049 34.8281 64.8237 34.8408 66.4614V71H33.6665V66.4551C33.6623 65.96 33.548 65.5939 33.3237 65.3569C33.1037 65.12 32.7588 65.0015 32.2891 65.0015C31.9082 65.0015 31.5739 65.103 31.2861 65.3062C30.9984 65.5093 30.7741 65.7759 30.6133 66.106V71H29.439V64.1318H30.5498ZM38.8589 69.2798L40.4585 64.1318H41.7153L38.9541 72.0601C38.5267 73.2026 37.8475 73.7739 36.9165 73.7739L36.6943 73.7549L36.2563 73.6724V72.7202L36.5737 72.7456C36.9715 72.7456 37.2804 72.6652 37.5005 72.5044C37.7248 72.3436 37.9089 72.0495 38.0527 71.6221L38.313 70.9238L35.8628 64.1318H37.145L38.8589 69.2798ZM46.9077 71C46.84 70.8646 46.785 70.6234 46.7427 70.2764C46.1968 70.8434 45.5451 71.127 44.7876 71.127C44.1105 71.127 43.554 70.9365 43.1182 70.5557C42.6865 70.1706 42.4707 69.6839 42.4707 69.0957C42.4707 68.3805 42.7415 67.8262 43.2832 67.4326C43.8291 67.0348 44.5951 66.8359 45.5811 66.8359H46.7236V66.2964C46.7236 65.8859 46.6009 65.5601 46.3555 65.3188C46.11 65.0734 45.7482 64.9507 45.27 64.9507C44.8511 64.9507 44.4998 65.0565 44.2163 65.2681C43.9328 65.4797 43.791 65.7357 43.791 66.0361H42.6104C42.6104 65.6934 42.731 65.3633 42.9722 65.0459C43.2176 64.7243 43.5477 64.4704 43.9624 64.2842C44.3813 64.098 44.8405 64.0049 45.3398 64.0049C46.1312 64.0049 46.7511 64.2038 47.1997 64.6016C47.6483 64.9951 47.881 65.5389 47.8979 66.2329V69.394C47.8979 70.0246 47.9784 70.526 48.1392 70.8984V71H46.9077ZM44.959 70.105C45.3271 70.105 45.6763 70.0098 46.0063 69.8193C46.3364 69.6289 46.5755 69.3813 46.7236 69.0767V67.6675H45.8032C44.3644 67.6675 43.645 68.0885 43.645 68.9307C43.645 69.2988 43.7677 69.5866 44.0132 69.7939C44.2586 70.0013 44.5739 70.105 44.959 70.105Z" fill="#453F3F"/>
<path d="M14.0194 41.8109C16.7915 44.583 20.8633 45.0057 23.114 42.7549C25.3647 40.5042 27.4479 31.0593 26.1094 29.7208C24.7709 28.3823 15.326 30.4655 13.0753 32.7162C10.8246 34.9669 11.2472 39.0387 14.0194 41.8109Z" fill="#C4C4C4"/>
<path d="M14.0241 16.2731C11.252 19.0452 10.8293 23.117 13.08 25.3677C15.3308 27.6184 24.7756 29.7016 26.1141 28.3631C27.4526 27.0246 25.3695 17.5797 23.1188 15.329C20.8681 13.0783 16.7962 13.5009 14.0241 16.2731Z" fill="#7D7A7A"/>
<path d="M39.9806 41.9414C37.2085 44.7135 33.1367 45.1362 30.886 42.8855C28.6353 40.6348 26.5521 31.1899 27.8906 29.8514C29.2291 28.5129 38.674 30.596 40.9247 32.8467C43.1754 35.0975 42.7528 39.1693 39.9806 41.9414Z" fill="#7D7A7A"/>
<path d="M39.5916 16.0194C42.3638 18.7915 42.7864 22.8633 40.5357 25.114C38.285 27.3647 28.8401 29.4479 27.5016 28.1094C26.1631 26.7709 28.2463 17.326 30.497 15.0753C32.7477 12.8246 36.8195 13.2472 39.5916 16.0194Z" fill="#C4C4C4"/>
<circle cx="36.4474" cy="38.4474" r="2.83938" fill="white"/>
<circle cx="36.4474" cy="19.5182" r="2.83938" fill="white"/>
<circle cx="17.5182" cy="19.5182" r="2.83938" fill="white"/>
<circle cx="17.5182" cy="38.4474" r="2.83938" fill="white"/>
<defs>
<linearGradient id="paint0_linear" x1="27" y1="5.66515e-07" x2="3.38419e-06" y2="113" gradientUnits="userSpaceOnUse">
<stop offset="0.264434" stop-color="white"/>
<stop offset="0.973958" stop-color="#777183"/>
</linearGradient>
</defs>
</svg>
