<svg width="55" height="90" viewBox="0 0 55 90" fill="none" xmlns="http://www.w3.org/2000/svg">
<rect width="55" height="55" rx="5" fill="url(#paint0_linear)"/>
<path d="M11.7769 68.3818V72H10.5581V62.7578H13.9668C14.9782 62.7578 15.7695 63.016 16.3408 63.5322C16.9163 64.0485 17.2041 64.7319 17.2041 65.5825C17.2041 66.4797 16.9227 67.1715 16.3599 67.6582C15.8013 68.1406 14.9993 68.3818 13.9541 68.3818H11.7769ZM11.7769 67.3853H13.9668C14.6185 67.3853 15.1178 67.2329 15.4648 66.9282C15.8118 66.6193 15.9854 66.175 15.9854 65.5952C15.9854 65.0451 15.8118 64.605 15.4648 64.2749C15.1178 63.9448 14.6418 63.7734 14.0366 63.7607H11.7769V67.3853ZM22.7393 72C22.6715 71.8646 22.6165 71.6234 22.5742 71.2764C22.0283 71.8434 21.3766 72.127 20.6191 72.127C19.9421 72.127 19.3856 71.9365 18.9497 71.5557C18.5181 71.1706 18.3022 70.6839 18.3022 70.0957C18.3022 69.3805 18.5731 68.8262 19.1147 68.4326C19.6606 68.0348 20.4266 67.8359 21.4126 67.8359H22.5552V67.2964C22.5552 66.8859 22.4325 66.5601 22.187 66.3188C21.9416 66.0734 21.5798 65.9507 21.1016 65.9507C20.6826 65.9507 20.3314 66.0565 20.0479 66.2681C19.7643 66.4797 19.6226 66.7357 19.6226 67.0361H18.4419C18.4419 66.6934 18.5625 66.3633 18.8037 66.0459C19.0492 65.7243 19.3792 65.4704 19.7939 65.2842C20.2129 65.098 20.672 65.0049 21.1714 65.0049C21.9627 65.0049 22.5827 65.2038 23.0312 65.6016C23.4798 65.9951 23.7126 66.5389 23.7295 67.2329V70.394C23.7295 71.0246 23.8099 71.526 23.9707 71.8984V72H22.7393ZM20.7905 71.105C21.1587 71.105 21.5078 71.0098 21.8379 70.8193C22.168 70.6289 22.4071 70.3813 22.5552 70.0767V68.6675H21.6348C20.196 68.6675 19.4766 69.0885 19.4766 69.9307C19.4766 70.2988 19.5993 70.5866 19.8447 70.7939C20.0902 71.0013 20.4054 71.105 20.7905 71.105ZM27.4873 68.8198L26.751 69.5879V72H25.5767V62.25H26.751V68.147L27.3794 67.3916L29.5186 65.1318H30.9468L28.2744 68.001L31.2578 72H29.8804L27.4873 68.8198ZM34.8823 72.127C33.9513 72.127 33.1938 71.8223 32.6099 71.2129C32.0259 70.5993 31.7339 69.7804 31.7339 68.7563V68.5405C31.7339 67.8592 31.863 67.252 32.1211 66.7188C32.3835 66.1813 32.7474 65.7624 33.2129 65.4619C33.6826 65.1572 34.1904 65.0049 34.7363 65.0049C35.6292 65.0049 36.3232 65.299 36.8184 65.8872C37.3135 66.4754 37.561 67.3175 37.561 68.4136V68.9023H32.9082C32.9251 69.5794 33.1219 70.1274 33.4985 70.5464C33.8794 70.9611 34.3618 71.1685 34.9458 71.1685C35.3605 71.1685 35.7118 71.0838 35.9995 70.9146C36.2873 70.7453 36.5391 70.521 36.7549 70.2417L37.4722 70.8003C36.8966 71.6847 36.0334 72.127 34.8823 72.127ZM34.7363 65.9697C34.2624 65.9697 33.8646 66.1432 33.543 66.4902C33.2214 66.833 33.0225 67.3154 32.9463 67.9375H36.3867V67.8486C36.3529 67.252 36.1921 66.7907 35.9043 66.4648C35.6165 66.1348 35.2272 65.9697 34.7363 65.9697ZM40.519 63.4688V65.1318H41.8013V66.0396H40.519V70.2988C40.519 70.5739 40.5762 70.7812 40.6904 70.9209C40.8047 71.0563 40.9993 71.124 41.2744 71.124C41.4098 71.124 41.596 71.0986 41.833 71.0479V72C41.5241 72.0846 41.2236 72.127 40.9316 72.127C40.4069 72.127 40.0112 71.9683 39.7446 71.6509C39.478 71.3335 39.3447 70.8828 39.3447 70.2988V66.0396H38.0942V65.1318H39.3447V63.4688H40.519ZM15.1094 87V77.7578H17.7183C18.5223 77.7578 19.2332 77.9355 19.8511 78.291C20.4689 78.6465 20.945 79.1522 21.2793 79.8081C21.6178 80.464 21.7892 81.2173 21.7935 82.0679V82.6582C21.7935 83.5299 21.6242 84.2938 21.2856 84.9497C20.9513 85.6056 20.471 86.1092 19.8447 86.4604C19.2227 86.8117 18.4969 86.9915 17.6675 87H15.1094ZM16.3281 78.7607V86.0034H17.6104C18.5498 86.0034 19.2798 85.7114 19.8003 85.1274C20.325 84.5435 20.5874 83.7119 20.5874 82.6328V82.0933C20.5874 81.0438 20.3398 80.2292 19.8447 79.6494C19.3538 79.0654 18.6556 78.7692 17.75 78.7607H16.3281ZM27.6968 87C27.6291 86.8646 27.5741 86.6234 27.5317 86.2764C26.9858 86.8434 26.3341 87.127 25.5767 87.127C24.8996 87.127 24.3431 86.9365 23.9072 86.5557C23.4756 86.1706 23.2598 85.6839 23.2598 85.0957C23.2598 84.3805 23.5306 83.8262 24.0723 83.4326C24.6182 83.0348 25.3841 82.8359 26.3701 82.8359H27.5127V82.2964C27.5127 81.8859 27.39 81.5601 27.1445 81.3188C26.8991 81.0734 26.5373 80.9507 26.0591 80.9507C25.6401 80.9507 25.2889 81.0565 25.0054 81.2681C24.7218 81.4797 24.5801 81.7357 24.5801 82.0361H23.3994C23.3994 81.6934 23.52 81.3633 23.7612 81.0459C24.0067 80.7243 24.3368 80.4704 24.7515 80.2842C25.1704 80.098 25.6296 80.0049 26.1289 80.0049C26.9202 80.0049 27.5402 80.2038 27.9888 80.6016C28.4373 80.9951 28.6701 81.5389 28.687 82.2329V85.394C28.687 86.0246 28.7674 86.526 28.9282 86.8984V87H27.6968ZM25.748 86.105C26.1162 86.105 26.4653 86.0098 26.7954 85.8193C27.1255 85.6289 27.3646 85.3813 27.5127 85.0767V83.6675H26.5923C25.1535 83.6675 24.4341 84.0885 24.4341 84.9307C24.4341 85.2988 24.5568 85.5866 24.8022 85.7939C25.0477 86.0013 25.363 86.105 25.748 86.105ZM32.1211 78.4688V80.1318H33.4033V81.0396H32.1211V85.2988C32.1211 85.5739 32.1782 85.7812 32.2925 85.9209C32.4067 86.0563 32.6014 86.124 32.8765 86.124C33.0119 86.124 33.1981 86.0986 33.4351 86.0479V87C33.1261 87.0846 32.8257 87.127 32.5337 87.127C32.009 87.127 31.6133 86.9683 31.3467 86.6509C31.0801 86.3335 30.9468 85.8828 30.9468 85.2988V81.0396H29.6963V80.1318H30.9468V78.4688H32.1211ZM39.021 87C38.9533 86.8646 38.8983 86.6234 38.856 86.2764C38.3101 86.8434 37.6584 87.127 36.9009 87.127C36.2238 87.127 35.6673 86.9365 35.2314 86.5557C34.7998 86.1706 34.584 85.6839 34.584 85.0957C34.584 84.3805 34.8548 83.8262 35.3965 83.4326C35.9424 83.0348 36.7083 82.8359 37.6943 82.8359H38.8369V82.2964C38.8369 81.8859 38.7142 81.5601 38.4688 81.3188C38.2233 81.0734 37.8615 80.9507 37.3833 80.9507C36.9644 80.9507 36.6131 81.0565 36.3296 81.2681C36.0461 81.4797 35.9043 81.7357 35.9043 82.0361H34.7236C34.7236 81.6934 34.8442 81.3633 35.0854 81.0459C35.3309 80.7243 35.661 80.4704 36.0757 80.2842C36.4946 80.098 36.9538 80.0049 37.4531 80.0049C38.2445 80.0049 38.8644 80.2038 39.313 80.6016C39.7616 80.9951 39.9943 81.5389 40.0112 82.2329V85.394C40.0112 86.0246 40.0916 86.526 40.2524 86.8984V87H39.021ZM37.0723 86.105C37.4404 86.105 37.7896 86.0098 38.1196 85.8193C38.4497 85.6289 38.6888 85.3813 38.8369 85.0767V83.6675H37.9165C36.4777 83.6675 35.7583 84.0885 35.7583 84.9307C35.7583 85.2988 35.881 85.5866 36.1265 85.7939C36.3719 86.0013 36.6872 86.105 37.0723 86.105Z" fill="#453F3F"/>
<circle cx="28" cy="25" r="18" fill="url(#paint1_linear)"/>
<path d="M24.08 30.0562V16H26V36L20 30.0562H24.08Z" fill="white"/>
<path d="M30.92 21.9438V36H29V16L35 21.9438H30.92Z" fill="white"/>
<defs>
<linearGradient id="paint0_linear" x1="27" y1="5.66515e-07" x2="3.38419e-06" y2="113" gradientUnits="userSpaceOnUse">
<stop offset="0.264434" stop-color="white"/>
<stop offset="0.973958" stop-color="#FF5C63"/>
</linearGradient>
<linearGradient id="paint1_linear" x1="28" y1="7" x2="28" y2="43" gradientUnits="userSpaceOnUse">
<stop offset="0.109375" stop-color="#FF969A"/>
<stop offset="1" stop-color="#FF5158"/>
</linearGradient>
</defs>
</svg>
