<svg width="63" height="80" viewBox="0 0 63 80" fill="none" xmlns="http://www.w3.org/2000/svg">
<g filter="url(#filter0_d)">
<rect x="4" width="55" height="55" rx="5" fill="url(#paint0_linear)"/>
<path d="M16.5801 68.3818V72H15.3613V62.7578H18.77C19.7814 62.7578 20.5728 63.016 21.144 63.5322C21.7196 64.0485 22.0073 64.7319 22.0073 65.5825C22.0073 66.4797 21.7259 67.1715 21.1631 67.6582C20.6045 68.1406 19.8026 68.3818 18.7573 68.3818H16.5801ZM16.5801 67.3853H18.77C19.4217 67.3853 19.9211 67.2329 20.2681 66.9282C20.6151 66.6193 20.7886 66.175 20.7886 65.5952C20.7886 65.0451 20.6151 64.605 20.2681 64.2749C19.9211 63.9448 19.445 63.7734 18.8398 63.7607H16.5801V67.3853ZM23.5625 72V62.7578H26.1714C26.9754 62.7578 27.6864 62.9355 28.3042 63.291C28.922 63.6465 29.3981 64.1522 29.7324 64.8081C30.071 65.464 30.2424 66.2173 30.2466 67.0679V67.6582C30.2466 68.5299 30.0773 69.2938 29.7388 69.9497C29.4045 70.6056 28.9242 71.1092 28.2979 71.4604C27.6758 71.8117 26.95 71.9915 26.1206 72H23.5625ZM24.7812 63.7607V71.0034H26.0635C27.0029 71.0034 27.7329 70.7114 28.2534 70.1274C28.7782 69.5435 29.0405 68.7119 29.0405 67.6328V67.0933C29.0405 66.0438 28.793 65.2292 28.2979 64.6494C27.807 64.0654 27.1087 63.7692 26.2031 63.7607H24.7812ZM37.0576 69.5879H33.1855L32.3159 72H31.0591L34.5884 62.7578H35.6548L39.1904 72H37.9399L37.0576 69.5879ZM33.5537 68.585H36.6958L35.1216 64.2622L33.5537 68.585ZM42.0088 62.7578L45.0303 70.2988L48.0518 62.7578H49.6323V72H48.4136V68.4009L48.5278 64.5161L45.4937 72H44.5605L41.5327 64.5352L41.6533 68.4009V72H40.4346V62.7578H42.0088Z" fill="#453F3F"/>
<path d="M35.3956 21.593C28.8735 16.3117 27.7828 13.025 27.1204 7C18.8595 21.7172 18.1152 39.7781 30.1492 42.5564C42.1833 45.3347 43.5896 34.3058 42.8324 30.4611C42.0752 26.6164 40.0933 24.4423 35.3956 21.593Z" fill="#83CDE6"/>
<path d="M29.7662 34.6848C24.297 31.1174 24.424 20.5567 26.7459 11.2857C28.0483 15.7584 28.705 19.2914 33.0859 22.606C37.4667 25.9207 39.9247 27.84 40.4599 31.2297C40.5701 34.5606 35.2355 38.2523 29.7662 34.6848Z" fill="#C4E6F2"/>
<path d="M39.6154 39.5235C26.7837 42.1712 23.8068 36.3368 23.9721 16.4286C22.3838 22.6253 20.386 27.5494 23.4356 34.2048C26.4852 40.8602 31.2637 43.2569 39.6154 39.5235Z" fill="#A6DEEF"/>
</g>
<defs>
<filter id="filter0_d" x="0" y="0" width="63" height="80" filterUnits="userSpaceOnUse" color-interpolation-filters="sRGB">
<feFlood flood-opacity="0" result="BackgroundImageFix"/>
<feColorMatrix in="SourceAlpha" type="matrix" values="0 0 0 0 0 0 0 0 0 0 0 0 0 0 0 0 0 0 127 0"/>
<feOffset dy="4"/>
<feGaussianBlur stdDeviation="2"/>
<feColorMatrix type="matrix" values="0 0 0 0 0 0 0 0 0 0 0 0 0 0 0 0 0 0 0.25 0"/>
<feBlend mode="normal" in2="BackgroundImageFix" result="effect1_dropShadow"/>
<feBlend mode="normal" in="SourceGraphic" in2="effect1_dropShadow" result="shape"/>
</filter>
<linearGradient id="paint0_linear" x1="31" y1="5.66515e-07" x2="4" y2="113" gradientUnits="userSpaceOnUse">
<stop offset="0.264434" stop-color="white"/>
<stop offset="0.973958" stop-color="#83CDE6"/>
</linearGradient>
</defs>
</svg>
