<svg width="55" height="91" viewBox="0 0 55 91" fill="none" xmlns="http://www.w3.org/2000/svg">
<rect width="55" height="55" rx="5" fill="url(#paint0_linear)"/>
<path d="M16.0596 69.3818V73H14.8408V63.7578H18.2495C19.2609 63.7578 20.0522 64.016 20.6235 64.5322C21.1991 65.0485 21.4868 65.7319 21.4868 66.5825C21.4868 67.4797 21.2054 68.1715 20.6426 68.6582C20.084 69.1406 19.2821 69.3818 18.2368 69.3818H16.0596ZM16.0596 68.3853H18.2495C18.9012 68.3853 19.4006 68.2329 19.7476 67.9282C20.0946 67.6193 20.2681 67.175 20.2681 66.5952C20.2681 66.0451 20.0946 65.605 19.7476 65.2749C19.4006 64.9448 18.9245 64.7734 18.3193 64.7607H16.0596V68.3853ZM24.2671 72.0034H28.647V73H23.042V63.7578H24.2671V72.0034ZM37.1401 73H35.915L31.2622 65.8779V73H30.0371V63.7578H31.2622L35.9277 70.9116V63.7578H37.1401V73ZM2.67871 84.3818V88H1.45996V78.7578H4.86865C5.88005 78.7578 6.67139 79.016 7.24268 79.5322C7.8182 80.0485 8.10596 80.7319 8.10596 81.5825C8.10596 82.4797 7.82454 83.1715 7.26172 83.6582C6.70312 84.1406 5.9012 84.3818 4.85596 84.3818H2.67871ZM2.67871 83.3853H4.86865C5.52035 83.3853 6.01969 83.2329 6.3667 82.9282C6.7137 82.6193 6.88721 82.175 6.88721 81.5952C6.88721 81.0451 6.7137 80.605 6.3667 80.2749C6.01969 79.9448 5.54362 79.7734 4.93848 79.7607H2.67871V83.3853ZM12.7969 82.1855C12.6191 82.1559 12.4266 82.1411 12.2192 82.1411C11.4491 82.1411 10.9264 82.4691 10.6514 83.125V88H9.47705V81.1318H10.6196L10.6387 81.9253C11.0238 81.3117 11.5697 81.0049 12.2764 81.0049C12.5049 81.0049 12.6784 81.0345 12.7969 81.0938V82.1855ZM17.8687 88C17.8009 87.8646 17.7459 87.6234 17.7036 87.2764C17.1577 87.8434 16.506 88.127 15.7485 88.127C15.0715 88.127 14.515 87.9365 14.0791 87.5557C13.6475 87.1706 13.4316 86.6839 13.4316 86.0957C13.4316 85.3805 13.7025 84.8262 14.2441 84.4326C14.79 84.0348 15.556 83.8359 16.542 83.8359H17.6846V83.2964C17.6846 82.8859 17.5618 82.5601 17.3164 82.3188C17.071 82.0734 16.7091 81.9507 16.231 81.9507C15.812 81.9507 15.4608 82.0565 15.1772 82.2681C14.8937 82.4797 14.752 82.7357 14.752 83.0361H13.5713C13.5713 82.6934 13.6919 82.3633 13.9331 82.0459C14.1785 81.7243 14.5086 81.4704 14.9233 81.2842C15.3423 81.098 15.8014 81.0049 16.3008 81.0049C17.0921 81.0049 17.7121 81.2038 18.1606 81.6016C18.6092 81.9951 18.842 82.5389 18.8589 83.2329V86.394C18.8589 87.0246 18.9393 87.526 19.1001 87.8984V88H17.8687ZM15.9199 87.105C16.2881 87.105 16.6372 87.0098 16.9673 86.8193C17.2974 86.6289 17.5365 86.3813 17.6846 86.0767V84.6675H16.7642C15.3254 84.6675 14.606 85.0885 14.606 85.9307C14.606 86.2988 14.7287 86.5866 14.9741 86.7939C15.2196 87.0013 15.5348 87.105 15.9199 87.105ZM26.5142 84.6421C26.5142 85.6916 26.2729 86.5358 25.7905 87.1748C25.3081 87.8096 24.6606 88.127 23.8481 88.127C22.9806 88.127 22.3099 87.8201 21.8359 87.2065L21.7788 88H20.6997V78.25H21.874V81.8872C22.348 81.299 23.0018 81.0049 23.8354 81.0049C24.6691 81.0049 25.3229 81.3201 25.7969 81.9507C26.2751 82.5812 26.5142 83.4445 26.5142 84.5405V84.6421ZM25.3398 84.5088C25.3398 83.709 25.1854 83.0911 24.8765 82.6553C24.5675 82.2194 24.1232 82.0015 23.5435 82.0015C22.769 82.0015 22.2126 82.3612 21.874 83.0806V86.0513C22.2337 86.7707 22.7944 87.1304 23.5562 87.1304C24.119 87.1304 24.557 86.9124 24.8701 86.4766C25.1833 86.0407 25.3398 85.3848 25.3398 84.5088ZM32.2397 88C32.172 87.8646 32.117 87.6234 32.0747 87.2764C31.5288 87.8434 30.8771 88.127 30.1196 88.127C29.4425 88.127 28.8861 87.9365 28.4502 87.5557C28.0186 87.1706 27.8027 86.6839 27.8027 86.0957C27.8027 85.3805 28.0736 84.8262 28.6152 84.4326C29.1611 84.0348 29.9271 83.8359 30.9131 83.8359H32.0557V83.2964C32.0557 82.8859 31.9329 82.5601 31.6875 82.3188C31.4421 82.0734 31.0802 81.9507 30.6021 81.9507C30.1831 81.9507 29.8319 82.0565 29.5483 82.2681C29.2648 82.4797 29.123 82.7357 29.123 83.0361H27.9424C27.9424 82.6934 28.063 82.3633 28.3042 82.0459C28.5496 81.7243 28.8797 81.4704 29.2944 81.2842C29.7134 81.098 30.1725 81.0049 30.6719 81.0049C31.4632 81.0049 32.0832 81.2038 32.5317 81.6016C32.9803 81.9951 33.2131 82.5389 33.23 83.2329V86.394C33.23 87.0246 33.3104 87.526 33.4712 87.8984V88H32.2397ZM30.291 87.105C30.6592 87.105 31.0083 87.0098 31.3384 86.8193C31.6685 86.6289 31.9076 86.3813 32.0557 86.0767V84.6675H31.1353C29.6965 84.6675 28.9771 85.0885 28.9771 85.9307C28.9771 86.2988 29.0998 86.5866 29.3452 86.7939C29.5907 87.0013 29.9059 87.105 30.291 87.105ZM37.2163 86.2798L38.8159 81.1318H40.0728L37.3115 89.0601C36.8841 90.2026 36.2049 90.7739 35.2739 90.7739L35.0518 90.7549L34.6138 90.6724V89.7202L34.9312 89.7456C35.3289 89.7456 35.6379 89.6652 35.8579 89.5044C36.0822 89.3436 36.2663 89.0495 36.4102 88.6221L36.6704 87.9238L34.2202 81.1318H35.5024L37.2163 86.2798ZM45.2651 88C45.1974 87.8646 45.1424 87.6234 45.1001 87.2764C44.5542 87.8434 43.9025 88.127 43.145 88.127C42.4679 88.127 41.9115 87.9365 41.4756 87.5557C41.0439 87.1706 40.8281 86.6839 40.8281 86.0957C40.8281 85.3805 41.099 84.8262 41.6406 84.4326C42.1865 84.0348 42.9525 83.8359 43.9385 83.8359H45.0811V83.2964C45.0811 82.8859 44.9583 82.5601 44.7129 82.3188C44.4674 82.0734 44.1056 81.9507 43.6274 81.9507C43.2085 81.9507 42.8573 82.0565 42.5737 82.2681C42.2902 82.4797 42.1484 82.7357 42.1484 83.0361H40.9678C40.9678 82.6934 41.0884 82.3633 41.3296 82.0459C41.575 81.7243 41.9051 81.4704 42.3198 81.2842C42.7388 81.098 43.1979 81.0049 43.6973 81.0049C44.4886 81.0049 45.1086 81.2038 45.5571 81.6016C46.0057 81.9951 46.2384 82.5389 46.2554 83.2329V86.394C46.2554 87.0246 46.3358 87.526 46.4966 87.8984V88H45.2651ZM43.3164 87.105C43.6846 87.105 44.0337 87.0098 44.3638 86.8193C44.6938 86.6289 44.9329 86.3813 45.0811 86.0767V84.6675H44.1606C42.7218 84.6675 42.0024 85.0885 42.0024 85.9307C42.0024 86.2988 42.1252 86.5866 42.3706 86.7939C42.616 87.0013 42.9313 87.105 43.3164 87.105ZM51.416 82.1855C51.2383 82.1559 51.0457 82.1411 50.8384 82.1411C50.0682 82.1411 49.5456 82.4691 49.2705 83.125V88H48.0962V81.1318H49.2388L49.2578 81.9253C49.6429 81.3117 50.1888 81.0049 50.8955 81.0049C51.124 81.0049 51.2975 81.0345 51.416 81.0938V82.1855Z" fill="#453F3F"/>
<path d="M17.58 26.0533L29.5154 8.85899C29.8449 8.38439 30.5831 8.7539 30.4006 9.30205L26.6374 20.6044C26.5232 20.9475 26.7996 21.2946 27.1595 21.2601L37.055 20.3127C37.4555 20.2744 37.735 20.7007 37.5401 21.0527L25.617 42.5804C25.3388 43.0828 24.5716 42.7966 24.6904 42.2348L27.9183 26.9687C27.9862 26.6477 27.7317 26.3495 27.404 26.3659L18.0158 26.8378C17.6012 26.8587 17.3433 26.3944 17.58 26.0533Z" fill="#FFC84F"/>
<path d="M20.2 24.6761L29.9653 8.86575C30.0805 8.67912 30.3688 8.78735 30.3327 9.00373L28.5428 19.7434C28.5212 19.8729 28.6282 19.9878 28.759 19.9753L38.613 19.0369C38.7749 19.0214 38.8866 19.1956 38.8049 19.3363L25.2964 42.6269C25.1784 42.8303 24.8671 42.6986 24.9309 42.4723L29.9244 24.7679C29.9616 24.6363 29.8586 24.5071 29.7219 24.5139L20.3802 24.981C20.2193 24.989 20.1154 24.8132 20.2 24.6761Z" fill="#FFDC64"/>
<defs>
<linearGradient id="paint0_linear" x1="27" y1="5.66515e-07" x2="3.38419e-06" y2="113" gradientUnits="userSpaceOnUse">
<stop offset="0.264434" stop-color="white"/>
<stop offset="0.973958" stop-color="#FFDC64"/>
</linearGradient>
</defs>
</svg>
