<svg width="56" height="105" viewBox="0 0 56 105" fill="none" xmlns="http://www.w3.org/2000/svg">
<rect x="1" y="-2.28882e-05" width="55" height="55" rx="5" fill="url(#paint0_linear)"/>
<ellipse cx="24.1199" cy="33.4234" rx="11.1199" ry="10.5766" fill="#5C5C5C"/>
<ellipse cx="23.5042" cy="32.9887" rx="7.17182" ry="6.8096" fill="white"/>
<path d="M21.0411 16.182C23.2869 11.5819 24.1199 16.182 24.1199 16.182C24.1199 16.182 23.6853 18.9711 24.8081 20.5286C25.931 22.0861 29.9516 11.9079 29.9516 11.9079C29.9516 11.9079 32.3422 9.44489 32.5957 12.6324C32.8493 15.8198 31.5441 18.8432 31.9075 20.6735C32.271 22.5038 38.7125 14.5693 39.8038 13.8277C40.8951 13.086 43.5346 12.6324 42.3393 15.7474C41.144 18.8624 36.0367 24.1507 37.4494 24.6578C38.862 25.1649 40.9009 23.692 45.7079 21.3255C45.7079 21.3255 49.6922 20.9878 47.4827 23.6799C45.2732 26.3719 36.5045 31.7455 37.0147 33.0974C37.525 34.4493 39.7782 34.2191 42.9188 34.2927C42.9188 34.2927 47.5551 35.8864 42.9188 37.5888C42.8844 37.6015 42.8492 37.613 42.8131 37.6234C28.155 42.3785 16.336 28.9193 20.9373 16.456C20.9644 16.3599 20.9989 16.2685 21.0411 16.182Z" fill="#D51200"/>
<path d="M29.49 37.0032C33.1483 30.085 26.7734 24.5431 20.7244 26.8975L20 23.6013C30.4317 20.6312 38.0382 29.1432 34.0176 38.597C33.3064 38.3934 31.5546 37.8725 31.5546 37.8725C31.5546 37.8725 30.0489 37.3701 29.49 37.0032Z" fill="white"/>
<path d="M12.5718 68.3818V72H11.353V62.7578H14.7617C15.7731 62.7578 16.5645 63.016 17.1357 63.5322C17.7113 64.0485 17.999 64.7319 17.999 65.5825C17.999 66.4797 17.7176 67.1715 17.1548 67.6582C16.5962 68.1406 15.7943 68.3818 14.749 68.3818H12.5718ZM12.5718 67.3853H14.7617C15.4134 67.3853 15.9128 67.2329 16.2598 66.9282C16.6068 66.6193 16.7803 66.175 16.7803 65.5952C16.7803 65.0451 16.6068 64.605 16.2598 64.2749C15.9128 63.9448 15.4367 63.7734 14.8315 63.7607H12.5718V67.3853ZM20.7729 68.3818V72H19.5542V62.7578H22.9629C23.9743 62.7578 24.7656 63.016 25.3369 63.5322C25.9124 64.0485 26.2002 64.7319 26.2002 65.5825C26.2002 66.4797 25.9188 67.1715 25.356 67.6582C24.7974 68.1406 23.9954 68.3818 22.9502 68.3818H20.7729ZM20.7729 67.3853H22.9629C23.6146 67.3853 24.1139 67.2329 24.4609 66.9282C24.8079 66.6193 24.9814 66.175 24.9814 65.5952C24.9814 65.0451 24.8079 64.605 24.4609 64.2749C24.1139 63.9448 23.6379 63.7734 23.0327 63.7607H20.7729V67.3853ZM34.8647 67.6772C34.8647 68.5828 34.7124 69.3742 34.4077 70.0513C34.103 70.7241 33.6714 71.2383 33.1128 71.5938C32.5542 71.9492 31.9025 72.127 31.1577 72.127C30.4299 72.127 29.7845 71.9492 29.2217 71.5938C28.6589 71.234 28.2209 70.7241 27.9077 70.064C27.5988 69.3996 27.4401 68.6315 27.4316 67.7598V67.0933C27.4316 66.2046 27.5861 65.4196 27.895 64.7383C28.2039 64.057 28.6398 63.5365 29.2026 63.1768C29.7697 62.8128 30.4172 62.6309 31.145 62.6309C31.8856 62.6309 32.5373 62.8107 33.1001 63.1704C33.6672 63.5259 34.103 64.0443 34.4077 64.7256C34.7124 65.4027 34.8647 66.1919 34.8647 67.0933V67.6772ZM33.6523 67.0806C33.6523 65.9845 33.4323 65.1445 32.9922 64.5605C32.5521 63.9723 31.9364 63.6782 31.145 63.6782C30.3748 63.6782 29.7676 63.9723 29.3232 64.5605C28.8831 65.1445 28.6567 65.957 28.644 66.998V67.6772C28.644 68.7394 28.8662 69.5752 29.3105 70.1846C29.7591 70.7897 30.3748 71.0923 31.1577 71.0923C31.9448 71.0923 32.5542 70.8066 32.9858 70.2354C33.4175 69.6598 33.6396 68.8368 33.6523 67.7661V67.0806ZM36.6929 72V62.7578H39.7144C40.7173 62.7578 41.4705 62.9652 41.9741 63.3799C42.4819 63.7946 42.7358 64.4082 42.7358 65.2207C42.7358 65.6523 42.6131 66.0353 42.3677 66.3696C42.1222 66.6997 41.7879 66.9557 41.3647 67.1377C41.8641 67.2773 42.2576 67.5439 42.5454 67.9375C42.8374 68.3268 42.9834 68.7923 42.9834 69.334C42.9834 70.1634 42.7147 70.8151 42.1772 71.2891C41.6398 71.763 40.8802 72 39.8984 72H36.6929ZM37.9116 67.6772V71.0034H39.9238C40.4909 71.0034 40.9373 70.8574 41.2632 70.5654C41.5933 70.2692 41.7583 69.863 41.7583 69.3467C41.7583 68.2337 41.1532 67.6772 39.9429 67.6772H37.9116ZM37.9116 66.6997H39.7524C40.2856 66.6997 40.7109 66.5664 41.0283 66.2998C41.3499 66.0332 41.5107 65.6714 41.5107 65.2144C41.5107 64.7065 41.3626 64.3384 41.0664 64.1099C40.7702 63.8771 40.3195 63.7607 39.7144 63.7607H37.9116V66.6997ZM7.5127 78.7607H4.54199V87H3.32959V78.7607H0.365234V77.7578H7.5127V78.7607ZM10.915 87.127C9.98405 87.127 9.22656 86.8223 8.64258 86.2129C8.05859 85.5993 7.7666 84.7804 7.7666 83.7563V83.5405C7.7666 82.8592 7.89567 82.252 8.15381 81.7188C8.41618 81.1813 8.78011 80.7624 9.24561 80.4619C9.71533 80.1572 10.2231 80.0049 10.769 80.0049C11.6619 80.0049 12.356 80.299 12.8511 80.8872C13.3462 81.4754 13.5938 82.3175 13.5938 83.4136V83.9023H8.94092C8.95785 84.5794 9.15462 85.1274 9.53125 85.5464C9.91211 85.9611 10.3945 86.1685 10.9785 86.1685C11.3932 86.1685 11.7445 86.0838 12.0322 85.9146C12.32 85.7453 12.5718 85.521 12.7876 85.2417L13.5049 85.8003C12.9294 86.6847 12.0661 87.127 10.915 87.127ZM10.769 80.9697C10.2951 80.9697 9.8973 81.1432 9.57568 81.4902C9.25407 81.833 9.05518 82.3154 8.979 82.9375H12.4194V82.8486C12.3856 82.252 12.2248 81.7907 11.937 81.4648C11.6493 81.1348 11.2599 80.9697 10.769 80.9697ZM16.2344 87H15.0601V77.25H16.2344V87ZM20.0366 83.8198L19.3003 84.5879V87H18.126V77.25H19.3003V83.147L19.9287 82.3916L22.0679 80.1318H23.4961L20.8237 83.001L23.8071 87H22.4297L20.0366 83.8198ZM24.3975 83.5024C24.3975 82.8296 24.5286 82.2244 24.791 81.687C25.0576 81.1496 25.4258 80.7349 25.8955 80.4429C26.3695 80.1509 26.909 80.0049 27.5142 80.0049C28.4494 80.0049 29.2048 80.3286 29.7803 80.9761C30.36 81.6235 30.6499 82.4847 30.6499 83.5596V83.6421C30.6499 84.3107 30.5208 84.9116 30.2627 85.4448C30.0088 85.9738 29.6427 86.3864 29.1646 86.6826C28.6906 86.9788 28.1447 87.127 27.5269 87.127C26.5959 87.127 25.8405 86.8032 25.2607 86.1558C24.6852 85.5083 24.3975 84.6514 24.3975 83.585V83.5024ZM25.5781 83.6421C25.5781 84.4038 25.7537 85.0153 26.105 85.4766C26.4604 85.9378 26.9344 86.1685 27.5269 86.1685C28.1235 86.1685 28.5975 85.9357 28.9487 85.4702C29.3 85.0005 29.4756 84.3446 29.4756 83.5024C29.4756 82.7492 29.2957 82.1398 28.936 81.6743C28.5806 81.2046 28.1066 80.9697 27.5142 80.9697C26.9344 80.9697 26.4668 81.2004 26.1113 81.6616C25.7559 82.1229 25.5781 82.783 25.5781 83.6421ZM33.2271 80.1318L33.2588 80.8936C33.7624 80.3011 34.4416 80.0049 35.2964 80.0049C36.257 80.0049 36.9108 80.373 37.2578 81.1094C37.4863 80.7793 37.7826 80.5127 38.1465 80.3096C38.5146 80.1064 38.9484 80.0049 39.4478 80.0049C40.9543 80.0049 41.7202 80.8026 41.7456 82.3979V87H40.5713V82.4678C40.5713 81.9769 40.4591 81.6108 40.2349 81.3696C40.0106 81.1242 39.634 81.0015 39.105 81.0015C38.6691 81.0015 38.3073 81.1326 38.0195 81.395C37.7318 81.6532 37.5646 82.0023 37.5181 82.4424V87H36.3374V82.4995C36.3374 81.5008 35.8486 81.0015 34.8711 81.0015C34.1009 81.0015 33.5741 81.3294 33.2905 81.9854V87H32.1162V80.1318H33.2271ZM46.5 84.5181C46.5 84.0737 46.6227 83.6654 46.8682 83.293C47.1178 82.9206 47.5918 82.4868 48.29 81.9917C47.8796 81.4924 47.6045 81.0903 47.4648 80.7856C47.3252 80.481 47.2554 80.1784 47.2554 79.8779C47.2554 79.1755 47.4627 78.6253 47.8774 78.2275C48.2922 77.8298 48.855 77.6309 49.5659 77.6309C50.2007 77.6309 50.7254 77.8171 51.1401 78.1895C51.5549 78.5576 51.7622 79.0231 51.7622 79.5859C51.7622 79.9583 51.667 80.3032 51.4766 80.6206C51.2904 80.9338 50.9624 81.2638 50.4927 81.6108L49.8135 82.1123L51.8701 84.5688C52.1579 84.0187 52.3018 83.4072 52.3018 82.7344H53.3618C53.3618 83.8135 53.1016 84.7085 52.5811 85.4194L53.9014 87H52.4922L51.8765 86.27C51.5633 86.5493 51.1951 86.763 50.772 86.9111C50.353 87.055 49.9256 87.127 49.4897 87.127C48.5884 87.127 47.8647 86.8879 47.3188 86.4097C46.7729 85.9315 46.5 85.3009 46.5 84.5181ZM49.4897 86.1685C50.1118 86.1685 50.681 85.9315 51.1973 85.4575L48.9438 82.7598L48.7344 82.9121C48.0277 83.4326 47.6743 83.9679 47.6743 84.5181C47.6743 85.0174 47.8351 85.4173 48.1567 85.7178C48.4826 86.0182 48.9269 86.1685 49.4897 86.1685ZM48.4297 79.8398C48.4297 80.2461 48.6794 80.7539 49.1787 81.3633L49.9277 80.8364C50.2155 80.6333 50.4123 80.4408 50.5181 80.2588C50.6239 80.0726 50.6768 79.8483 50.6768 79.5859C50.6768 79.3024 50.571 79.0675 50.3594 78.8813C50.1478 78.6909 49.8812 78.5957 49.5596 78.5957C49.2126 78.5957 48.9375 78.7142 48.7344 78.9512C48.5312 79.1839 48.4297 79.4801 48.4297 79.8398ZM3.67871 98.3818V102H2.45996V92.7578H5.86865C6.88005 92.7578 7.67139 93.016 8.24268 93.5322C8.8182 94.0485 9.10596 94.7319 9.10596 95.5825C9.10596 96.4797 8.82454 97.1715 8.26172 97.6582C7.70312 98.1406 6.9012 98.3818 5.85596 98.3818H3.67871ZM3.67871 97.3853H5.86865C6.52035 97.3853 7.01969 97.2329 7.3667 96.9282C7.7137 96.6193 7.88721 96.175 7.88721 95.5952C7.88721 95.0451 7.7137 94.605 7.3667 94.2749C7.01969 93.9448 6.54362 93.7734 5.93848 93.7607H3.67871V97.3853ZM13.7969 96.1855C13.6191 96.1559 13.4266 96.1411 13.2192 96.1411C12.4491 96.1411 11.9264 96.4691 11.6514 97.125V102H10.4771V95.1318H11.6196L11.6387 95.9253C12.0238 95.3117 12.5697 95.0049 13.2764 95.0049C13.5049 95.0049 13.6784 95.0345 13.7969 95.0938V96.1855ZM18.8687 102C18.8009 101.865 18.7459 101.623 18.7036 101.276C18.1577 101.843 17.506 102.127 16.7485 102.127C16.0715 102.127 15.515 101.937 15.0791 101.556C14.6475 101.171 14.4316 100.684 14.4316 100.096C14.4316 99.3805 14.7025 98.8262 15.2441 98.4326C15.79 98.0348 16.556 97.8359 17.542 97.8359H18.6846V97.2964C18.6846 96.8859 18.5618 96.5601 18.3164 96.3188C18.071 96.0734 17.7091 95.9507 17.231 95.9507C16.812 95.9507 16.4608 96.0565 16.1772 96.2681C15.8937 96.4797 15.752 96.7357 15.752 97.0361H14.5713C14.5713 96.6934 14.6919 96.3633 14.9331 96.0459C15.1785 95.7243 15.5086 95.4704 15.9233 95.2842C16.3423 95.098 16.8014 95.0049 17.3008 95.0049C18.0921 95.0049 18.7121 95.2038 19.1606 95.6016C19.6092 95.9951 19.842 96.5389 19.8589 97.2329V100.394C19.8589 101.025 19.9393 101.526 20.1001 101.898V102H18.8687ZM16.9199 101.105C17.2881 101.105 17.6372 101.01 17.9673 100.819C18.2974 100.629 18.5365 100.381 18.6846 100.077V98.6675H17.7642C16.3254 98.6675 15.606 99.0885 15.606 99.9307C15.606 100.299 15.7287 100.587 15.9741 100.794C16.2196 101.001 16.5348 101.105 16.9199 101.105ZM27.5142 98.6421C27.5142 99.6916 27.2729 100.536 26.7905 101.175C26.3081 101.81 25.6606 102.127 24.8481 102.127C23.9806 102.127 23.3099 101.82 22.8359 101.207L22.7788 102H21.6997V92.25H22.874V95.8872C23.348 95.299 24.0018 95.0049 24.8354 95.0049C25.6691 95.0049 26.3229 95.3201 26.7969 95.9507C27.2751 96.5812 27.5142 97.4445 27.5142 98.5405V98.6421ZM26.3398 98.5088C26.3398 97.709 26.1854 97.0911 25.8765 96.6553C25.5675 96.2194 25.1232 96.0015 24.5435 96.0015C23.769 96.0015 23.2126 96.3612 22.874 97.0806V100.051C23.2337 100.771 23.7944 101.13 24.5562 101.13C25.119 101.13 25.557 100.912 25.8701 100.477C26.1833 100.041 26.3398 99.3848 26.3398 98.5088ZM33.2397 102C33.172 101.865 33.117 101.623 33.0747 101.276C32.5288 101.843 31.8771 102.127 31.1196 102.127C30.4425 102.127 29.8861 101.937 29.4502 101.556C29.0186 101.171 28.8027 100.684 28.8027 100.096C28.8027 99.3805 29.0736 98.8262 29.6152 98.4326C30.1611 98.0348 30.9271 97.8359 31.9131 97.8359H33.0557V97.2964C33.0557 96.8859 32.9329 96.5601 32.6875 96.3188C32.4421 96.0734 32.0802 95.9507 31.6021 95.9507C31.1831 95.9507 30.8319 96.0565 30.5483 96.2681C30.2648 96.4797 30.123 96.7357 30.123 97.0361H28.9424C28.9424 96.6934 29.063 96.3633 29.3042 96.0459C29.5496 95.7243 29.8797 95.4704 30.2944 95.2842C30.7134 95.098 31.1725 95.0049 31.6719 95.0049C32.4632 95.0049 33.0832 95.2038 33.5317 95.6016C33.9803 95.9951 34.2131 96.5389 34.23 97.2329V100.394C34.23 101.025 34.3104 101.526 34.4712 101.898V102H33.2397ZM31.291 101.105C31.6592 101.105 32.0083 101.01 32.3384 100.819C32.6685 100.629 32.9076 100.381 33.0557 100.077V98.6675H32.1353C30.6965 98.6675 29.9771 99.0885 29.9771 99.9307C29.9771 100.299 30.0998 100.587 30.3452 100.794C30.5907 101.001 30.9059 101.105 31.291 101.105ZM38.2163 100.28L39.8159 95.1318H41.0728L38.3115 103.06C37.8841 104.203 37.2049 104.774 36.2739 104.774L36.0518 104.755L35.6138 104.672V103.72L35.9312 103.746C36.3289 103.746 36.6379 103.665 36.8579 103.504C37.0822 103.344 37.2663 103.049 37.4102 102.622L37.6704 101.924L35.2202 95.1318H36.5024L38.2163 100.28ZM46.2651 102C46.1974 101.865 46.1424 101.623 46.1001 101.276C45.5542 101.843 44.9025 102.127 44.145 102.127C43.4679 102.127 42.9115 101.937 42.4756 101.556C42.0439 101.171 41.8281 100.684 41.8281 100.096C41.8281 99.3805 42.099 98.8262 42.6406 98.4326C43.1865 98.0348 43.9525 97.8359 44.9385 97.8359H46.0811V97.2964C46.0811 96.8859 45.9583 96.5601 45.7129 96.3188C45.4674 96.0734 45.1056 95.9507 44.6274 95.9507C44.2085 95.9507 43.8573 96.0565 43.5737 96.2681C43.2902 96.4797 43.1484 96.7357 43.1484 97.0361H41.9678C41.9678 96.6934 42.0884 96.3633 42.3296 96.0459C42.575 95.7243 42.9051 95.4704 43.3198 95.2842C43.7388 95.098 44.1979 95.0049 44.6973 95.0049C45.4886 95.0049 46.1086 95.2038 46.5571 95.6016C47.0057 95.9951 47.2384 96.5389 47.2554 97.2329V100.394C47.2554 101.025 47.3358 101.526 47.4966 101.898V102H46.2651ZM44.3164 101.105C44.6846 101.105 45.0337 101.01 45.3638 100.819C45.6938 100.629 45.9329 100.381 46.0811 100.077V98.6675H45.1606C43.7218 98.6675 43.0024 99.0885 43.0024 99.9307C43.0024 100.299 43.1252 100.587 43.3706 100.794C43.616 101.001 43.9313 101.105 44.3164 101.105ZM52.416 96.1855C52.2383 96.1559 52.0457 96.1411 51.8384 96.1411C51.0682 96.1411 50.5456 96.4691 50.2705 97.125V102H49.0962V95.1318H50.2388L50.2578 95.9253C50.6429 95.3117 51.1888 95.0049 51.8955 95.0049C52.124 95.0049 52.2975 95.0345 52.416 95.0938V96.1855Z" fill="#453F3F"/>
<defs>
<linearGradient id="paint0_linear" x1="28" y1="-2.23217e-05" x2="1" y2="113" gradientUnits="userSpaceOnUse">
<stop offset="0.264434" stop-color="white"/>
<stop offset="0.973958" stop-color="#8D0005"/>
</linearGradient>
</defs>
</svg>
