<svg width="358" height="160" viewBox="0 0 358 160" fill="none" xmlns="http://www.w3.org/2000/svg">
<g filter="url(#filter0_d)">
<rect x="4" y="2" width="350" height="150" fill="#2C3574"/>
</g>
<path d="M190.57 25.8284C174.77 29.6716 144.013 26.2631 128 2L353 2.20987V105C320.767 105 307.467 95.7761 289.617 58.8757C265.767 9.56852 206.371 21.9851 190.57 25.8284Z" fill="#FFD392" stroke="white" stroke-width="3"/>
<path d="M352.5 3H311.5C307.075 22.6972 322.713 48.5885 352.5 48V3Z" fill="#F39200" stroke="white" stroke-width="2"/>
<path d="M23.1035 56V46.0469H26.5898C27.7975 46.0469 28.7135 46.2793 29.3379 46.7441C29.9622 47.2044 30.2744 47.8812 30.2744 48.7744C30.2744 49.262 30.1491 49.6927 29.8984 50.0664C29.6478 50.4355 29.2992 50.7067 28.8525 50.8799C29.363 51.0075 29.764 51.265 30.0557 51.6523C30.3519 52.0397 30.5 52.5137 30.5 53.0742C30.5 54.0312 30.1947 54.7559 29.584 55.248C28.9733 55.7402 28.1029 55.9909 26.9727 56H23.1035ZM25.1543 51.666V54.3525H26.9111C27.3942 54.3525 27.7702 54.2386 28.0391 54.0107C28.3125 53.7783 28.4492 53.4593 28.4492 53.0537C28.4492 52.1423 27.9775 51.6797 27.0342 51.666H25.1543ZM25.1543 50.2168H26.6719C27.7064 50.1986 28.2236 49.7861 28.2236 48.9795C28.2236 48.5283 28.0915 48.2048 27.8271 48.0088C27.5674 47.8083 27.1549 47.708 26.5898 47.708H25.1543V50.2168ZM38.0332 51.6865H34.0957V54.3525H38.7168V56H32.0449V46.0469H38.7031V47.708H34.0957V50.0801H38.0332V51.6865ZM45.0811 53.3887C45.0811 53.0013 44.9443 52.7051 44.6709 52.5C44.3975 52.2904 43.9053 52.0716 43.1943 51.8438C42.4834 51.6113 41.9206 51.3835 41.5059 51.1602C40.3757 50.5495 39.8105 49.7269 39.8105 48.6924C39.8105 48.1546 39.9609 47.6761 40.2617 47.2568C40.5671 46.833 41.0023 46.5026 41.5674 46.2656C42.137 46.0286 42.7751 45.9102 43.4814 45.9102C44.1924 45.9102 44.8258 46.04 45.3818 46.2998C45.9378 46.555 46.3685 46.9173 46.6738 47.3867C46.9837 47.8561 47.1387 48.3893 47.1387 48.9863H45.0879C45.0879 48.5306 44.9443 48.1774 44.6572 47.9268C44.3701 47.6715 43.9668 47.5439 43.4473 47.5439C42.946 47.5439 42.5563 47.651 42.2783 47.8652C42.0003 48.0749 41.8613 48.3529 41.8613 48.6992C41.8613 49.0228 42.0231 49.2939 42.3467 49.5127C42.6748 49.7314 43.1556 49.9365 43.7891 50.1279C44.9557 50.4788 45.8057 50.9141 46.3389 51.4336C46.8721 51.9531 47.1387 52.6003 47.1387 53.375C47.1387 54.2363 46.8128 54.9131 46.1611 55.4053C45.5094 55.8929 44.6322 56.1367 43.5293 56.1367C42.7637 56.1367 42.0664 55.9977 41.4375 55.7197C40.8086 55.4372 40.3278 55.0521 39.9951 54.5645C39.667 54.0768 39.5029 53.5117 39.5029 52.8691H41.5605C41.5605 53.9674 42.2168 54.5166 43.5293 54.5166C44.0169 54.5166 44.3975 54.4186 44.6709 54.2227C44.9443 54.0221 45.0811 53.7441 45.0811 53.3887ZM56.0254 47.708H52.9766V56H50.9258V47.708H47.918V46.0469H56.0254V47.708Z" fill="#F39200"/>
<path d="M68.8633 51.249C68.8633 52.2288 68.6901 53.0879 68.3438 53.8262C67.9974 54.5645 67.5007 55.1341 66.8535 55.5352C66.2109 55.9362 65.4727 56.1367 64.6387 56.1367C63.8138 56.1367 63.0778 55.9385 62.4307 55.542C61.7835 55.1455 61.2822 54.5804 60.9268 53.8467C60.5713 53.1084 60.3913 52.2607 60.3867 51.3037V50.8115C60.3867 49.8317 60.5622 48.9704 60.9131 48.2275C61.2686 47.4801 61.7676 46.9082 62.4102 46.5117C63.0573 46.1107 63.7956 45.9102 64.625 45.9102C65.4544 45.9102 66.1904 46.1107 66.833 46.5117C67.4801 46.9082 67.9792 47.4801 68.3301 48.2275C68.6855 48.9704 68.8633 49.8294 68.8633 50.8047V51.249ZM66.7852 50.7979C66.7852 49.7542 66.5983 48.9613 66.2246 48.4189C65.8509 47.8766 65.3177 47.6055 64.625 47.6055C63.9368 47.6055 63.4059 47.8743 63.0322 48.4121C62.6585 48.9453 62.4694 49.7292 62.4648 50.7637V51.249C62.4648 52.2653 62.6517 53.0537 63.0254 53.6143C63.3991 54.1748 63.9368 54.4551 64.6387 54.4551C65.3268 54.4551 65.8555 54.1862 66.2246 53.6484C66.5938 53.1061 66.7806 52.3177 66.7852 51.2832V50.7979ZM78.4473 56H76.3965L72.4043 49.4512V56H70.3535V46.0469H72.4043L76.4033 52.6094V46.0469H78.4473V56ZM82.2891 54.3525H86.6436V56H80.2383V46.0469H82.2891V54.3525ZM90.0068 56H87.9561V46.0469H90.0068V56ZM100.008 56H97.957L93.9648 49.4512V56H91.9141V46.0469H93.9648L97.9639 52.6094V46.0469H100.008V56ZM107.787 51.6865H103.85V54.3525H108.471V56H101.799V46.0469H108.457V47.708H103.85V50.0801H107.787V51.6865Z" fill="white"/>
<path d="M25.1211 80.0801H29.1641V81H23.9902V72.4688H25.1211V80.0801ZM29.9902 77.7715C29.9902 77.1504 30.1113 76.5918 30.3535 76.0957C30.5996 75.5996 30.9395 75.2168 31.373 74.9473C31.8105 74.6777 32.3086 74.543 32.8672 74.543C33.7305 74.543 34.4277 74.8418 34.959 75.4395C35.4941 76.0371 35.7617 76.832 35.7617 77.8242V77.9004C35.7617 78.5176 35.6426 79.0723 35.4043 79.5645C35.1699 80.0527 34.832 80.4336 34.3906 80.707C33.9531 80.9805 33.4492 81.1172 32.8789 81.1172C32.0195 81.1172 31.3223 80.8184 30.7871 80.2207C30.2559 79.623 29.9902 78.832 29.9902 77.8477V77.7715ZM31.0801 77.9004C31.0801 78.6035 31.2422 79.168 31.5664 79.5938C31.8945 80.0195 32.332 80.2324 32.8789 80.2324C33.4297 80.2324 33.8672 80.0176 34.1914 79.5879C34.5156 79.1543 34.6777 78.5488 34.6777 77.7715C34.6777 77.0762 34.5117 76.5137 34.1797 76.084C33.8516 75.6504 33.4141 75.4336 32.8672 75.4336C32.332 75.4336 31.9004 75.6465 31.5723 76.0723C31.2441 76.498 31.0801 77.1074 31.0801 77.9004ZM40.1855 75.6328C40.0215 75.6055 39.8438 75.5918 39.6523 75.5918C38.9414 75.5918 38.459 75.8945 38.2051 76.5V81H37.1211V74.6602H38.1758L38.1934 75.3926C38.5488 74.8262 39.0527 74.543 39.7051 74.543C39.916 74.543 40.0762 74.5703 40.1855 74.625V75.6328ZM43.7012 81.1172C42.8418 81.1172 42.1426 80.8359 41.6035 80.2734C41.0645 79.707 40.7949 78.9512 40.7949 78.0059V77.8066C40.7949 77.1777 40.9141 76.6172 41.1523 76.125C41.3945 75.6289 41.7305 75.2422 42.1602 74.9648C42.5938 74.6836 43.0625 74.543 43.5664 74.543C44.3906 74.543 45.0312 74.8145 45.4883 75.3574C45.9453 75.9004 46.1738 76.6777 46.1738 77.6895V78.1406H41.8789C41.8945 78.7656 42.0762 79.2715 42.4238 79.6582C42.7754 80.041 43.2207 80.2324 43.7598 80.2324C44.1426 80.2324 44.4668 80.1543 44.7324 79.998C44.998 79.8418 45.2305 79.6348 45.4297 79.377L46.0918 79.8926C45.5605 80.709 44.7637 81.1172 43.7012 81.1172ZM43.5664 75.4336C43.1289 75.4336 42.7617 75.5938 42.4648 75.9141C42.168 76.2305 41.9844 76.6758 41.9141 77.25H45.0898V77.168C45.0586 76.6172 44.9102 76.1914 44.6445 75.8906C44.3789 75.5859 44.0195 75.4336 43.5664 75.4336ZM48.4531 74.6602L48.4824 75.3633C48.9473 74.8164 49.5742 74.543 50.3633 74.543C51.25 74.543 51.8535 74.8828 52.1738 75.5625C52.3848 75.2578 52.6582 75.0117 52.9941 74.8242C53.334 74.6367 53.7344 74.543 54.1953 74.543C55.5859 74.543 56.293 75.2793 56.3164 76.752V81H55.2324V76.8164C55.2324 76.3633 55.1289 76.0254 54.9219 75.8027C54.7148 75.5762 54.3672 75.4629 53.8789 75.4629C53.4766 75.4629 53.1426 75.584 52.877 75.8262C52.6113 76.0645 52.457 76.3867 52.4141 76.793V81H51.3242V76.8457C51.3242 75.9238 50.873 75.4629 49.9707 75.4629C49.2598 75.4629 48.7734 75.7656 48.5117 76.3711V81H47.4277V74.6602H48.4531ZM68.8496 81H67.7656V74.6602H68.8496V81ZM67.6777 72.9785C67.6777 72.8027 67.7305 72.6543 67.8359 72.5332C67.9453 72.4121 68.1055 72.3516 68.3164 72.3516C68.5273 72.3516 68.6875 72.4121 68.7969 72.5332C68.9062 72.6543 68.9609 72.8027 68.9609 72.9785C68.9609 73.1543 68.9062 73.3008 68.7969 73.418C68.6875 73.5352 68.5273 73.5938 68.3164 73.5938C68.1055 73.5938 67.9453 73.5352 67.8359 73.418C67.7305 73.3008 67.6777 73.1543 67.6777 72.9785ZM75.9453 77.9004C75.9453 78.8652 75.7246 79.6426 75.2832 80.2324C74.8418 80.8223 74.2441 81.1172 73.4902 81.1172C72.7207 81.1172 72.1152 80.873 71.6738 80.3848V83.4375H70.5898V74.6602H71.5801L71.6328 75.3633C72.0742 74.8164 72.6875 74.543 73.4727 74.543C74.2344 74.543 74.8359 74.8301 75.2773 75.4043C75.7227 75.9785 75.9453 76.7773 75.9453 77.8008V77.9004ZM74.8613 77.7773C74.8613 77.0625 74.709 76.498 74.4043 76.084C74.0996 75.6699 73.6816 75.4629 73.1504 75.4629C72.4941 75.4629 72.002 75.7539 71.6738 76.3359V79.3652C71.998 79.9434 72.4941 80.2324 73.1621 80.2324C73.6816 80.2324 74.0938 80.0273 74.3984 79.6172C74.707 79.2031 74.8613 78.5898 74.8613 77.7773ZM81.0195 79.3184C81.0195 79.0254 80.9082 78.7988 80.6855 78.6387C80.4668 78.4746 80.082 78.334 79.5312 78.2168C78.9844 78.0996 78.5488 77.959 78.2246 77.7949C77.9043 77.6309 77.666 77.4355 77.5098 77.209C77.3574 76.9824 77.2812 76.7129 77.2812 76.4004C77.2812 75.8809 77.5 75.4414 77.9375 75.082C78.3789 74.7227 78.9414 74.543 79.625 74.543C80.3438 74.543 80.9258 74.7285 81.3711 75.0996C81.8203 75.4707 82.0449 75.9453 82.0449 76.5234H80.9551C80.9551 76.2266 80.8281 75.9707 80.5742 75.7559C80.3242 75.541 80.0078 75.4336 79.625 75.4336C79.2305 75.4336 78.9219 75.5195 78.6992 75.6914C78.4766 75.8633 78.3652 76.0879 78.3652 76.3652C78.3652 76.627 78.4688 76.8242 78.6758 76.957C78.8828 77.0898 79.2559 77.2168 79.7949 77.3379C80.3379 77.459 80.7773 77.6035 81.1133 77.7715C81.4492 77.9395 81.6973 78.1426 81.8574 78.3809C82.0215 78.6152 82.1035 78.9023 82.1035 79.2422C82.1035 79.8086 81.877 80.2637 81.4238 80.6074C80.9707 80.9473 80.3828 81.1172 79.6602 81.1172C79.1523 81.1172 78.7031 81.0273 78.3125 80.8477C77.9219 80.668 77.6152 80.418 77.3926 80.0977C77.1738 79.7734 77.0645 79.4238 77.0645 79.0488H78.1484C78.168 79.4121 78.3125 79.7012 78.582 79.916C78.8555 80.127 79.2148 80.2324 79.6602 80.2324C80.0703 80.2324 80.3984 80.1504 80.6445 79.9863C80.8945 79.8184 81.0195 79.5957 81.0195 79.3184ZM87.4297 80.373C87.0078 80.8691 86.3887 81.1172 85.5723 81.1172C84.8965 81.1172 84.3809 80.9219 84.0254 80.5312C83.6738 80.1367 83.4961 79.5547 83.4922 78.7852V74.6602H84.5762V78.7559C84.5762 79.7168 84.9668 80.1973 85.748 80.1973C86.5762 80.1973 87.127 79.8887 87.4004 79.2715V74.6602H88.4844V81H87.4531L87.4297 80.373ZM91.1562 74.6602L91.1855 75.3633C91.6504 74.8164 92.2773 74.543 93.0664 74.543C93.9531 74.543 94.5566 74.8828 94.877 75.5625C95.0879 75.2578 95.3613 75.0117 95.6973 74.8242C96.0371 74.6367 96.4375 74.543 96.8984 74.543C98.2891 74.543 98.9961 75.2793 99.0195 76.752V81H97.9355V76.8164C97.9355 76.3633 97.832 76.0254 97.625 75.8027C97.418 75.5762 97.0703 75.4629 96.582 75.4629C96.1797 75.4629 95.8457 75.584 95.5801 75.8262C95.3145 76.0645 95.1602 76.3867 95.1172 76.793V81H94.0273V76.8457C94.0273 75.9238 93.5762 75.4629 92.6738 75.4629C91.9629 75.4629 91.4766 75.7656 91.2148 76.3711V81H90.1309V74.6602H91.1562ZM110.111 77.7773C110.111 76.8047 110.342 76.0234 110.803 75.4336C111.264 74.8398 111.867 74.543 112.613 74.543C113.355 74.543 113.943 74.7969 114.377 75.3047V72H115.461V81H114.465L114.412 80.3203C113.979 80.8516 113.375 81.1172 112.602 81.1172C111.867 81.1172 111.268 80.8164 110.803 80.2148C110.342 79.6133 110.111 78.8281 110.111 77.8594V77.7773ZM111.195 77.9004C111.195 78.6191 111.344 79.1816 111.641 79.5879C111.938 79.9941 112.348 80.1973 112.871 80.1973C113.559 80.1973 114.061 79.8887 114.377 79.2715V76.3594C114.053 75.7617 113.555 75.4629 112.883 75.4629C112.352 75.4629 111.938 75.668 111.641 76.0781C111.344 76.4883 111.195 77.0957 111.195 77.9004ZM116.861 77.7715C116.861 77.1504 116.982 76.5918 117.225 76.0957C117.471 75.5996 117.811 75.2168 118.244 74.9473C118.682 74.6777 119.18 74.543 119.738 74.543C120.602 74.543 121.299 74.8418 121.83 75.4395C122.365 76.0371 122.633 76.832 122.633 77.8242V77.9004C122.633 78.5176 122.514 79.0723 122.275 79.5645C122.041 80.0527 121.703 80.4336 121.262 80.707C120.824 80.9805 120.32 81.1172 119.75 81.1172C118.891 81.1172 118.193 80.8184 117.658 80.2207C117.127 79.623 116.861 78.832 116.861 77.8477V77.7715ZM117.951 77.9004C117.951 78.6035 118.113 79.168 118.438 79.5938C118.766 80.0195 119.203 80.2324 119.75 80.2324C120.301 80.2324 120.738 80.0176 121.062 79.5879C121.387 79.1543 121.549 78.5488 121.549 77.7715C121.549 77.0762 121.383 76.5137 121.051 76.084C120.723 75.6504 120.285 75.4336 119.738 75.4336C119.203 75.4336 118.771 75.6465 118.443 76.0723C118.115 76.498 117.951 77.1074 117.951 77.9004ZM125.17 81H124.086V72H125.17V81ZM126.623 77.7715C126.623 77.1504 126.744 76.5918 126.986 76.0957C127.232 75.5996 127.572 75.2168 128.006 74.9473C128.443 74.6777 128.941 74.543 129.5 74.543C130.363 74.543 131.061 74.8418 131.592 75.4395C132.127 76.0371 132.395 76.832 132.395 77.8242V77.9004C132.395 78.5176 132.275 79.0723 132.037 79.5645C131.803 80.0527 131.465 80.4336 131.023 80.707C130.586 80.9805 130.082 81.1172 129.512 81.1172C128.652 81.1172 127.955 80.8184 127.42 80.2207C126.889 79.623 126.623 78.832 126.623 77.8477V77.7715ZM127.713 77.9004C127.713 78.6035 127.875 79.168 128.199 79.5938C128.527 80.0195 128.965 80.2324 129.512 80.2324C130.062 80.2324 130.5 80.0176 130.824 79.5879C131.148 79.1543 131.311 78.5488 131.311 77.7715C131.311 77.0762 131.145 76.5137 130.812 76.084C130.484 75.6504 130.047 75.4336 129.5 75.4336C128.965 75.4336 128.533 75.6465 128.205 76.0723C127.877 76.498 127.713 77.1074 127.713 77.9004ZM136.818 75.6328C136.654 75.6055 136.477 75.5918 136.285 75.5918C135.574 75.5918 135.092 75.8945 134.838 76.5V81H133.754V74.6602H134.809L134.826 75.3926C135.182 74.8262 135.686 74.543 136.338 74.543C136.549 74.543 136.709 74.5703 136.818 74.625V75.6328ZM27.5117 93.3184C27.5117 93.0254 27.4004 92.7988 27.1777 92.6387C26.959 92.4746 26.5742 92.334 26.0234 92.2168C25.4766 92.0996 25.041 91.959 24.7168 91.7949C24.3965 91.6309 24.1582 91.4355 24.002 91.209C23.8496 90.9824 23.7734 90.7129 23.7734 90.4004C23.7734 89.8809 23.9922 89.4414 24.4297 89.082C24.8711 88.7227 25.4336 88.543 26.1172 88.543C26.8359 88.543 27.418 88.7285 27.8633 89.0996C28.3125 89.4707 28.5371 89.9453 28.5371 90.5234H27.4473C27.4473 90.2266 27.3203 89.9707 27.0664 89.7559C26.8164 89.541 26.5 89.4336 26.1172 89.4336C25.7227 89.4336 25.4141 89.5195 25.1914 89.6914C24.9688 89.8633 24.8574 90.0879 24.8574 90.3652C24.8574 90.627 24.9609 90.8242 25.168 90.957C25.375 91.0898 25.748 91.2168 26.2871 91.3379C26.8301 91.459 27.2695 91.6035 27.6055 91.7715C27.9414 91.9395 28.1895 92.1426 28.3496 92.3809C28.5137 92.6152 28.5957 92.9023 28.5957 93.2422C28.5957 93.8086 28.3691 94.2637 27.916 94.6074C27.4629 94.9473 26.875 95.1172 26.1523 95.1172C25.6445 95.1172 25.1953 95.0273 24.8047 94.8477C24.4141 94.668 24.1074 94.418 23.8848 94.0977C23.666 93.7734 23.5566 93.4238 23.5566 93.0488H24.6406C24.6602 93.4121 24.8047 93.7012 25.0742 93.916C25.3477 94.127 25.707 94.2324 26.1523 94.2324C26.5625 94.2324 26.8906 94.1504 27.1367 93.9863C27.3867 93.8184 27.5117 93.5957 27.5117 93.3184ZM31.1855 95H30.1016V88.6602H31.1855V95ZM30.0137 86.9785C30.0137 86.8027 30.0664 86.6543 30.1719 86.5332C30.2812 86.4121 30.4414 86.3516 30.6523 86.3516C30.8633 86.3516 31.0234 86.4121 31.1328 86.5332C31.2422 86.6543 31.2969 86.8027 31.2969 86.9785C31.2969 87.1543 31.2422 87.3008 31.1328 87.418C31.0234 87.5352 30.8633 87.5938 30.6523 87.5938C30.4414 87.5938 30.2812 87.5352 30.1719 87.418C30.0664 87.3008 30.0137 87.1543 30.0137 86.9785ZM34.3965 87.125V88.6602H35.5801V89.498H34.3965V93.4297C34.3965 93.6836 34.4492 93.875 34.5547 94.0039C34.6602 94.1289 34.8398 94.1914 35.0938 94.1914C35.2188 94.1914 35.3906 94.168 35.6094 94.1211V95C35.3242 95.0781 35.0469 95.1172 34.7773 95.1172C34.293 95.1172 33.9277 94.9707 33.6816 94.6777C33.4355 94.3848 33.3125 93.9688 33.3125 93.4297V89.498H32.1582V88.6602H33.3125V87.125H34.3965ZM44.6621 95C44.5996 94.875 44.5488 94.6523 44.5098 94.332C44.0059 94.8555 43.4043 95.1172 42.7051 95.1172C42.0801 95.1172 41.5664 94.9414 41.1641 94.5898C40.7656 94.2344 40.5664 93.7852 40.5664 93.2422C40.5664 92.582 40.8164 92.0703 41.3164 91.707C41.8203 91.3398 42.5273 91.1562 43.4375 91.1562H44.4922V90.6582C44.4922 90.2793 44.3789 89.9785 44.1523 89.7559C43.9258 89.5293 43.5918 89.416 43.1504 89.416C42.7637 89.416 42.4395 89.5137 42.1777 89.709C41.916 89.9043 41.7852 90.1406 41.7852 90.418H40.6953C40.6953 90.1016 40.8066 89.7969 41.0293 89.5039C41.2559 89.207 41.5605 88.9727 41.9434 88.8008C42.3301 88.6289 42.7539 88.543 43.2148 88.543C43.9453 88.543 44.5176 88.7266 44.9316 89.0938C45.3457 89.457 45.5605 89.959 45.5762 90.5996V93.5176C45.5762 94.0996 45.6504 94.5625 45.7988 94.9062V95H44.6621ZM42.8633 94.1738C43.2031 94.1738 43.5254 94.0859 43.8301 93.9102C44.1348 93.7344 44.3555 93.5059 44.4922 93.2246V91.9238H43.6426C42.3145 91.9238 41.6504 92.3125 41.6504 93.0898C41.6504 93.4297 41.7637 93.6953 41.9902 93.8867C42.2168 94.0781 42.5078 94.1738 42.8633 94.1738ZM48.2949 88.6602L48.3242 89.3633C48.7891 88.8164 49.416 88.543 50.2051 88.543C51.0918 88.543 51.6953 88.8828 52.0156 89.5625C52.2266 89.2578 52.5 89.0117 52.8359 88.8242C53.1758 88.6367 53.5762 88.543 54.0371 88.543C55.4277 88.543 56.1348 89.2793 56.1582 90.752V95H55.0742V90.8164C55.0742 90.3633 54.9707 90.0254 54.7637 89.8027C54.5566 89.5762 54.209 89.4629 53.7207 89.4629C53.3184 89.4629 52.9844 89.584 52.7188 89.8262C52.4531 90.0645 52.2988 90.3867 52.2559 90.793V95H51.166V90.8457C51.166 89.9238 50.7148 89.4629 49.8125 89.4629C49.1016 89.4629 48.6152 89.7656 48.3535 90.3711V95H47.2695V88.6602H48.2949ZM60.4297 95.1172C59.5703 95.1172 58.8711 94.8359 58.332 94.2734C57.793 93.707 57.5234 92.9512 57.5234 92.0059V91.8066C57.5234 91.1777 57.6426 90.6172 57.8809 90.125C58.123 89.6289 58.459 89.2422 58.8887 88.9648C59.3223 88.6836 59.791 88.543 60.2949 88.543C61.1191 88.543 61.7598 88.8145 62.2168 89.3574C62.6738 89.9004 62.9023 90.6777 62.9023 91.6895V92.1406H58.6074C58.623 92.7656 58.8047 93.2715 59.1523 93.6582C59.5039 94.041 59.9492 94.2324 60.4883 94.2324C60.8711 94.2324 61.1953 94.1543 61.4609 93.998C61.7266 93.8418 61.959 93.6348 62.1582 93.377L62.8203 93.8926C62.2891 94.709 61.4922 95.1172 60.4297 95.1172ZM60.2949 89.4336C59.8574 89.4336 59.4902 89.5938 59.1934 89.9141C58.8965 90.2305 58.7129 90.6758 58.6426 91.25H61.8184V91.168C61.7871 90.6172 61.6387 90.1914 61.373 89.8906C61.1074 89.5859 60.748 89.4336 60.2949 89.4336ZM65.6328 87.125V88.6602H66.8164V89.498H65.6328V93.4297C65.6328 93.6836 65.6855 93.875 65.791 94.0039C65.8965 94.1289 66.0762 94.1914 66.3301 94.1914C66.4551 94.1914 66.627 94.168 66.8457 94.1211V95C66.5605 95.0781 66.2832 95.1172 66.0137 95.1172C65.5293 95.1172 65.1641 94.9707 64.918 94.6777C64.6719 94.3848 64.5488 93.9688 64.5488 93.4297V89.498H63.3945V88.6602H64.5488V87.125H65.6328ZM68.0527 96.6992L67.4375 96.2773C67.8047 95.7656 67.9961 95.2383 68.0117 94.6953V93.7168H69.0723V94.5664C69.0723 94.9609 68.9746 95.3555 68.7793 95.75C68.5879 96.1445 68.3457 96.4609 68.0527 96.6992ZM76.8828 94.2324C77.2695 94.2324 77.6074 94.1152 77.8965 93.8809C78.1855 93.6465 78.3457 93.3535 78.377 93.002H79.4023C79.3828 93.3652 79.2578 93.7109 79.0273 94.0391C78.7969 94.3672 78.4883 94.6289 78.1016 94.8242C77.7188 95.0195 77.3125 95.1172 76.8828 95.1172C76.0195 95.1172 75.332 94.8301 74.8203 94.2559C74.3125 93.6777 74.0586 92.8887 74.0586 91.8887V91.707C74.0586 91.0898 74.1719 90.541 74.3984 90.0605C74.625 89.5801 74.9492 89.207 75.3711 88.9414C75.7969 88.6758 76.2988 88.543 76.877 88.543C77.5879 88.543 78.1777 88.7559 78.6465 89.1816C79.1191 89.6074 79.3711 90.1602 79.4023 90.8398H78.377C78.3457 90.4297 78.1895 90.0938 77.9082 89.832C77.6309 89.5664 77.2871 89.4336 76.877 89.4336C76.3262 89.4336 75.8984 89.6328 75.5938 90.0312C75.293 90.4258 75.1426 90.998 75.1426 91.748V91.9531C75.1426 92.6836 75.293 93.2461 75.5938 93.6406C75.8945 94.0352 76.3242 94.2324 76.8828 94.2324ZM80.334 91.7715C80.334 91.1504 80.4551 90.5918 80.6973 90.0957C80.9434 89.5996 81.2832 89.2168 81.7168 88.9473C82.1543 88.6777 82.6523 88.543 83.2109 88.543C84.0742 88.543 84.7715 88.8418 85.3027 89.4395C85.8379 90.0371 86.1055 90.832 86.1055 91.8242V91.9004C86.1055 92.5176 85.9863 93.0723 85.748 93.5645C85.5137 94.0527 85.1758 94.4336 84.7344 94.707C84.2969 94.9805 83.793 95.1172 83.2227 95.1172C82.3633 95.1172 81.666 94.8184 81.1309 94.2207C80.5996 93.623 80.334 92.832 80.334 91.8477V91.7715ZM81.4238 91.9004C81.4238 92.6035 81.5859 93.168 81.9102 93.5938C82.2383 94.0195 82.6758 94.2324 83.2227 94.2324C83.7734 94.2324 84.2109 94.0176 84.5352 93.5879C84.8594 93.1543 85.0215 92.5488 85.0215 91.7715C85.0215 91.0762 84.8555 90.5137 84.5234 90.084C84.1953 89.6504 83.7578 89.4336 83.2109 89.4336C82.6758 89.4336 82.2441 89.6465 81.916 90.0723C81.5879 90.498 81.4238 91.1074 81.4238 91.9004ZM88.4902 88.6602L88.5254 89.457C89.0098 88.8477 89.6426 88.543 90.4238 88.543C91.7637 88.543 92.4395 89.2988 92.4512 90.8105V95H91.3672V90.8047C91.3633 90.3477 91.2578 90.0098 91.0508 89.791C90.8477 89.5723 90.5293 89.4629 90.0957 89.4629C89.7441 89.4629 89.4355 89.5566 89.1699 89.7441C88.9043 89.9316 88.6973 90.1777 88.5488 90.4824V95H87.4648V88.6602H88.4902ZM97.7773 93.3184C97.7773 93.0254 97.666 92.7988 97.4434 92.6387C97.2246 92.4746 96.8398 92.334 96.2891 92.2168C95.7422 92.0996 95.3066 91.959 94.9824 91.7949C94.6621 91.6309 94.4238 91.4355 94.2676 91.209C94.1152 90.9824 94.0391 90.7129 94.0391 90.4004C94.0391 89.8809 94.2578 89.4414 94.6953 89.082C95.1367 88.7227 95.6992 88.543 96.3828 88.543C97.1016 88.543 97.6836 88.7285 98.1289 89.0996C98.5781 89.4707 98.8027 89.9453 98.8027 90.5234H97.7129C97.7129 90.2266 97.5859 89.9707 97.332 89.7559C97.082 89.541 96.7656 89.4336 96.3828 89.4336C95.9883 89.4336 95.6797 89.5195 95.457 89.6914C95.2344 89.8633 95.123 90.0879 95.123 90.3652C95.123 90.627 95.2266 90.8242 95.4336 90.957C95.6406 91.0898 96.0137 91.2168 96.5527 91.3379C97.0957 91.459 97.5352 91.6035 97.8711 91.7715C98.207 91.9395 98.4551 92.1426 98.6152 92.3809C98.7793 92.6152 98.8613 92.9023 98.8613 93.2422C98.8613 93.8086 98.6348 94.2637 98.1816 94.6074C97.7285 94.9473 97.1406 95.1172 96.418 95.1172C95.9102 95.1172 95.4609 95.0273 95.0703 94.8477C94.6797 94.668 94.373 94.418 94.1504 94.0977C93.9316 93.7734 93.8223 93.4238 93.8223 93.0488H94.9062C94.9258 93.4121 95.0703 93.7012 95.3398 93.916C95.6133 94.127 95.9727 94.2324 96.418 94.2324C96.8281 94.2324 97.1562 94.1504 97.4023 93.9863C97.6523 93.8184 97.7773 93.5957 97.7773 93.3184ZM102.904 95.1172C102.045 95.1172 101.346 94.8359 100.807 94.2734C100.268 93.707 99.998 92.9512 99.998 92.0059V91.8066C99.998 91.1777 100.117 90.6172 100.355 90.125C100.598 89.6289 100.934 89.2422 101.363 88.9648C101.797 88.6836 102.266 88.543 102.77 88.543C103.594 88.543 104.234 88.8145 104.691 89.3574C105.148 89.9004 105.377 90.6777 105.377 91.6895V92.1406H101.082C101.098 92.7656 101.279 93.2715 101.627 93.6582C101.979 94.041 102.424 94.2324 102.963 94.2324C103.346 94.2324 103.67 94.1543 103.936 93.998C104.201 93.8418 104.434 93.6348 104.633 93.377L105.295 93.8926C104.764 94.709 103.967 95.1172 102.904 95.1172ZM102.77 89.4336C102.332 89.4336 101.965 89.5938 101.668 89.9141C101.371 90.2305 101.188 90.6758 101.117 91.25H104.293V91.168C104.262 90.6172 104.113 90.1914 103.848 89.8906C103.582 89.5859 103.223 89.4336 102.77 89.4336ZM109.18 94.2324C109.566 94.2324 109.904 94.1152 110.193 93.8809C110.482 93.6465 110.643 93.3535 110.674 93.002H111.699C111.68 93.3652 111.555 93.7109 111.324 94.0391C111.094 94.3672 110.785 94.6289 110.398 94.8242C110.016 95.0195 109.609 95.1172 109.18 95.1172C108.316 95.1172 107.629 94.8301 107.117 94.2559C106.609 93.6777 106.355 92.8887 106.355 91.8887V91.707C106.355 91.0898 106.469 90.541 106.695 90.0605C106.922 89.5801 107.246 89.207 107.668 88.9414C108.094 88.6758 108.596 88.543 109.174 88.543C109.885 88.543 110.475 88.7559 110.943 89.1816C111.416 89.6074 111.668 90.1602 111.699 90.8398H110.674C110.643 90.4297 110.486 90.0938 110.205 89.832C109.928 89.5664 109.584 89.4336 109.174 89.4336C108.623 89.4336 108.195 89.6328 107.891 90.0312C107.59 90.4258 107.439 90.998 107.439 91.748V91.9531C107.439 92.6836 107.59 93.2461 107.891 93.6406C108.191 94.0352 108.621 94.2324 109.18 94.2324ZM114.389 87.125V88.6602H115.572V89.498H114.389V93.4297C114.389 93.6836 114.441 93.875 114.547 94.0039C114.652 94.1289 114.832 94.1914 115.086 94.1914C115.211 94.1914 115.383 94.168 115.602 94.1211V95C115.316 95.0781 115.039 95.1172 114.77 95.1172C114.285 95.1172 113.92 94.9707 113.674 94.6777C113.428 94.3848 113.305 93.9688 113.305 93.4297V89.498H112.15V88.6602H113.305V87.125H114.389ZM119.475 95.1172C118.615 95.1172 117.916 94.8359 117.377 94.2734C116.838 93.707 116.568 92.9512 116.568 92.0059V91.8066C116.568 91.1777 116.688 90.6172 116.926 90.125C117.168 89.6289 117.504 89.2422 117.934 88.9648C118.367 88.6836 118.836 88.543 119.34 88.543C120.164 88.543 120.805 88.8145 121.262 89.3574C121.719 89.9004 121.947 90.6777 121.947 91.6895V92.1406H117.652C117.668 92.7656 117.85 93.2715 118.197 93.6582C118.549 94.041 118.994 94.2324 119.533 94.2324C119.916 94.2324 120.24 94.1543 120.506 93.998C120.771 93.8418 121.004 93.6348 121.203 93.377L121.865 93.8926C121.334 94.709 120.537 95.1172 119.475 95.1172ZM119.34 89.4336C118.902 89.4336 118.535 89.5938 118.238 89.9141C117.941 90.2305 117.758 90.6758 117.688 91.25H120.863V91.168C120.832 90.6172 120.684 90.1914 120.418 89.8906C120.152 89.5859 119.793 89.4336 119.34 89.4336ZM124.678 87.125V88.6602H125.861V89.498H124.678V93.4297C124.678 93.6836 124.73 93.875 124.836 94.0039C124.941 94.1289 125.121 94.1914 125.375 94.1914C125.5 94.1914 125.672 94.168 125.891 94.1211V95C125.605 95.0781 125.328 95.1172 125.059 95.1172C124.574 95.1172 124.209 94.9707 123.963 94.6777C123.717 94.3848 123.594 93.9688 123.594 93.4297V89.498H122.439V88.6602H123.594V87.125H124.678ZM131.047 94.373C130.625 94.8691 130.006 95.1172 129.189 95.1172C128.514 95.1172 127.998 94.9219 127.643 94.5312C127.291 94.1367 127.113 93.5547 127.109 92.7852V88.6602H128.193V92.7559C128.193 93.7168 128.584 94.1973 129.365 94.1973C130.193 94.1973 130.744 93.8887 131.018 93.2715V88.6602H132.102V95H131.07L131.047 94.373ZM136.818 89.6328C136.654 89.6055 136.477 89.5918 136.285 89.5918C135.574 89.5918 135.092 89.8945 134.838 90.5V95H133.754V88.6602H134.809L134.826 89.3926C135.182 88.8262 135.686 88.543 136.338 88.543C136.549 88.543 136.709 88.5703 136.818 88.625V89.6328ZM27.7344 109C27.6719 108.875 27.6211 108.652 27.582 108.332C27.0781 108.855 26.4766 109.117 25.7773 109.117C25.1523 109.117 24.6387 108.941 24.2363 108.59C23.8379 108.234 23.6387 107.785 23.6387 107.242C23.6387 106.582 23.8887 106.07 24.3887 105.707C24.8926 105.34 25.5996 105.156 26.5098 105.156H27.5645V104.658C27.5645 104.279 27.4512 103.979 27.2246 103.756C26.998 103.529 26.6641 103.416 26.2227 103.416C25.8359 103.416 25.5117 103.514 25.25 103.709C24.9883 103.904 24.8574 104.141 24.8574 104.418H23.7676C23.7676 104.102 23.8789 103.797 24.1016 103.504C24.3281 103.207 24.6328 102.973 25.0156 102.801C25.4023 102.629 25.8262 102.543 26.2871 102.543C27.0176 102.543 27.5898 102.727 28.0039 103.094C28.418 103.457 28.6328 103.959 28.6484 104.6V107.518C28.6484 108.1 28.7227 108.562 28.8711 108.906V109H27.7344ZM25.9355 108.174C26.2754 108.174 26.5977 108.086 26.9023 107.91C27.207 107.734 27.4277 107.506 27.5645 107.225V105.924H26.7148C25.3867 105.924 24.7227 106.312 24.7227 107.09C24.7227 107.43 24.8359 107.695 25.0625 107.887C25.2891 108.078 25.5801 108.174 25.9355 108.174ZM30.084 105.777C30.084 104.805 30.3145 104.023 30.7754 103.434C31.2363 102.84 31.8398 102.543 32.5859 102.543C33.3281 102.543 33.916 102.797 34.3496 103.305V100H35.4336V109H34.4375L34.3848 108.32C33.9512 108.852 33.3477 109.117 32.5742 109.117C31.8398 109.117 31.2402 108.816 30.7754 108.215C30.3145 107.613 30.084 106.828 30.084 105.859V105.777ZM31.168 105.9C31.168 106.619 31.3164 107.182 31.6133 107.588C31.9102 107.994 32.3203 108.197 32.8438 108.197C33.5312 108.197 34.0332 107.889 34.3496 107.271V104.359C34.0254 103.762 33.5273 103.463 32.8555 103.463C32.3242 103.463 31.9102 103.668 31.6133 104.078C31.3164 104.488 31.168 105.096 31.168 105.9ZM38.2988 109H37.2148V102.66H38.2988V109ZM37.127 100.979C37.127 100.803 37.1797 100.654 37.2852 100.533C37.3945 100.412 37.5547 100.352 37.7656 100.352C37.9766 100.352 38.1367 100.412 38.2461 100.533C38.3555 100.654 38.4102 100.803 38.4102 100.979C38.4102 101.154 38.3555 101.301 38.2461 101.418C38.1367 101.535 37.9766 101.594 37.7656 101.594C37.5547 101.594 37.3945 101.535 37.2852 101.418C37.1797 101.301 37.127 101.154 37.127 100.979ZM45.3945 105.9C45.3945 106.865 45.1738 107.643 44.7324 108.232C44.291 108.822 43.6934 109.117 42.9395 109.117C42.1699 109.117 41.5645 108.873 41.123 108.385V111.438H40.0391V102.66H41.0293L41.082 103.363C41.5234 102.816 42.1367 102.543 42.9219 102.543C43.6836 102.543 44.2852 102.83 44.7266 103.404C45.1719 103.979 45.3945 104.777 45.3945 105.801V105.9ZM44.3105 105.777C44.3105 105.062 44.1582 104.498 43.8535 104.084C43.5488 103.67 43.1309 103.463 42.5996 103.463C41.9434 103.463 41.4512 103.754 41.123 104.336V107.365C41.4473 107.943 41.9434 108.232 42.6113 108.232C43.1309 108.232 43.543 108.027 43.8477 107.617C44.1562 107.203 44.3105 106.59 44.3105 105.777ZM47.9551 109H46.8711V102.66H47.9551V109ZM46.7832 100.979C46.7832 100.803 46.8359 100.654 46.9414 100.533C47.0508 100.412 47.2109 100.352 47.4219 100.352C47.6328 100.352 47.793 100.412 47.9023 100.533C48.0117 100.654 48.0664 100.803 48.0664 100.979C48.0664 101.154 48.0117 101.301 47.9023 101.418C47.793 101.535 47.6328 101.594 47.4219 101.594C47.2109 101.594 47.0508 101.535 46.9414 101.418C46.8359 101.301 46.7832 101.154 46.7832 100.979ZM53.3867 107.318C53.3867 107.025 53.2754 106.799 53.0527 106.639C52.834 106.475 52.4492 106.334 51.8984 106.217C51.3516 106.1 50.916 105.959 50.5918 105.795C50.2715 105.631 50.0332 105.436 49.877 105.209C49.7246 104.982 49.6484 104.713 49.6484 104.4C49.6484 103.881 49.8672 103.441 50.3047 103.082C50.7461 102.723 51.3086 102.543 51.9922 102.543C52.7109 102.543 53.293 102.729 53.7383 103.1C54.1875 103.471 54.4121 103.945 54.4121 104.523H53.3223C53.3223 104.227 53.1953 103.971 52.9414 103.756C52.6914 103.541 52.375 103.434 51.9922 103.434C51.5977 103.434 51.2891 103.52 51.0664 103.691C50.8438 103.863 50.7324 104.088 50.7324 104.365C50.7324 104.627 50.8359 104.824 51.043 104.957C51.25 105.09 51.623 105.217 52.1621 105.338C52.7051 105.459 53.1445 105.604 53.4805 105.771C53.8164 105.939 54.0645 106.143 54.2246 106.381C54.3887 106.615 54.4707 106.902 54.4707 107.242C54.4707 107.809 54.2441 108.264 53.791 108.607C53.3379 108.947 52.75 109.117 52.0273 109.117C51.5195 109.117 51.0703 109.027 50.6797 108.848C50.2891 108.668 49.9824 108.418 49.7598 108.098C49.541 107.773 49.4316 107.424 49.4316 107.049H50.5156C50.5352 107.412 50.6797 107.701 50.9492 107.916C51.2227 108.127 51.582 108.232 52.0273 108.232C52.4375 108.232 52.7656 108.15 53.0117 107.986C53.2617 107.818 53.3867 107.596 53.3867 107.318ZM58.4258 108.232C58.8125 108.232 59.1504 108.115 59.4395 107.881C59.7285 107.646 59.8887 107.354 59.9199 107.002H60.9453C60.9258 107.365 60.8008 107.711 60.5703 108.039C60.3398 108.367 60.0312 108.629 59.6445 108.824C59.2617 109.02 58.8555 109.117 58.4258 109.117C57.5625 109.117 56.875 108.83 56.3633 108.256C55.8555 107.678 55.6016 106.889 55.6016 105.889V105.707C55.6016 105.09 55.7148 104.541 55.9414 104.061C56.168 103.58 56.4922 103.207 56.9141 102.941C57.3398 102.676 57.8418 102.543 58.4199 102.543C59.1309 102.543 59.7207 102.756 60.1895 103.182C60.6621 103.607 60.9141 104.16 60.9453 104.84H59.9199C59.8887 104.43 59.7324 104.094 59.4512 103.832C59.1738 103.566 58.8301 103.434 58.4199 103.434C57.8691 103.434 57.4414 103.633 57.1367 104.031C56.8359 104.426 56.6855 104.998 56.6855 105.748V105.953C56.6855 106.684 56.8359 107.246 57.1367 107.641C57.4375 108.035 57.8672 108.232 58.4258 108.232ZM63.3418 109H62.2578V102.66H63.3418V109ZM62.1699 100.979C62.1699 100.803 62.2227 100.654 62.3281 100.533C62.4375 100.412 62.5977 100.352 62.8086 100.352C63.0195 100.352 63.1797 100.412 63.2891 100.533C63.3984 100.654 63.4531 100.803 63.4531 100.979C63.4531 101.154 63.3984 101.301 63.2891 101.418C63.1797 101.535 63.0195 101.594 62.8086 101.594C62.5977 101.594 62.4375 101.535 62.3281 101.418C62.2227 101.301 62.1699 101.154 62.1699 100.979ZM66.1074 102.66L66.1426 103.457C66.627 102.848 67.2598 102.543 68.041 102.543C69.3809 102.543 70.0566 103.299 70.0684 104.811V109H68.9844V104.805C68.9805 104.348 68.875 104.01 68.668 103.791C68.4648 103.572 68.1465 103.463 67.7129 103.463C67.3613 103.463 67.0527 103.557 66.7871 103.744C66.5215 103.932 66.3145 104.178 66.166 104.482V109H65.082V102.66H66.1074ZM71.4453 105.777C71.4453 104.789 71.6738 104.004 72.1309 103.422C72.5879 102.836 73.1934 102.543 73.9473 102.543C74.7207 102.543 75.3242 102.816 75.7578 103.363L75.8105 102.66H76.8008V108.848C76.8008 109.668 76.5566 110.314 76.0684 110.787C75.584 111.26 74.9316 111.496 74.1113 111.496C73.6543 111.496 73.207 111.398 72.7695 111.203C72.332 111.008 71.998 110.74 71.7676 110.4L72.3301 109.75C72.7949 110.324 73.3633 110.611 74.0352 110.611C74.5625 110.611 74.9727 110.463 75.2656 110.166C75.5625 109.869 75.7109 109.451 75.7109 108.912V108.367C75.2773 108.867 74.6855 109.117 73.9355 109.117C73.1934 109.117 72.5918 108.818 72.1309 108.221C71.6738 107.623 71.4453 106.809 71.4453 105.777ZM72.5352 105.9C72.5352 106.615 72.6816 107.178 72.9746 107.588C73.2676 107.994 73.6777 108.197 74.2051 108.197C74.8887 108.197 75.3906 107.887 75.7109 107.266V104.371C75.3789 103.766 74.8809 103.463 74.2168 103.463C73.6895 103.463 73.2773 103.668 72.9805 104.078C72.6836 104.488 72.5352 105.096 72.5352 105.9ZM90.9863 109.117C90.127 109.117 89.4277 108.836 88.8887 108.273C88.3496 107.707 88.0801 106.951 88.0801 106.006V105.807C88.0801 105.178 88.1992 104.617 88.4375 104.125C88.6797 103.629 89.0156 103.242 89.4453 102.965C89.8789 102.684 90.3477 102.543 90.8516 102.543C91.6758 102.543 92.3164 102.814 92.7734 103.357C93.2305 103.9 93.459 104.678 93.459 105.689V106.141H89.1641C89.1797 106.766 89.3613 107.271 89.709 107.658C90.0605 108.041 90.5059 108.232 91.0449 108.232C91.4277 108.232 91.752 108.154 92.0176 107.998C92.2832 107.842 92.5156 107.635 92.7148 107.377L93.377 107.893C92.8457 108.709 92.0488 109.117 90.9863 109.117ZM90.8516 103.434C90.4141 103.434 90.0469 103.594 89.75 103.914C89.4531 104.23 89.2695 104.676 89.1992 105.25H92.375V105.168C92.3438 104.617 92.1953 104.191 91.9297 103.891C91.6641 103.586 91.3047 103.434 90.8516 103.434ZM95.8965 109H94.8125V100H95.8965V109ZM98.8145 109H97.7305V102.66H98.8145V109ZM97.6426 100.979C97.6426 100.803 97.6953 100.654 97.8008 100.533C97.9102 100.412 98.0703 100.352 98.2812 100.352C98.4922 100.352 98.6523 100.412 98.7617 100.533C98.8711 100.654 98.9258 100.803 98.9258 100.979C98.9258 101.154 98.8711 101.301 98.7617 101.418C98.6523 101.535 98.4922 101.594 98.2812 101.594C98.0703 101.594 97.9102 101.535 97.8008 101.418C97.6953 101.301 97.6426 101.154 97.6426 100.979ZM102.025 101.125V102.66H103.209V103.498H102.025V107.43C102.025 107.684 102.078 107.875 102.184 108.004C102.289 108.129 102.469 108.191 102.723 108.191C102.848 108.191 103.02 108.168 103.238 108.121V109C102.953 109.078 102.676 109.117 102.406 109.117C101.922 109.117 101.557 108.971 101.311 108.678C101.064 108.385 100.941 107.969 100.941 107.43V103.498H99.7871V102.66H100.941V101.125H102.025ZM104.504 108.432C104.504 108.244 104.559 108.088 104.668 107.963C104.781 107.838 104.949 107.775 105.172 107.775C105.395 107.775 105.562 107.838 105.676 107.963C105.793 108.088 105.852 108.244 105.852 108.432C105.852 108.611 105.793 108.762 105.676 108.883C105.562 109.004 105.395 109.064 105.172 109.064C104.949 109.064 104.781 109.004 104.668 108.883C104.559 108.762 104.504 108.611 104.504 108.432ZM120.242 105.197C119.277 104.92 118.574 104.58 118.133 104.178C117.695 103.771 117.477 103.271 117.477 102.678C117.477 102.006 117.744 101.451 118.279 101.014C118.818 100.572 119.518 100.352 120.377 100.352C120.963 100.352 121.484 100.465 121.941 100.691C122.402 100.918 122.758 101.23 123.008 101.629C123.262 102.027 123.389 102.463 123.389 102.936H122.258C122.258 102.42 122.094 102.016 121.766 101.723C121.438 101.426 120.975 101.277 120.377 101.277C119.822 101.277 119.389 101.4 119.076 101.646C118.768 101.889 118.613 102.227 118.613 102.66C118.613 103.008 118.76 103.303 119.053 103.545C119.35 103.783 119.852 104.002 120.559 104.201C121.27 104.4 121.824 104.621 122.223 104.863C122.625 105.102 122.922 105.381 123.113 105.701C123.309 106.021 123.406 106.398 123.406 106.832C123.406 107.523 123.137 108.078 122.598 108.496C122.059 108.91 121.338 109.117 120.436 109.117C119.85 109.117 119.303 109.006 118.795 108.783C118.287 108.557 117.895 108.248 117.617 107.857C117.344 107.467 117.207 107.023 117.207 106.527H118.338C118.338 107.043 118.527 107.451 118.906 107.752C119.289 108.049 119.799 108.197 120.436 108.197C121.029 108.197 121.484 108.076 121.801 107.834C122.117 107.592 122.275 107.262 122.275 106.844C122.275 106.426 122.129 106.104 121.836 105.877C121.543 105.646 121.012 105.42 120.242 105.197ZM127.314 109.117C126.455 109.117 125.756 108.836 125.217 108.273C124.678 107.707 124.408 106.951 124.408 106.006V105.807C124.408 105.178 124.527 104.617 124.766 104.125C125.008 103.629 125.344 103.242 125.773 102.965C126.207 102.684 126.676 102.543 127.18 102.543C128.004 102.543 128.645 102.814 129.102 103.357C129.559 103.9 129.787 104.678 129.787 105.689V106.141H125.492C125.508 106.766 125.689 107.271 126.037 107.658C126.389 108.041 126.834 108.232 127.373 108.232C127.756 108.232 128.08 108.154 128.346 107.998C128.611 107.842 128.844 107.635 129.043 107.377L129.705 107.893C129.174 108.709 128.377 109.117 127.314 109.117ZM127.18 103.434C126.742 103.434 126.375 103.594 126.078 103.914C125.781 104.23 125.598 104.676 125.527 105.25H128.703V105.168C128.672 104.617 128.523 104.191 128.258 103.891C127.992 103.586 127.633 103.434 127.18 103.434ZM130.783 105.777C130.783 104.805 131.014 104.023 131.475 103.434C131.936 102.84 132.539 102.543 133.285 102.543C134.027 102.543 134.615 102.797 135.049 103.305V100H136.133V109H135.137L135.084 108.32C134.65 108.852 134.047 109.117 133.273 109.117C132.539 109.117 131.939 108.816 131.475 108.215C131.014 107.613 130.783 106.828 130.783 105.859V105.777ZM131.867 105.9C131.867 106.619 132.016 107.182 132.312 107.588C132.609 107.994 133.02 108.197 133.543 108.197C134.23 108.197 134.732 107.889 135.049 107.271V104.359C134.725 103.762 134.227 103.463 133.555 103.463C133.023 103.463 132.609 103.668 132.312 104.078C132.016 104.488 131.867 105.096 131.867 105.9ZM26.4512 123.117C25.5918 123.117 24.8926 122.836 24.3535 122.273C23.8145 121.707 23.5449 120.951 23.5449 120.006V119.807C23.5449 119.178 23.6641 118.617 23.9023 118.125C24.1445 117.629 24.4805 117.242 24.9102 116.965C25.3438 116.684 25.8125 116.543 26.3164 116.543C27.1406 116.543 27.7812 116.814 28.2383 117.357C28.6953 117.9 28.9238 118.678 28.9238 119.689V120.141H24.6289C24.6445 120.766 24.8262 121.271 25.1738 121.658C25.5254 122.041 25.9707 122.232 26.5098 122.232C26.8926 122.232 27.2168 122.154 27.4824 121.998C27.748 121.842 27.9805 121.635 28.1797 121.377L28.8418 121.893C28.3105 122.709 27.5137 123.117 26.4512 123.117ZM26.3164 117.434C25.8789 117.434 25.5117 117.594 25.2148 117.914C24.918 118.23 24.7344 118.676 24.6641 119.25H27.8398V119.168C27.8086 118.617 27.6602 118.191 27.3945 117.891C27.1289 117.586 26.7695 117.434 26.3164 117.434ZM31.3613 123H30.2773V114H31.3613V123ZM34.2793 123H33.1953V116.66H34.2793V123ZM33.1074 114.979C33.1074 114.803 33.1602 114.654 33.2656 114.533C33.375 114.412 33.5352 114.352 33.7461 114.352C33.957 114.352 34.1172 114.412 34.2266 114.533C34.3359 114.654 34.3906 114.803 34.3906 114.979C34.3906 115.154 34.3359 115.301 34.2266 115.418C34.1172 115.535 33.957 115.594 33.7461 115.594C33.5352 115.594 33.375 115.535 33.2656 115.418C33.1602 115.301 33.1074 115.154 33.1074 114.979ZM37.4902 115.125V116.66H38.6738V117.498H37.4902V121.43C37.4902 121.684 37.543 121.875 37.6484 122.004C37.7539 122.129 37.9336 122.191 38.1875 122.191C38.3125 122.191 38.4844 122.168 38.7031 122.121V123C38.418 123.078 38.1406 123.117 37.8711 123.117C37.3867 123.117 37.0215 122.971 36.7754 122.678C36.5293 122.385 36.4062 121.969 36.4062 121.43V117.498H35.252V116.66H36.4062V115.125H37.4902Z" fill="white"/>
<rect x="204.722" y="37.5584" width="1.47384" height="5.15844" fill="#FF5C63"/>
<rect x="184.457" y="37.5584" width="16.2122" height="5.15844" fill="#F899AD"/>
<rect x="200.301" y="37.5584" width="1.47384" height="5.15844" fill="#83CDE6"/>
<rect x="201.774" y="37.5584" width="2.21076" height="5.15844" fill="#9E0F0F"/>
<rect x="203.617" y="37.5584" width="1.47384" height="5.15844" fill="#E81A22"/>
<path d="M182.246 49.5333V41.6115H192.931L182.246 49.5333Z" fill="#EBDAFE"/>
<path d="M206.196 40.3206H197.353V67.7721H206.196V40.3206Z" fill="#42437C"/>
<path d="M194.405 40.3218L180.956 50.2703V66.4825H197.906L197.537 40.3218H194.405Z" fill="#353968"/>
<path d="M287.456 66.2983H202.508C201.593 67.5858 201.469 69.0639 202.508 70.3514L287.456 69.9829C288.64 68.6682 288.689 67.8663 287.456 66.2983Z" fill="#FDB688"/>
<path d="M166.233 69.9829C164.882 68.6039 165.092 67.7878 166.233 66.2983H204.722C204.003 67.7372 203.723 68.544 204.722 69.9829H166.233Z" fill="#FC8F56"/>
<path d="M170.64 69.9829V76.431L233.646 72.0094V69.9829H170.64Z" fill="#323868"/>
<path d="M170.64 129.305V76.2467L206.012 73.8517V130.595H171.929C171.008 130.508 170.681 130.27 170.64 129.305Z" fill="#FC8F56"/>
<path d="M233.646 72.0094L206.012 73.8517V130.595H232.725C233.374 130.517 233.612 130.319 233.646 129.489V72.0094Z" fill="#FDB688"/>
<path d="M249.858 72.7464V69.9829H284.494V72.7464H249.858Z" fill="#271D66"/>
<path d="M249.858 128.568V72.5622H284.494V130.042H251.332C250.035 129.966 249.942 130.299 249.858 128.568Z" fill="#FC8F56"/>
<rect x="205.827" y="88.4059" width="27.6345" height="1.10538" fill="#FC8F56"/>
<rect x="215.776" y="79.1944" width="8.10612" height="1.10538" fill="#FC8F56"/>
<rect x="230.146" y="100.197" width="1.10538" height="10.6853" fill="#FC8F56"/>
<rect x="198.458" y="46.4014" width="2.94768" height="0.73692" fill="#9C95C1"/>
<rect x="202.88" y="46.4014" width="2.94768" height="0.73692" fill="#9C95C1"/>
<rect x="198.458" y="48.2437" width="2.94768" height="0.73692" fill="#9C95C1"/>
<rect x="202.88" y="48.2437" width="2.94768" height="0.73692" fill="#9C95C1"/>
<path d="M265.886 61.5084V59.2976C269.556 60.0993 271.613 60.196 275.282 59.2976V61.5084H274.177L273.624 66.2984H267.729L267.176 61.5084H265.886Z" fill="#64605D"/>
<path d="M294.811 98.7228V93.1959H305.864L306.049 98.7228H294.811Z" fill="#FC8F56"/>
<path d="M329.446 94.6698L339.21 65.9299H341.789L331.657 94.3013L329.446 94.6698Z" fill="#FBC9A2"/>
<path d="M298.864 130.226L303.469 98.5386H306.785L301.443 130.226H298.864Z" fill="#FC8F56"/>
<path d="M318.208 130.41L312.681 98.3544H315.813L320.234 130.41H318.208Z" fill="#FC8F56"/>
<path d="M333.683 130.41L328.34 98.3544H331.288L335.71 130.41H333.683Z" fill="#FC8F56"/>
<path d="M303.407 98.7228C301.54 96.4183 301.51 95.1388 303.407 93.1959H331.002C333.566 95.2619 333.622 96.47 331.002 98.7228H303.407Z" fill="#FBC9A2"/>
<path d="M341.789 65.9299H330.719C329.313 63.497 328.827 61.8107 327.972 57.6396H342.342C343.533 57.7435 343.848 58.1549 344 59.2976C343.626 62.354 343.13 63.7951 341.789 65.9299Z" fill="#FC8F56"/>
<path d="M235.673 57.4553H245.437V66.2984H233.83C234.155 65.6395 234.441 64.9424 235.673 64.6403V57.4553Z" fill="#271D66"/>
<path d="M236.594 65.193V60.2188L245.437 57.8238V65.193H247.095C247.832 65.193 247.98 65.8133 248.2 66.2983H234.752C235.172 65.6052 235.548 65.3392 236.594 65.193Z" fill="#C4C4C4"/>
<rect x="220.197" y="26.5046" width="39.7937" height="30.9506" rx="2" fill="#353968"/>
<rect x="221.671" y="26.5046" width="39.7937" height="30.9506" rx="2" fill="#EBDAFE"/>
<rect x="222.579" y="27.7234" width="37.7818" height="28.0316" fill="white"/>
<path d="M308.422 75.1775C315.703 80.9506 319.242 83.4553 329.551 86.1207C328.63 89.9895 325.48 92.034 321.795 93.3237H297.744C295.978 104.182 297.096 112.612 295.978 124.459C293.388 125.64 292.193 125.823 289.603 124.459C288.229 110.844 288.889 102.41 288.328 87.7144C288.42 85.7702 287.795 83.5595 290.374 83.0068C291.787 82.7586 294.673 82.7007 300.876 82.6383L308.422 75.1775Z" fill="#2D202A"/>
<path d="M274.091 90.9017C274.392 95.5236 275.403 95.7162 278.215 96.0871C282.378 88.9893 289.347 87.1063 290.453 84.527C291.558 81.9478 295.764 83.216 298.527 85.0583C302.565 87.0883 305.433 89.4143 313.295 93.1536C327.013 95.3166 327.32 90.0517 327.32 90.0517C318.618 85.1543 311.827 79.5335 306.771 77.1962C301.715 74.8588 297.375 72.5904 292.769 72.7746C288.164 72.9589 284.007 78.6061 274.091 90.9017Z" fill="#4A3345"/>
<rect x="228.304" y="32.4" width="21.7391" height="1.8423" fill="#EBDAFE"/>
<rect x="230.883" y="35.7162" width="8.84305" height="1.8423" fill="#EBDAFE"/>
<rect x="241.2" y="35.7162" width="8.47458" height="1.8423" fill="#EBDAFE"/>
<path d="M304.064 61.5079C304.801 59.9059 305.606 58.8728 305.538 57.583C305.538 57.583 310.88 55.7407 309.591 59.978C308.301 64.2153 308.39 63.1916 305.538 66.2418C302.456 68.726 300.062 73.7766 297.063 65.6891L299.827 65.3206L304.064 61.5079Z" fill="#FFB463"/>
<path d="M323.592 85.0898C320.625 78.9768 320.276 73.8517 311.065 69.4302C310.941 71.1207 309.482 74.2871 308.117 75.5098C313.874 81.1325 317.206 83.2813 323.592 85.0898Z" fill="#40CFFF"/>
<path d="M310.484 60.9557L305.325 57.2222C306.356 54.3391 308.33 51.4189 310.108 49.4664C312.977 47.129 312.624 48.1426 314.336 45.8401C310.099 51.5513 307.76 53.676 310.484 60.9557Z" fill="#5BC0E2"/>
<path d="M321.5 53.6576C319.081 59.7049 315.645 62.3212 309.534 58.5002C311.029 63.7001 311.743 65.4736 309.902 70.7036C318.213 75.4552 319.94 77.3354 323.07 84.952L329.338 86.6519C330.723 83.7151 329.502 81.3192 328.878 77.2391C327.889 72.4738 325.782 71.3779 322.799 68.2118L321.5 53.6576Z" fill="#2CABD7"/>
<path d="M323.366 70.184C321.969 65.9094 320.971 61.8969 319.497 58.3764L317.651 59.6418C317.651 59.6418 312.298 62.0909 309.903 59.1606C308.355 57.267 308.763 52.2532 310.362 48.6995C312.535 45.9278 313.376 46.5607 314.336 45.4798C316.668 49.1267 318.052 49.3287 320.91 47.3461C322.568 47.3461 329.14 53.3275 329.999 59.1133C331.193 64.3508 330.067 65.2527 331.357 69.1215C327.714 70.8929 327.596 72.5719 323.366 72.3779C321.639 72.166 323.96 71.2838 323.366 70.184Z" fill="#5AD5FF"/>
<path d="M291.913 64.0333C291.368 63.3126 291.435 63.0032 291.648 62.475L299.875 61.0736L308.343 71.0312L303.055 74.1745C302.414 74.4573 302.195 74.6947 301.206 74.1157C300.216 73.5366 291.913 64.0333 291.913 64.0333Z" fill="black"/>
<path d="M319.703 70.0721L331.841 71.8252C331.811 75.5299 331.657 76.6152 329.262 76.6152C320.234 75.1414 316.366 73.6675 306.828 70.9892C305.598 71.4395 304.943 71.641 303.838 71.4568C303.064 71.3278 302.005 70.3714 301.074 69.0618L300.774 68.6939C300.313 68.1787 299.653 67.5571 299.416 67.0352C298.389 66.3748 297.818 65.1012 298.495 65.0128C300.471 66.2117 302.048 66.4043 303.25 65.6502C302.857 65.2102 301.556 64.3547 301.996 63.9033C303.469 64.0875 304.759 64.2718 305.864 66.6668C308.213 67.8948 312.13 68.9516 319.703 70.0721Z" fill="#FFB463"/>
<path d="M331.782 71.9902C331.597 72.6103 324.165 72.522 321.524 70.3514C326.438 71.3484 331.357 69.0153 331.357 69.0153C331.357 69.0153 331.966 71.37 331.782 71.9902Z" fill="#FF9B1F"/>
<path d="M262.02 86.5004C265.645 85.745 266.979 87.056 274.23 90.6552C274.45 94.4675 275.417 95.5227 278.428 95.7543C277.55 99.0044 276.579 100.128 273.849 100.665C266.266 94.5194 258.395 87.2559 262.02 86.5004Z" fill="#FF5C63"/>
<path d="M278.282 128.07C280.401 125.034 281.893 125.1 289.637 122.744C292.413 125.367 294.219 125.444 296.568 123.547C298.159 126.514 298.224 127.997 296.605 130.261C286.872 130.992 276.163 131.107 278.282 128.07Z" fill="#FF5C63"/>
<path d="M270.799 90.4868L270.064 88.4675L272.643 89.7571L272.839 91.6134L270.799 90.4868Z" fill="white"/>
<path d="M297.675 70.3001C299.158 69.799 298.985 69.8901 299.103 69.3601C298.061 66.8557 297.621 64.8499 295.57 66.5816C297.307 63.8504 295.915 64.771 294.874 65.7421C294.505 66.0871 294.218 66.2876 294.001 66.4306C293.213 65.6998 292.702 65.8699 293.45 67.1595C294.198 68.4492 296.193 70.8013 297.675 70.3001Z" fill="#FFB463"/>
<path d="M285.775 125.318L283.789 124.478L286.738 123.664L288.021 124.695L285.775 125.318Z" fill="white"/>
<ellipse cx="270.492" cy="58.1922" rx="5.71113" ry="2.94768" fill="#85E359"/>
<rect x="257.412" y="31.2947" width="4.05306" height="8.10612" fill="#C3BCE0"/>
<rect x="257.78" y="31.2947" width="31.6876" height="7.73766" fill="#EBDAFE"/>
<path d="M258.886 35.3478V31.2947H261.281V35.3478L259.991 34.2424L258.886 35.3478Z" fill="#FFDC64"/>
<rect x="275.098" y="36.0847" width="2.21076" height="1.10538" fill="white"/>
<rect x="273.993" y="33.5055" width="2.21076" height="1.10538" fill="white"/>
<rect x="277.309" y="33.5055" width="9.57996" height="1.10538" fill="white"/>
<rect x="279.52" y="36.0847" width="8.10612" height="1.10538" fill="white"/>
<rect x="257.412" y="42.7169" width="4.05306" height="8.10612" fill="#C3BCE0"/>
<rect x="257.78" y="42.7169" width="26.5291" height="7.73766" fill="#EBDAFE"/>
<path d="M258.886 46.77V42.7169H261.281V46.77L259.991 45.6646L258.886 46.77Z" fill="#85E359"/>
<rect x="267.729" y="47.5069" width="2.21076" height="1.10538" fill="white"/>
<rect x="266.624" y="44.9276" width="2.21076" height="1.10538" fill="white"/>
<rect x="269.94" y="44.9276" width="9.57996" height="1.10538" fill="white"/>
<rect x="272.15" y="47.5069" width="8.10612" height="1.10538" fill="white"/>
<path d="M272.9 56.0946L273.997 56.3383L273.753 55.2417C273.062 55.33 272.844 55.4958 272.9 56.0946Z" fill="#FF5C63"/>
<path d="M273.857 55.2343L274.086 56.3342L274.985 55.6613C274.621 55.0675 274.38 54.9371 273.857 55.2343Z" fill="#FF5C63"/>
<path d="M273.312 57.2871L273.95 56.3626L272.843 56.176C272.665 56.8497 272.736 57.1138 273.312 57.2871Z" fill="#FF5C63"/>
<path d="M275.082 56.7075L274.001 56.4008L274.181 57.5097C274.876 57.4614 275.103 57.3086 275.082 56.7075Z" fill="#FF5C63"/>
<path d="M274.077 57.5109L273.912 56.3997L272.975 57.0194C273.305 57.6333 273.538 57.7774 274.077 57.5109Z" fill="#FF5C63"/>
<path d="M274.74 55.4932L274.049 56.3791L275.144 56.6295C275.361 55.9672 275.305 55.6995 274.74 55.4932Z" fill="#FF5C63"/>
<circle cx="273.981" cy="56.3382" r="0.48737" fill="#FFDC64"/>
<path d="M307.521 37.3053C305.046 36.6864 304.15 38.5254 301.675 39.9972C300.512 35.7943 300.946 31.7632 305.621 30.7181C307.04 30.0282 308.642 29.9828 310.539 30.5364C311.92 29.6473 312.521 29.891 312.934 29.9837C314.487 30.3649 315.581 30.6683 315.882 32.7471C316.182 34.826 318.358 37.4115 318.783 39.1114C319.208 40.8113 320.914 43.9559 322.143 45.8394C323.393 49.27 325.745 52.4447 325.093 57.8024C323.568 53.2936 317.724 48.5909 318.093 48.0382C318.461 47.4856 316.517 44.0815 314.776 41.406C315.606 39.4634 314.539 40.4008 313.671 38.4583C313.671 38.4583 314.408 37.5371 313.487 38.4583C312.566 39.3794 312.75 40.3006 312.75 40.3006C312.75 40.3006 312.05 41.8987 312.013 40.3006C311.976 38.7024 310.85 36.4174 307.521 37.3053Z" fill="#8E1816"/>
<path d="M311.983 32.1305L309.858 30.2788L311.558 29.8673L312.833 31.719C312.728 32.17 312.578 32.3063 311.983 32.1305Z" fill="#E23865"/>
<path d="M309.964 30.2923C310.561 32.0813 306.363 33.5434 307.627 36.9857C305.038 37.2357 302.938 36.8957 301.435 40.118C299.341 31.9215 305.349 29.5531 309.964 30.2923Z" fill="#5C0B08"/>
<path d="M319.739 46.8665C318.677 45.4853 318.145 44.5291 316.658 42.7229L318.677 38.8981L321.333 45.0603L319.739 46.8665Z" fill="#5C0B08"/>
<path d="M303.469 43.7569C301.877 42.0431 301.366 41.2258 301.366 38.9947C301.366 38.9947 302.654 37.9302 304.128 37.1932C305.602 36.4563 306.641 36.089 307.558 36.9432C310.137 36.2063 311.545 37.4802 312.497 40.8092C312.302 37.2263 314.339 37.4931 314.339 37.4931C314.339 37.4931 315.813 38.4143 315.076 41.1777C317.088 43.4487 316.378 42.8377 319.02 49.443C316.666 50.7379 313.236 52.7095 312.536 46.5668C312.151 47.807 308.887 51.3077 307.611 50.0435C307.611 50.0435 304.751 47.7842 304.352 46.1842C303.953 44.5842 303.614 43.9078 303.469 43.7569Z" fill="#FFB463"/>
<path d="M308.15 48.519C307.184 48.592 306.23 48.1506 305.996 47.311C307.082 47.8294 307.831 47.6295 309.682 47.1358L309.722 47.1253C309.843 47.7306 309.117 48.446 308.15 48.519Z" fill="#651200"/>
<path d="M309.751 46.611C308.461 47.371 307.587 47.3879 305.995 47.3268C306.793 48.0529 307.321 48.2675 308.596 47.8657C309.824 47.6248 309.748 47.2446 309.751 46.611Z" fill="white"/>
<path d="M306.77 45.176C306.786 43.8098 306.591 43.4603 306.243 42.8377C306.526 44.4782 306.311 44.8217 306.385 45.3661C307.216 45.7499 307.635 45.826 308.02 45.0689C307.696 45.2894 307.525 45.4247 306.77 45.176Z" fill="#CC6D59"/>
<path d="M310.003 39.59C308.029 39.2809 307.362 39.5152 306.677 40.3997C306.656 39.7883 306.772 39.3346 307.533 38.918C308.293 38.5013 310.003 39.59 310.003 39.59Z" fill="#510500"/>
<path d="M304.821 40.6727C303.3 40.321 302.674 40.489 301.816 41.207C302.002 40.6882 302.249 40.3093 303.013 39.9911C303.777 39.6728 304.821 40.6727 304.821 40.6727Z" fill="#510500"/>
<path d="M309.749 41.6409C308.296 41.4897 308.133 41.1762 307.424 42.1492C307.811 40.799 308.703 40.4444 309.749 40.7802C310.039 40.8735 309.77 41.4931 309.749 41.6409Z" fill="#2E2804"/>
<path d="M302.727 42.4834C303.737 41.9586 304.041 41.7549 304.889 42.4834C304.149 41.315 303.377 41.2165 302.727 41.8077C302.546 41.972 302.661 42.35 302.727 42.4834Z" fill="#2E2804"/>
<path d="M315.057 41.1564C314.948 43.1112 313.976 44.6392 312.535 46.8009C314.456 45.5999 315.501 44.4746 316.258 42.5975C315.897 41.6848 315.834 41.9546 315.057 41.1564Z" fill="#F69906"/>
<defs>
<filter id="filter0_d" x="0" y="2" width="358" height="158" filterUnits="userSpaceOnUse" color-interpolation-filters="sRGB">
<feFlood flood-opacity="0" result="BackgroundImageFix"/>
<feColorMatrix in="SourceAlpha" type="matrix" values="0 0 0 0 0 0 0 0 0 0 0 0 0 0 0 0 0 0 127 0"/>
<feOffset dy="4"/>
<feGaussianBlur stdDeviation="2"/>
<feColorMatrix type="matrix" values="0 0 0 0 0 0 0 0 0 0 0 0 0 0 0 0 0 0 0.25 0"/>
<feBlend mode="normal" in2="BackgroundImageFix" result="effect1_dropShadow"/>
<feBlend mode="normal" in="SourceGraphic" in2="effect1_dropShadow" result="shape"/>
</filter>
</defs>
</svg>
