<svg width="358" height="158" viewBox="0 0 358 158" fill="none" xmlns="http://www.w3.org/2000/svg">
<g filter="url(#filter0_d)">
<rect x="4" width="350" height="150" fill="white"/>
</g>
<path d="M5.09375 150H109C132.294 147.543 155 136.69 172.984 104L221.109 0H5.09375V150Z" fill="url(#paint0_linear)"/>
<path d="M154.404 100.641L170.969 81.1251C158.587 76.1677 148.406 77.5 140.75 87.5C133.814 98.9147 144.511 101.054 154.404 100.641Z" fill="#212855"/>
<path d="M221.109 0L172.381 105C180.117 86.0849 163.378 71.5687 140.719 87.5L221.109 0Z" fill="#2235BD"/>
<path d="M18.5251 133.801L22.9883 126.592L26.7462 128.918L22.2829 136.127L18.5251 133.801Z" fill="#E6C5B6"/>
<path d="M25.3478 136.738C25.8161 135.207 25.7697 133.86 25.3479 133.202C24.926 132.544 23.58 133.644 23.58 133.644L22.696 134.97C20.8544 134.769 19.9933 134.262 18.7183 132.76C16.145 133.342 13.8565 135.412 15.6244 138.506C17.3923 141.599 32.7865 145.517 31.9775 142.483C31.1684 139.45 28.6129 137.571 25.3478 136.738Z" fill="#20142C"/>
<path d="M48.3305 137.622V133.202H52.7502V137.622H48.3305Z" fill="#E6C5B6"/>
<path d="M54.9572 138.068C55.0033 136.468 54.6018 135.182 54.0207 134.659C53.4396 134.136 52.433 135.553 52.433 135.553L51.9318 137.066C50.1028 137.36 49.1383 137.1 47.5108 135.989C45.1838 137.232 43.5251 139.833 46.0493 142.348C48.5735 144.864 64.4555 144.564 62.8719 141.853C61.2882 139.142 58.3264 138.007 54.9572 138.068Z" fill="#20142C"/>
<path d="M25.7898 131.876C24.8381 130.057 24.2358 129.092 21.3701 128.782C26.7942 119.555 29.2113 114.32 32.8614 104.916C31.2069 92.505 31.8428 86.0204 32.8614 74.4194L42.5848 106.241C37.2123 116.538 33.4011 122.11 25.7898 131.876Z" fill="#2D7791"/>
<path d="M53.6341 134.086C51.9715 133.379 50.8336 133.176 47.4465 134.086C46.3351 118.031 44.1112 109.563 37.9392 95.1921C32.4854 87.6019 32.0732 82.8312 32.8614 74.4194H50.5403C54.4045 98.8205 54.5247 111.698 53.6341 134.086Z" fill="#5BC0E2"/>
<path d="M32.4194 74.8613C35.0161 52.3118 40.0105 40.3874 44.7947 33.7578C49.5789 27.1281 60.2638 47.017 50.5403 74.8613H32.4194Z" fill="black"/>
<path d="M42.5848 57.6245C42.5848 57.6245 41.7009 48.3431 42.5848 45.6912C43.4688 43.0393 50.0984 41.2714 51.4243 45.6912C52.7502 50.111 52.7502 57.6245 52.7502 57.6245C48.7804 56.2762 46.5547 56.4161 42.5848 57.6245Z" fill="#5BC0E2"/>
<path d="M57.6119 63.696V50.2269C57.6119 49.6746 58.0597 49.2269 58.6119 49.2269H77.8267C78.3789 49.2269 78.8267 49.6746 78.8267 50.2269V63.696C78.8267 64.2483 78.3789 64.696 77.8267 64.696H58.6119C58.0597 64.696 57.6119 64.2483 57.6119 63.696Z" fill="#B96000" stroke="#FFDC64" stroke-width="0.5"/>
<rect x="66.2594" y="49.4769" width="3.91973" height="7.45552" fill="#F69906" stroke="#F69906" stroke-width="0.5"/>
<path d="M73.9649 64.254C75.9129 64.5372 76.9872 64.5935 78.8266 64.254C78.84 64.2266 80.5945 65.1379 79.2686 65.5799C77.9427 66.0219 76.3233 65.9309 79.2686 66.0219C79.7429 66.3458 79.9855 66.5284 79.2686 66.9058C79.5891 67.0661 79.6234 67.1616 79.2686 67.3478C79.4573 67.3609 79.4459 67.387 79.0314 67.4607C76.0867 68.0449 47.3527 68.2937 45.6786 66.9058C43.9001 65.4314 43.9107 57.1824 43.9107 57.1824C46.9803 56.2604 48.7593 56.4953 51.8663 57.1824C51.8663 57.1824 52.1927 60.4734 51.8663 62.0441C51.5399 63.6149 71.4424 64.0877 71.3131 63.812C72.3444 62.9281 73.6745 61.3619 73.9649 61.1602C75.1762 60.319 75.3235 61.5869 74.8489 62.9281L73.9649 64.254Z" fill="#FC997A"/>
<path d="M50.5403 35.5257C48.2352 34.1869 46.8072 33.6364 43.9107 35.0837L44.7947 31.106L45.2367 20.9406C48.557 21.4629 49.132 21.4715 50.9823 20.9406C50.2031 26.3779 50.1776 29.6014 50.5403 35.5257Z" fill="#FC8F56"/>
<path d="M57.1699 23.1505L50.9823 24.0344L48.7724 25.3603L52.7502 34.6418L58.0539 31.9899C58.066 30.3389 57.9906 31.1481 57.6119 29.3381C58.9378 28.0122 58.9378 27.5702 57.1699 26.2443C57.4457 25.4559 57.4456 24.0862 57.1699 23.1505Z" fill="#FC8F56"/>
<path d="M50.9823 30.222C50.2052 26.9255 50.6946 25.0845 51.8663 23.5924L46.1206 24.0344C47.2516 25.0782 48.6419 26.4313 49.2144 28.8961L49.6564 32.4319C50.9823 35.0837 55.844 37.2936 58.0539 31.9899L55.402 31.548C53.6342 33.7578 52.7502 33.3159 50.9823 30.222Z" fill="black"/>
<path d="M41.7009 25.3603C41.7009 25.3603 41.7606 30.0262 44.7947 31.106C46.5614 31.2487 47.0135 30.5256 47.8885 29.3381L46.5626 24.0344L41.7009 25.3603Z" fill="black"/>
<path d="M66.4514 20.4986C67.3354 20.4986 67.2969 21.2669 66.8934 22.2665L51.4243 24.1662C47.8434 23.7049 45.6509 24.2393 41.7009 25.3603C37.4836 16.2403 54.0633 12.2787 57.17 21.3825C57.17 21.3825 65.5675 20.4986 66.4514 20.4986Z" fill="#5BC0E2"/>
<path d="M46.6549 28.9764C45.6439 27.8744 45.5091 27.1875 45.7198 25.8904C46.3431 24.3226 47.4465 24.0344 48.1347 25.0831C48.8342 26.4654 49.0475 27.3092 49.2144 28.8961C48.7724 29.7801 48.2743 30.1729 46.6549 28.9764Z" fill="#FC8F56"/>
<path d="M56.286 31.106C56.742 31.2403 57.9272 31.6586 58.0539 30.664C58.0552 30.6279 57.8667 30.0998 57.6119 30.222C56.9952 30.262 56.0877 30.3192 55.402 29.7801C55.3331 30.4994 55.83 30.9717 56.286 31.106Z" fill="#651200"/>
<path d="M55.9333 30.3809C55.358 30.2497 55.3961 30.0796 55.4068 29.7936C55.8967 30.0956 56.8656 29.7046 57.6127 29.7936C57.7721 29.8126 57.9215 30.4912 58.0539 30.4914C57.6127 30.8404 56.5274 30.5854 55.9333 30.3809Z" fill="white"/>
<path d="M56.327 24.7235C56.246 24.521 56.0892 24.0352 56.1093 23.7122C55.026 23.5437 54.4362 23.6583 53.4753 24.9515L53.8754 25.5376C54.5017 24.7491 55.0292 24.5567 56.327 24.7235Z" fill="#480000"/>
<ellipse cx="55.844" cy="26.0233" rx="0.441973" ry="0.66296" fill="black"/>
<path d="M94.2957 136.738V132.318H98.2735V136.738H94.2957Z" fill="#FBC1D8"/>
<path d="M83.5443 142.925C82.5319 142.062 82.584 141.578 83.5443 140.715C83.5443 140.715 90.4844 139.217 92.3837 136.738H99.0133C100.056 139.154 100.418 140.509 99.0133 142.925H83.5443Z" fill="#FFDC64"/>
<path d="M91.3869 63.3723C93.407 65.0288 94.6095 64.7528 96.9476 65.287V68.7975C93.6499 69.8657 91.714 69.7548 87.4618 68.7975C86.1534 68.1592 86.5882 67.7036 87.4618 67.6805C86.4607 67.0425 86.218 66.7491 87.4618 66.5636C86.0751 65.6977 85.8615 65.0624 87.4618 65.287C89.2595 66.0801 92.0987 66.1806 92.0411 65.9253L90.7327 64.6488C90.7327 64.6488 90.312 63.308 91.3869 63.3723Z" fill="#FFB463"/>
<path d="M114.626 137.18V133.644H118.604V137.18H114.626Z" fill="#FBC1D8"/>
<path d="M104.461 142.925C103.449 142.062 103.501 141.578 104.461 140.715C104.461 140.715 111.401 139.217 113.301 136.738H119.93C120.973 139.154 121.335 140.509 119.93 142.925H104.461Z" fill="#FFDC64"/>
<path d="M99.1574 134.97C97.3895 134.528 96.0985 133.954 93.8538 134.97C94.7051 108.717 96.331 95.5014 103.577 75.3033L107.555 102.706C107.555 102.706 105.345 102.706 103.577 104.916C101.809 107.125 99.1574 134.97 99.1574 134.97Z" fill="#8A8B8D"/>
<path d="M114.185 134.528C116.243 134.204 117.333 134.153 119.046 134.528C117.884 118.974 117.471 106.191 117.297 96.5181C118.855 84.9518 118.322 77.8338 116.836 75.7453H103.135C105.775 97.9429 108.326 110.873 114.185 134.528Z" fill="#D0CED0"/>
<path d="M99.3827 24.4764L98.9407 28.0122C98.9407 28.0122 99.1017 30.0703 99.3827 31.106C97.5372 32.8237 97.2743 33.3382 98.9407 33.7578C98.7168 38.2501 100.267 38.6195 103.802 39.0615V44.8071H106.896V28.4541L99.3827 24.4764Z" fill="#FFB463"/>
<path d="M117.72 77.0712L103.135 75.7453C104.233 69.2851 103.321 66.1685 101.367 60.7182C97.8022 51.3727 100.211 46.5382 106.671 39.9454C109.177 41.8003 109.292 43.2156 111.975 44.8071C112.679 56.4483 112.564 62.6573 117.72 77.0712Z" fill="#F52235"/>
<path d="M106.671 63.812V48.3429C109.758 45.9236 111.287 46.0687 113.743 48.3429V66.4638C113.864 68.541 111.091 69.5576 111.091 69.5576H96.5056C97.0915 67.4299 96.9711 66.148 96.5056 63.812H106.671Z" fill="#FF5C63"/>
<path d="M100.225 29.3381C100.225 28.8373 100.245 29.1506 100.225 28.8275C101.308 28.659 101.898 28.7737 102.859 30.0669C102.232 29.2783 101.522 29.1713 100.225 29.3381Z" fill="#480000"/>
<path d="M100.483 27.1282C99.9039 28.0579 99.1295 28.5292 99.5994 29.3381C95.0234 28.7185 96.5057 24.9183 99.1575 23.1504C101.809 21.3826 106.229 23.1504 106.229 23.1504C114.703 22.8964 115.358 26.9111 114.185 36.8516C124.015 48.4202 122.582 54.0886 118.604 58.5083C114.627 62.928 109.847 54.5211 110.649 47.017C107.885 45.7201 106.671 39.9454 106.671 39.9454C106.229 37.2936 104.903 34.1998 105.787 28.8961C105.028 27.2599 100.483 27.1282 100.483 27.1282Z" fill="#BF5336"/>
<path d="M100.862 29.8825C100.611 29.9633 100.466 30.018 100.485 30.1459C101.017 30.2343 101.424 30.5163 101.809 30.664C102.157 30.7976 102.487 30.7856 102.874 31.0676C102.54 29.8988 101.767 29.5919 100.862 29.8825Z" fill="#2E2804"/>
<path d="M102.251 35.0837C101.109 35.8429 100.507 35.8239 99.5994 35.673C99.6203 35.9659 100.108 36.7055 100.483 36.8516C101.809 36.8516 101.761 36.4147 102.251 35.0837Z" fill="#FF5C63"/>
<path d="M102.251 35.0837C101.109 35.6531 100.507 35.6389 99.5994 35.5257C99.6203 35.7454 99.6657 35.8581 100.041 35.9677C101.355 35.8659 101.761 36.082 102.251 35.0837Z" fill="white"/>
<path d="M217.701 59.7734H214.127L213.324 62H212.164L215.422 53.4688H216.406L219.67 62H218.516L217.701 59.7734ZM214.467 58.8477H217.367L215.914 54.8574L214.467 58.8477ZM220.385 58.7773C220.385 57.8047 220.615 57.0234 221.076 56.4336C221.537 55.8398 222.141 55.543 222.887 55.543C223.629 55.543 224.217 55.7969 224.65 56.3047V53H225.734V62H224.738L224.686 61.3203C224.252 61.8516 223.648 62.1172 222.875 62.1172C222.141 62.1172 221.541 61.8164 221.076 61.2148C220.615 60.6133 220.385 59.8281 220.385 58.8594V58.7773ZM221.469 58.9004C221.469 59.6191 221.617 60.1816 221.914 60.5879C222.211 60.9941 222.621 61.1973 223.145 61.1973C223.832 61.1973 224.334 60.8887 224.65 60.2715V57.3594C224.326 56.7617 223.828 56.4629 223.156 56.4629C222.625 56.4629 222.211 56.668 221.914 57.0781C221.617 57.4883 221.469 58.0957 221.469 58.9004ZM228.6 62H227.516V55.6602H228.6V62ZM227.428 53.9785C227.428 53.8027 227.48 53.6543 227.586 53.5332C227.695 53.4121 227.855 53.3516 228.066 53.3516C228.277 53.3516 228.438 53.4121 228.547 53.5332C228.656 53.6543 228.711 53.8027 228.711 53.9785C228.711 54.1543 228.656 54.3008 228.547 54.418C228.438 54.5352 228.277 54.5938 228.066 54.5938C227.855 54.5938 227.695 54.5352 227.586 54.418C227.48 54.3008 227.428 54.1543 227.428 53.9785ZM235.695 58.9004C235.695 59.8652 235.475 60.6426 235.033 61.2324C234.592 61.8223 233.994 62.1172 233.24 62.1172C232.471 62.1172 231.865 61.873 231.424 61.3848V64.4375H230.34V55.6602H231.33L231.383 56.3633C231.824 55.8164 232.438 55.543 233.223 55.543C233.984 55.543 234.586 55.8301 235.027 56.4043C235.473 56.9785 235.695 57.7773 235.695 58.8008V58.9004ZM234.611 58.7773C234.611 58.0625 234.459 57.498 234.154 57.084C233.85 56.6699 233.432 56.4629 232.9 56.4629C232.244 56.4629 231.752 56.7539 231.424 57.3359V60.3652C231.748 60.9434 232.244 61.2324 232.912 61.2324C233.432 61.2324 233.844 61.0273 234.148 60.6172C234.457 60.2031 234.611 59.5898 234.611 58.7773ZM238.256 62H237.172V55.6602H238.256V62ZM237.084 53.9785C237.084 53.8027 237.137 53.6543 237.242 53.5332C237.352 53.4121 237.512 53.3516 237.723 53.3516C237.934 53.3516 238.094 53.4121 238.203 53.5332C238.312 53.6543 238.367 53.8027 238.367 53.9785C238.367 54.1543 238.312 54.3008 238.203 54.418C238.094 54.5352 237.934 54.5938 237.723 54.5938C237.512 54.5938 237.352 54.5352 237.242 54.418C237.137 54.3008 237.084 54.1543 237.084 53.9785ZM243.688 60.3184C243.688 60.0254 243.576 59.7988 243.354 59.6387C243.135 59.4746 242.75 59.334 242.199 59.2168C241.652 59.0996 241.217 58.959 240.893 58.7949C240.572 58.6309 240.334 58.4355 240.178 58.209C240.025 57.9824 239.949 57.7129 239.949 57.4004C239.949 56.8809 240.168 56.4414 240.605 56.082C241.047 55.7227 241.609 55.543 242.293 55.543C243.012 55.543 243.594 55.7285 244.039 56.0996C244.488 56.4707 244.713 56.9453 244.713 57.5234H243.623C243.623 57.2266 243.496 56.9707 243.242 56.7559C242.992 56.541 242.676 56.4336 242.293 56.4336C241.898 56.4336 241.59 56.5195 241.367 56.6914C241.145 56.8633 241.033 57.0879 241.033 57.3652C241.033 57.627 241.137 57.8242 241.344 57.957C241.551 58.0898 241.924 58.2168 242.463 58.3379C243.006 58.459 243.445 58.6035 243.781 58.7715C244.117 58.9395 244.365 59.1426 244.525 59.3809C244.689 59.6152 244.771 59.9023 244.771 60.2422C244.771 60.8086 244.545 61.2637 244.092 61.6074C243.639 61.9473 243.051 62.1172 242.328 62.1172C241.82 62.1172 241.371 62.0273 240.98 61.8477C240.59 61.668 240.283 61.418 240.061 61.0977C239.842 60.7734 239.732 60.4238 239.732 60.0488H240.816C240.836 60.4121 240.98 60.7012 241.25 60.916C241.523 61.127 241.883 61.2324 242.328 61.2324C242.738 61.2324 243.066 61.1504 243.312 60.9863C243.562 60.8184 243.688 60.5957 243.688 60.3184ZM248.727 61.2324C249.113 61.2324 249.451 61.1152 249.74 60.8809C250.029 60.6465 250.189 60.3535 250.221 60.002H251.246C251.227 60.3652 251.102 60.7109 250.871 61.0391C250.641 61.3672 250.332 61.6289 249.945 61.8242C249.562 62.0195 249.156 62.1172 248.727 62.1172C247.863 62.1172 247.176 61.8301 246.664 61.2559C246.156 60.6777 245.902 59.8887 245.902 58.8887V58.707C245.902 58.0898 246.016 57.541 246.242 57.0605C246.469 56.5801 246.793 56.207 247.215 55.9414C247.641 55.6758 248.143 55.543 248.721 55.543C249.432 55.543 250.021 55.7559 250.49 56.1816C250.963 56.6074 251.215 57.1602 251.246 57.8398H250.221C250.189 57.4297 250.033 57.0938 249.752 56.832C249.475 56.5664 249.131 56.4336 248.721 56.4336C248.17 56.4336 247.742 56.6328 247.438 57.0312C247.137 57.4258 246.986 57.998 246.986 58.748V58.9531C246.986 59.6836 247.137 60.2461 247.438 60.6406C247.738 61.0352 248.168 61.2324 248.727 61.2324ZM253.643 62H252.559V55.6602H253.643V62ZM252.471 53.9785C252.471 53.8027 252.523 53.6543 252.629 53.5332C252.738 53.4121 252.898 53.3516 253.109 53.3516C253.32 53.3516 253.48 53.4121 253.59 53.5332C253.699 53.6543 253.754 53.8027 253.754 53.9785C253.754 54.1543 253.699 54.3008 253.59 54.418C253.48 54.5352 253.32 54.5938 253.109 54.5938C252.898 54.5938 252.738 54.5352 252.629 54.418C252.523 54.3008 252.471 54.1543 252.471 53.9785ZM256.408 55.6602L256.443 56.457C256.928 55.8477 257.561 55.543 258.342 55.543C259.682 55.543 260.357 56.2988 260.369 57.8105V62H259.285V57.8047C259.281 57.3477 259.176 57.0098 258.969 56.791C258.766 56.5723 258.447 56.4629 258.014 56.4629C257.662 56.4629 257.354 56.5566 257.088 56.7441C256.822 56.9316 256.615 57.1777 256.467 57.4824V62H255.383V55.6602H256.408ZM261.746 58.7773C261.746 57.7891 261.975 57.0039 262.432 56.4219C262.889 55.8359 263.494 55.543 264.248 55.543C265.021 55.543 265.625 55.8164 266.059 56.3633L266.111 55.6602H267.102V61.8477C267.102 62.668 266.857 63.3145 266.369 63.7871C265.885 64.2598 265.232 64.4961 264.412 64.4961C263.955 64.4961 263.508 64.3984 263.07 64.2031C262.633 64.0078 262.299 63.7402 262.068 63.4004L262.631 62.75C263.096 63.3242 263.664 63.6113 264.336 63.6113C264.863 63.6113 265.273 63.4629 265.566 63.166C265.863 62.8691 266.012 62.4512 266.012 61.9121V61.3672C265.578 61.8672 264.986 62.1172 264.236 62.1172C263.494 62.1172 262.893 61.8184 262.432 61.2207C261.975 60.623 261.746 59.8086 261.746 58.7773ZM262.836 58.9004C262.836 59.6152 262.982 60.1777 263.275 60.5879C263.568 60.9941 263.979 61.1973 264.506 61.1973C265.189 61.1973 265.691 60.8867 266.012 60.2656V57.3711C265.68 56.7656 265.182 56.4629 264.518 56.4629C263.99 56.4629 263.578 56.668 263.281 57.0781C262.984 57.4883 262.836 58.0957 262.836 58.9004ZM277.84 62.1172C276.981 62.1172 276.282 61.8359 275.743 61.2734C275.204 60.707 274.934 59.9512 274.934 59.0059V58.8066C274.934 58.1777 275.053 57.6172 275.292 57.125C275.534 56.6289 275.87 56.2422 276.299 55.9648C276.733 55.6836 277.202 55.543 277.706 55.543C278.53 55.543 279.171 55.8145 279.628 56.3574C280.085 56.9004 280.313 57.6777 280.313 58.6895V59.1406H276.018C276.034 59.7656 276.215 60.2715 276.563 60.6582C276.915 61.041 277.36 61.2324 277.899 61.2324C278.282 61.2324 278.606 61.1543 278.872 60.998C279.137 60.8418 279.37 60.6348 279.569 60.377L280.231 60.8926C279.7 61.709 278.903 62.1172 277.84 62.1172ZM277.706 56.4336C277.268 56.4336 276.901 56.5938 276.604 56.9141C276.307 57.2305 276.124 57.6758 276.053 58.25H279.229V58.168C279.198 57.6172 279.049 57.1914 278.784 56.8906C278.518 56.5859 278.159 56.4336 277.706 56.4336ZM282.751 62H281.667V53H282.751V62ZM285.669 62H284.585V55.6602H285.669V62ZM284.497 53.9785C284.497 53.8027 284.549 53.6543 284.655 53.5332C284.764 53.4121 284.924 53.3516 285.135 53.3516C285.346 53.3516 285.507 53.4121 285.616 53.5332C285.725 53.6543 285.78 53.8027 285.78 53.9785C285.78 54.1543 285.725 54.3008 285.616 54.418C285.507 54.5352 285.346 54.5938 285.135 54.5938C284.924 54.5938 284.764 54.5352 284.655 54.418C284.549 54.3008 284.497 54.1543 284.497 53.9785ZM288.88 54.125V55.6602H290.063V56.498H288.88V60.4297C288.88 60.6836 288.932 60.875 289.038 61.0039C289.143 61.1289 289.323 61.1914 289.577 61.1914C289.702 61.1914 289.874 61.168 290.092 61.1211V62C289.807 62.0781 289.53 62.1172 289.26 62.1172C288.776 62.1172 288.411 61.9707 288.165 61.6777C287.919 61.3848 287.796 60.9688 287.796 60.4297V56.498H286.641V55.6602H287.796V54.125H288.88ZM291.358 61.4316C291.358 61.2441 291.413 61.0879 291.522 60.9629C291.635 60.8379 291.803 60.7754 292.026 60.7754C292.249 60.7754 292.417 60.8379 292.53 60.9629C292.647 61.0879 292.706 61.2441 292.706 61.4316C292.706 61.6113 292.647 61.7617 292.53 61.8828C292.417 62.0039 292.249 62.0645 292.026 62.0645C291.803 62.0645 291.635 62.0039 291.522 61.8828C291.413 61.7617 291.358 61.6113 291.358 61.4316ZM303.65 58.1973C302.685 57.9199 301.982 57.5801 301.54 57.1777C301.103 56.7715 300.884 56.2715 300.884 55.6777C300.884 55.0059 301.152 54.4512 301.687 54.0137C302.226 53.5723 302.925 53.3516 303.785 53.3516C304.37 53.3516 304.892 53.4648 305.349 53.6914C305.81 53.918 306.165 54.2305 306.415 54.6289C306.669 55.0273 306.796 55.4629 306.796 55.9355H305.665C305.665 55.4199 305.501 55.0156 305.173 54.7227C304.845 54.4258 304.382 54.2773 303.785 54.2773C303.23 54.2773 302.796 54.4004 302.484 54.6465C302.175 54.8887 302.021 55.2266 302.021 55.6602C302.021 56.0078 302.167 56.3027 302.46 56.5449C302.757 56.7832 303.259 57.002 303.966 57.2012C304.677 57.4004 305.232 57.6211 305.63 57.8633C306.033 58.1016 306.329 58.3809 306.521 58.7012C306.716 59.0215 306.814 59.3984 306.814 59.832C306.814 60.5234 306.544 61.0781 306.005 61.4961C305.466 61.9102 304.745 62.1172 303.843 62.1172C303.257 62.1172 302.71 62.0059 302.202 61.7832C301.695 61.5566 301.302 61.248 301.025 60.8574C300.751 60.4668 300.615 60.0234 300.615 59.5273H301.745C301.745 60.043 301.935 60.4512 302.314 60.752C302.697 61.0488 303.206 61.1973 303.843 61.1973C304.437 61.1973 304.892 61.0762 305.208 60.834C305.525 60.5918 305.683 60.2617 305.683 59.8438C305.683 59.4258 305.536 59.1035 305.243 58.877C304.951 58.6465 304.419 58.4199 303.65 58.1973ZM310.722 62.1172C309.863 62.1172 309.163 61.8359 308.624 61.2734C308.085 60.707 307.816 59.9512 307.816 59.0059V58.8066C307.816 58.1777 307.935 57.6172 308.173 57.125C308.415 56.6289 308.751 56.2422 309.181 55.9648C309.615 55.6836 310.083 55.543 310.587 55.543C311.411 55.543 312.052 55.8145 312.509 56.3574C312.966 56.9004 313.195 57.6777 313.195 58.6895V59.1406H308.9C308.915 59.7656 309.097 60.2715 309.445 60.6582C309.796 61.041 310.242 61.2324 310.781 61.2324C311.163 61.2324 311.488 61.1543 311.753 60.998C312.019 60.8418 312.251 60.6348 312.451 60.377L313.113 60.8926C312.581 61.709 311.785 62.1172 310.722 62.1172ZM310.587 56.4336C310.15 56.4336 309.783 56.5938 309.486 56.9141C309.189 57.2305 309.005 57.6758 308.935 58.25H312.111V58.168C312.079 57.6172 311.931 57.1914 311.665 56.8906C311.4 56.5859 311.04 56.4336 310.587 56.4336ZM314.191 58.7773C314.191 57.8047 314.421 57.0234 314.882 56.4336C315.343 55.8398 315.947 55.543 316.693 55.543C317.435 55.543 318.023 55.7969 318.456 56.3047V53H319.54V62H318.544L318.492 61.3203C318.058 61.8516 317.454 62.1172 316.681 62.1172C315.947 62.1172 315.347 61.8164 314.882 61.2148C314.421 60.6133 314.191 59.8281 314.191 58.8594V58.7773ZM315.275 58.9004C315.275 59.6191 315.423 60.1816 315.72 60.5879C316.017 60.9941 316.427 61.1973 316.951 61.1973C317.638 61.1973 318.14 60.8887 318.456 60.2715V57.3594C318.132 56.7617 317.634 56.4629 316.962 56.4629C316.431 56.4629 316.017 56.668 315.72 57.0781C315.423 57.4883 315.275 58.0957 315.275 58.9004ZM330.326 62.1172C329.467 62.1172 328.768 61.8359 328.229 61.2734C327.689 60.707 327.42 59.9512 327.42 59.0059V58.8066C327.42 58.1777 327.539 57.6172 327.777 57.125C328.02 56.6289 328.355 56.2422 328.785 55.9648C329.219 55.6836 329.688 55.543 330.191 55.543C331.016 55.543 331.656 55.8145 332.113 56.3574C332.57 56.9004 332.799 57.6777 332.799 58.6895V59.1406H328.504C328.52 59.7656 328.701 60.2715 329.049 60.6582C329.4 61.041 329.846 61.2324 330.385 61.2324C330.768 61.2324 331.092 61.1543 331.357 60.998C331.623 60.8418 331.855 60.6348 332.055 60.377L332.717 60.8926C332.186 61.709 331.389 62.1172 330.326 62.1172ZM330.191 56.4336C329.754 56.4336 329.387 56.5938 329.09 56.9141C328.793 57.2305 328.609 57.6758 328.539 58.25H331.715V58.168C331.684 57.6172 331.535 57.1914 331.27 56.8906C331.004 56.5859 330.645 56.4336 330.191 56.4336ZM335.236 62H334.152V53H335.236V62ZM338.154 62H337.07V55.6602H338.154V62ZM336.982 53.9785C336.982 53.8027 337.035 53.6543 337.141 53.5332C337.25 53.4121 337.41 53.3516 337.621 53.3516C337.832 53.3516 337.992 53.4121 338.102 53.5332C338.211 53.6543 338.266 53.8027 338.266 53.9785C338.266 54.1543 338.211 54.3008 338.102 54.418C337.992 54.5352 337.832 54.5938 337.621 54.5938C337.41 54.5938 337.25 54.5352 337.141 54.418C337.035 54.3008 336.982 54.1543 336.982 53.9785ZM341.365 54.125V55.6602H342.549V56.498H341.365V60.4297C341.365 60.6836 341.418 60.875 341.523 61.0039C341.629 61.1289 341.809 61.1914 342.062 61.1914C342.188 61.1914 342.359 61.168 342.578 61.1211V62C342.293 62.0781 342.016 62.1172 341.746 62.1172C341.262 62.1172 340.896 61.9707 340.65 61.6777C340.404 61.3848 340.281 60.9688 340.281 60.4297V56.498H339.127V55.6602H340.281V54.125H341.365ZM213.998 76H212.914V69.6602H213.998V76ZM212.826 67.9785C212.826 67.8027 212.879 67.6543 212.984 67.5332C213.094 67.4121 213.254 67.3516 213.465 67.3516C213.676 67.3516 213.836 67.4121 213.945 67.5332C214.055 67.6543 214.109 67.8027 214.109 67.9785C214.109 68.1543 214.055 68.3008 213.945 68.418C213.836 68.5352 213.676 68.5938 213.465 68.5938C213.254 68.5938 213.094 68.5352 212.984 68.418C212.879 68.3008 212.826 68.1543 212.826 67.9785ZM221.094 72.9004C221.094 73.8652 220.873 74.6426 220.432 75.2324C219.99 75.8223 219.393 76.1172 218.639 76.1172C217.869 76.1172 217.264 75.873 216.822 75.3848V78.4375H215.738V69.6602H216.729L216.781 70.3633C217.223 69.8164 217.836 69.543 218.621 69.543C219.383 69.543 219.984 69.8301 220.426 70.4043C220.871 70.9785 221.094 71.7773 221.094 72.8008V72.9004ZM220.01 72.7773C220.01 72.0625 219.857 71.498 219.553 71.084C219.248 70.6699 218.83 70.4629 218.299 70.4629C217.643 70.4629 217.15 70.7539 216.822 71.3359V74.3652C217.146 74.9434 217.643 75.2324 218.311 75.2324C218.83 75.2324 219.242 75.0273 219.547 74.6172C219.855 74.2031 220.01 73.5898 220.01 72.7773ZM226.168 74.3184C226.168 74.0254 226.057 73.7988 225.834 73.6387C225.615 73.4746 225.23 73.334 224.68 73.2168C224.133 73.0996 223.697 72.959 223.373 72.7949C223.053 72.6309 222.814 72.4355 222.658 72.209C222.506 71.9824 222.43 71.7129 222.43 71.4004C222.43 70.8809 222.648 70.4414 223.086 70.082C223.527 69.7227 224.09 69.543 224.773 69.543C225.492 69.543 226.074 69.7285 226.52 70.0996C226.969 70.4707 227.193 70.9453 227.193 71.5234H226.104C226.104 71.2266 225.977 70.9707 225.723 70.7559C225.473 70.541 225.156 70.4336 224.773 70.4336C224.379 70.4336 224.07 70.5195 223.848 70.6914C223.625 70.8633 223.514 71.0879 223.514 71.3652C223.514 71.627 223.617 71.8242 223.824 71.957C224.031 72.0898 224.404 72.2168 224.943 72.3379C225.486 72.459 225.926 72.6035 226.262 72.7715C226.598 72.9395 226.846 73.1426 227.006 73.3809C227.17 73.6152 227.252 73.9023 227.252 74.2422C227.252 74.8086 227.025 75.2637 226.572 75.6074C226.119 75.9473 225.531 76.1172 224.809 76.1172C224.301 76.1172 223.852 76.0273 223.461 75.8477C223.07 75.668 222.764 75.418 222.541 75.0977C222.322 74.7734 222.213 74.4238 222.213 74.0488H223.297C223.316 74.4121 223.461 74.7012 223.73 74.916C224.004 75.127 224.363 75.2324 224.809 75.2324C225.219 75.2324 225.547 75.1504 225.793 74.9863C226.043 74.8184 226.168 74.5957 226.168 74.3184ZM232.578 75.373C232.156 75.8691 231.537 76.1172 230.721 76.1172C230.045 76.1172 229.529 75.9219 229.174 75.5312C228.822 75.1367 228.645 74.5547 228.641 73.7852V69.6602H229.725V73.7559C229.725 74.7168 230.115 75.1973 230.896 75.1973C231.725 75.1973 232.275 74.8887 232.549 74.2715V69.6602H233.633V76H232.602L232.578 75.373ZM236.305 69.6602L236.334 70.3633C236.799 69.8164 237.426 69.543 238.215 69.543C239.102 69.543 239.705 69.8828 240.025 70.5625C240.236 70.2578 240.51 70.0117 240.846 69.8242C241.186 69.6367 241.586 69.543 242.047 69.543C243.438 69.543 244.145 70.2793 244.168 71.752V76H243.084V71.8164C243.084 71.3633 242.98 71.0254 242.773 70.8027C242.566 70.5762 242.219 70.4629 241.73 70.4629C241.328 70.4629 240.994 70.584 240.729 70.8262C240.463 71.0645 240.309 71.3867 240.266 71.793V76H239.176V71.8457C239.176 70.9238 238.725 70.4629 237.822 70.4629C237.111 70.4629 236.625 70.7656 236.363 71.3711V76H235.279V69.6602H236.305ZM245.773 77.6992L245.158 77.2773C245.525 76.7656 245.717 76.2383 245.732 75.6953V74.7168H246.793V75.5664C246.793 75.9609 246.695 76.3555 246.5 76.75C246.309 77.1445 246.066 77.4609 245.773 77.6992ZM254.614 68.125V69.6602H255.798V70.498H254.614V74.4297C254.614 74.6836 254.667 74.875 254.772 75.0039C254.878 75.1289 255.057 75.1914 255.311 75.1914C255.436 75.1914 255.608 75.168 255.827 75.1211V76C255.542 76.0781 255.264 76.1172 254.995 76.1172C254.51 76.1172 254.145 75.9707 253.899 75.6777C253.653 75.3848 253.53 74.9688 253.53 74.4297V70.498H252.376V69.6602H253.53V68.125H254.614ZM260.133 70.6328C259.969 70.6055 259.792 70.5918 259.6 70.5918C258.889 70.5918 258.407 70.8945 258.153 71.5V76H257.069V69.6602H258.124L258.141 70.3926C258.497 69.8262 259.001 69.543 259.653 69.543C259.864 69.543 260.024 69.5703 260.133 69.625V70.6328ZM262.313 76H261.229V69.6602H262.313V76ZM261.141 67.9785C261.141 67.8027 261.194 67.6543 261.299 67.5332C261.409 67.4121 261.569 67.3516 261.78 67.3516C261.991 67.3516 262.151 67.4121 262.26 67.5332C262.37 67.6543 262.424 67.8027 262.424 67.9785C262.424 68.1543 262.37 68.3008 262.26 68.418C262.151 68.5352 261.991 68.5938 261.78 68.5938C261.569 68.5938 261.409 68.5352 261.299 68.418C261.194 68.3008 261.141 68.1543 261.141 67.9785ZM267.745 74.3184C267.745 74.0254 267.633 73.7988 267.411 73.6387C267.192 73.4746 266.807 73.334 266.257 73.2168C265.71 73.0996 265.274 72.959 264.95 72.7949C264.63 72.6309 264.391 72.4355 264.235 72.209C264.083 71.9824 264.007 71.7129 264.007 71.4004C264.007 70.8809 264.225 70.4414 264.663 70.082C265.104 69.7227 265.667 69.543 266.35 69.543C267.069 69.543 267.651 69.7285 268.096 70.0996C268.546 70.4707 268.77 70.9453 268.77 71.5234H267.68C267.68 71.2266 267.553 70.9707 267.299 70.7559C267.049 70.541 266.733 70.4336 266.35 70.4336C265.956 70.4336 265.647 70.5195 265.424 70.6914C265.202 70.8633 265.09 71.0879 265.09 71.3652C265.09 71.627 265.194 71.8242 265.401 71.957C265.608 72.0898 265.981 72.2168 266.52 72.3379C267.063 72.459 267.503 72.6035 267.839 72.7715C268.174 72.9395 268.423 73.1426 268.583 73.3809C268.747 73.6152 268.829 73.9023 268.829 74.2422C268.829 74.8086 268.602 75.2637 268.149 75.6074C267.696 75.9473 267.108 76.1172 266.385 76.1172C265.878 76.1172 265.428 76.0273 265.038 75.8477C264.647 75.668 264.34 75.418 264.118 75.0977C263.899 74.7734 263.79 74.4238 263.79 74.0488H264.874C264.893 74.4121 265.038 74.7012 265.307 74.916C265.581 75.127 265.94 75.2324 266.385 75.2324C266.796 75.2324 267.124 75.1504 267.37 74.9863C267.62 74.8184 267.745 74.5957 267.745 74.3184ZM271.712 68.125V69.6602H272.895V70.498H271.712V74.4297C271.712 74.6836 271.764 74.875 271.87 75.0039C271.975 75.1289 272.155 75.1914 272.409 75.1914C272.534 75.1914 272.706 75.168 272.924 75.1211V76C272.639 76.0781 272.362 76.1172 272.092 76.1172C271.608 76.1172 271.243 75.9707 270.997 75.6777C270.751 75.3848 270.628 74.9688 270.628 74.4297V70.498H269.473V69.6602H270.628V68.125H271.712ZM275.344 76H274.26V69.6602H275.344V76ZM274.173 67.9785C274.173 67.8027 274.225 67.6543 274.331 67.5332C274.44 67.4121 274.6 67.3516 274.811 67.3516C275.022 67.3516 275.182 67.4121 275.292 67.5332C275.401 67.6543 275.456 67.8027 275.456 67.9785C275.456 68.1543 275.401 68.3008 275.292 68.418C275.182 68.5352 275.022 68.5938 274.811 68.5938C274.6 68.5938 274.44 68.5352 274.331 68.418C274.225 68.3008 274.173 68.1543 274.173 67.9785ZM276.821 72.7773C276.821 71.7812 277.049 70.9941 277.507 70.416C277.964 69.834 278.577 69.543 279.346 69.543C280.096 69.543 280.688 69.7949 281.122 70.2988L281.169 69.6602H282.165V78.4375H281.081V75.4141C280.643 75.8828 280.061 76.1172 279.335 76.1172C278.569 76.1172 277.958 75.8203 277.501 75.2266C277.048 74.6289 276.821 73.8379 276.821 72.8535V72.7773ZM277.905 72.9004C277.905 73.627 278.057 74.1973 278.362 74.6113C278.671 75.0254 279.085 75.2324 279.604 75.2324C280.249 75.2324 280.741 74.9473 281.081 74.377V71.2715C280.737 70.7129 280.249 70.4336 279.616 70.4336C279.092 70.4336 278.676 70.6426 278.368 71.0605C278.059 71.4746 277.905 72.0879 277.905 72.9004ZM287.819 75.373C287.397 75.8691 286.778 76.1172 285.962 76.1172C285.286 76.1172 284.77 75.9219 284.415 75.5312C284.063 75.1367 283.885 74.5547 283.882 73.7852V69.6602H284.965V73.7559C284.965 74.7168 285.356 75.1973 286.137 75.1973C286.965 75.1973 287.516 74.8887 287.79 74.2715V69.6602H288.874V76H287.842L287.819 75.373ZM293.157 76.1172C292.298 76.1172 291.598 75.8359 291.059 75.2734C290.52 74.707 290.251 73.9512 290.251 73.0059V72.8066C290.251 72.1777 290.37 71.6172 290.608 71.125C290.85 70.6289 291.186 70.2422 291.616 69.9648C292.049 69.6836 292.518 69.543 293.022 69.543C293.846 69.543 294.487 69.8145 294.944 70.3574C295.401 70.9004 295.63 71.6777 295.63 72.6895V73.1406H291.335C291.35 73.7656 291.532 74.2715 291.88 74.6582C292.231 75.041 292.676 75.2324 293.215 75.2324C293.598 75.2324 293.923 75.1543 294.188 74.998C294.454 74.8418 294.686 74.6348 294.885 74.377L295.548 74.8926C295.016 75.709 294.219 76.1172 293.157 76.1172ZM293.022 70.4336C292.585 70.4336 292.217 70.5938 291.921 70.9141C291.624 71.2305 291.44 71.6758 291.37 72.25H294.546V72.168C294.514 71.6172 294.366 71.1914 294.1 70.8906C293.835 70.5859 293.475 70.4336 293.022 70.4336ZM305.783 75.373C305.361 75.8691 304.742 76.1172 303.925 76.1172C303.249 76.1172 302.734 75.9219 302.378 75.5312C302.027 75.1367 301.849 74.5547 301.845 73.7852V69.6602H302.929V73.7559C302.929 74.7168 303.32 75.1973 304.101 75.1973C304.929 75.1973 305.48 74.8887 305.753 74.2715V69.6602H306.837V76H305.806L305.783 75.373ZM309.96 68.125V69.6602H311.144V70.498H309.96V74.4297C309.96 74.6836 310.013 74.875 310.118 75.0039C310.224 75.1289 310.404 75.1914 310.658 75.1914C310.783 75.1914 310.954 75.168 311.173 75.1211V76C310.888 76.0781 310.611 76.1172 310.341 76.1172C309.857 76.1172 309.492 75.9707 309.245 75.6777C308.999 75.3848 308.876 74.9688 308.876 74.4297V70.498H307.722V69.6602H308.876V68.125H309.96ZM320.025 76.1172C319.166 76.1172 318.467 75.8359 317.928 75.2734C317.389 74.707 317.119 73.9512 317.119 73.0059V72.8066C317.119 72.1777 317.238 71.6172 317.477 71.125C317.719 70.6289 318.055 70.2422 318.484 69.9648C318.918 69.6836 319.387 69.543 319.891 69.543C320.715 69.543 321.355 69.8145 321.812 70.3574C322.27 70.9004 322.498 71.6777 322.498 72.6895V73.1406H318.203C318.219 73.7656 318.4 74.2715 318.748 74.6582C319.1 75.041 319.545 75.2324 320.084 75.2324C320.467 75.2324 320.791 75.1543 321.057 74.998C321.322 74.8418 321.555 74.6348 321.754 74.377L322.416 74.8926C321.885 75.709 321.088 76.1172 320.025 76.1172ZM319.891 70.4336C319.453 70.4336 319.086 70.5938 318.789 70.9141C318.492 71.2305 318.309 71.6758 318.238 72.25H321.414V72.168C321.383 71.6172 321.234 71.1914 320.969 70.8906C320.703 70.5859 320.344 70.4336 319.891 70.4336ZM324.783 69.6602L324.818 70.457C325.303 69.8477 325.936 69.543 326.717 69.543C328.057 69.543 328.732 70.2988 328.744 71.8105V76H327.66V71.8047C327.656 71.3477 327.551 71.0098 327.344 70.791C327.141 70.5723 326.822 70.4629 326.389 70.4629C326.037 70.4629 325.729 70.5566 325.463 70.7441C325.197 70.9316 324.99 71.1777 324.842 71.4824V76H323.758V69.6602H324.783ZM331.557 76H330.473V69.6602H331.557V76ZM330.385 67.9785C330.385 67.8027 330.438 67.6543 330.543 67.5332C330.652 67.4121 330.812 67.3516 331.023 67.3516C331.234 67.3516 331.395 67.4121 331.504 67.5332C331.613 67.6543 331.668 67.8027 331.668 67.9785C331.668 68.1543 331.613 68.3008 331.504 68.418C331.395 68.5352 331.234 68.5938 331.023 68.5938C330.812 68.5938 330.652 68.5352 330.543 68.418C330.438 68.3008 330.385 68.1543 330.385 67.9785ZM334.316 69.6602L334.346 70.3633C334.811 69.8164 335.438 69.543 336.227 69.543C337.113 69.543 337.717 69.8828 338.037 70.5625C338.248 70.2578 338.521 70.0117 338.857 69.8242C339.197 69.6367 339.598 69.543 340.059 69.543C341.449 69.543 342.156 70.2793 342.18 71.752V76H341.096V71.8164C341.096 71.3633 340.992 71.0254 340.785 70.8027C340.578 70.5762 340.23 70.4629 339.742 70.4629C339.34 70.4629 339.006 70.584 338.74 70.8262C338.475 71.0645 338.32 71.3867 338.277 71.793V76H337.188V71.8457C337.188 70.9238 336.736 70.4629 335.834 70.4629C335.123 70.4629 334.637 70.7656 334.375 71.3711V76H333.291V69.6602H334.316ZM213.846 83.6602L213.881 84.457C214.365 83.8477 214.998 83.543 215.779 83.543C217.119 83.543 217.795 84.2988 217.807 85.8105V90H216.723V85.8047C216.719 85.3477 216.613 85.0098 216.406 84.791C216.203 84.5723 215.885 84.4629 215.451 84.4629C215.1 84.4629 214.791 84.5566 214.525 84.7441C214.26 84.9316 214.053 85.1777 213.904 85.4824V90H212.82V83.6602H213.846ZM219.154 86.7715C219.154 86.1504 219.275 85.5918 219.518 85.0957C219.764 84.5996 220.104 84.2168 220.537 83.9473C220.975 83.6777 221.473 83.543 222.031 83.543C222.895 83.543 223.592 83.8418 224.123 84.4395C224.658 85.0371 224.926 85.832 224.926 86.8242V86.9004C224.926 87.5176 224.807 88.0723 224.568 88.5645C224.334 89.0527 223.996 89.4336 223.555 89.707C223.117 89.9805 222.613 90.1172 222.043 90.1172C221.184 90.1172 220.486 89.8184 219.951 89.2207C219.42 88.623 219.154 87.832 219.154 86.8477V86.7715ZM220.244 86.9004C220.244 87.6035 220.406 88.168 220.73 88.5938C221.059 89.0195 221.496 89.2324 222.043 89.2324C222.594 89.2324 223.031 89.0176 223.355 88.5879C223.68 88.1543 223.842 87.5488 223.842 86.7715C223.842 86.0762 223.676 85.5137 223.344 85.084C223.016 84.6504 222.578 84.4336 222.031 84.4336C221.496 84.4336 221.064 84.6465 220.736 85.0723C220.408 85.498 220.244 86.1074 220.244 86.9004ZM227.311 83.6602L227.346 84.457C227.83 83.8477 228.463 83.543 229.244 83.543C230.584 83.543 231.26 84.2988 231.271 85.8105V90H230.188V85.8047C230.184 85.3477 230.078 85.0098 229.871 84.791C229.668 84.5723 229.35 84.4629 228.916 84.4629C228.564 84.4629 228.256 84.5566 227.99 84.7441C227.725 84.9316 227.518 85.1777 227.369 85.4824V90H226.285V83.6602H227.311ZM232.871 91.6992L232.256 91.2773C232.623 90.7656 232.814 90.2383 232.83 89.6953V88.7168H233.891V89.5664C233.891 89.9609 233.793 90.3555 233.598 90.75C233.406 91.1445 233.164 91.4609 232.871 91.6992ZM244.505 87.7734H240.93L240.128 90H238.967L242.225 81.4688H243.21L246.473 90H245.319L244.505 87.7734ZM241.27 86.8477H244.171L242.717 82.8574L241.27 86.8477ZM247.188 86.7773C247.188 85.8047 247.419 85.0234 247.88 84.4336C248.34 83.8398 248.944 83.543 249.69 83.543C250.432 83.543 251.02 83.7969 251.454 84.3047V81H252.538V90H251.542L251.489 89.3203C251.055 89.8516 250.452 90.1172 249.678 90.1172C248.944 90.1172 248.344 89.8164 247.88 89.2148C247.419 88.6133 247.188 87.8281 247.188 86.8594V86.7773ZM248.272 86.9004C248.272 87.6191 248.421 88.1816 248.717 88.5879C249.014 88.9941 249.424 89.1973 249.948 89.1973C250.635 89.1973 251.137 88.8887 251.454 88.2715V85.3594C251.13 84.7617 250.632 84.4629 249.96 84.4629C249.428 84.4629 249.014 84.668 248.717 85.0781C248.421 85.4883 248.272 86.0957 248.272 86.9004ZM255.403 90H254.319V83.6602H255.403V90ZM254.231 81.9785C254.231 81.8027 254.284 81.6543 254.389 81.5332C254.499 81.4121 254.659 81.3516 254.87 81.3516C255.081 81.3516 255.241 81.4121 255.35 81.5332C255.46 81.6543 255.514 81.8027 255.514 81.9785C255.514 82.1543 255.46 82.3008 255.35 82.418C255.241 82.5352 255.081 82.5938 254.87 82.5938C254.659 82.5938 254.499 82.5352 254.389 82.418C254.284 82.3008 254.231 82.1543 254.231 81.9785ZM262.499 86.9004C262.499 87.8652 262.278 88.6426 261.837 89.2324C261.395 89.8223 260.798 90.1172 260.044 90.1172C259.274 90.1172 258.669 89.873 258.227 89.3848V92.4375H257.143V83.6602H258.133L258.186 84.3633C258.628 83.8164 259.241 83.543 260.026 83.543C260.788 83.543 261.389 83.8301 261.831 84.4043C262.276 84.9785 262.499 85.7773 262.499 86.8008V86.9004ZM261.415 86.7773C261.415 86.0625 261.262 85.498 260.958 85.084C260.653 84.6699 260.235 84.4629 259.704 84.4629C259.048 84.4629 258.555 84.7539 258.227 85.3359V88.3652C258.551 88.9434 259.048 89.2324 259.715 89.2324C260.235 89.2324 260.647 89.0273 260.952 88.6172C261.26 88.2031 261.415 87.5898 261.415 86.7773ZM265.059 90H263.975V83.6602H265.059V90ZM263.887 81.9785C263.887 81.8027 263.94 81.6543 264.046 81.5332C264.155 81.4121 264.315 81.3516 264.526 81.3516C264.737 81.3516 264.897 81.4121 265.007 81.5332C265.116 81.6543 265.171 81.8027 265.171 81.9785C265.171 82.1543 265.116 82.3008 265.007 82.418C264.897 82.5352 264.737 82.5938 264.526 82.5938C264.315 82.5938 264.155 82.5352 264.046 82.418C263.94 82.3008 263.887 82.1543 263.887 81.9785ZM270.491 88.3184C270.491 88.0254 270.38 87.7988 270.157 87.6387C269.938 87.4746 269.553 87.334 269.003 87.2168C268.456 87.0996 268.02 86.959 267.696 86.7949C267.376 86.6309 267.137 86.4355 266.981 86.209C266.829 85.9824 266.753 85.7129 266.753 85.4004C266.753 84.8809 266.971 84.4414 267.409 84.082C267.85 83.7227 268.413 83.543 269.096 83.543C269.815 83.543 270.397 83.7285 270.842 84.0996C271.292 84.4707 271.516 84.9453 271.516 85.5234H270.426C270.426 85.2266 270.299 84.9707 270.046 84.7559C269.796 84.541 269.479 84.4336 269.096 84.4336C268.702 84.4336 268.393 84.5195 268.171 84.6914C267.948 84.8633 267.837 85.0879 267.837 85.3652C267.837 85.627 267.94 85.8242 268.147 85.957C268.354 86.0898 268.727 86.2168 269.266 86.3379C269.809 86.459 270.249 86.6035 270.585 86.7715C270.921 86.9395 271.169 87.1426 271.329 87.3809C271.493 87.6152 271.575 87.9023 271.575 88.2422C271.575 88.8086 271.348 89.2637 270.895 89.6074C270.442 89.9473 269.854 90.1172 269.132 90.1172C268.624 90.1172 268.174 90.0273 267.784 89.8477C267.393 89.668 267.087 89.418 266.864 89.0977C266.645 88.7734 266.536 88.4238 266.536 88.0488H267.62C267.639 88.4121 267.784 88.7012 268.053 88.916C268.327 89.127 268.686 89.2324 269.132 89.2324C269.542 89.2324 269.87 89.1504 270.116 88.9863C270.366 88.8184 270.491 88.5957 270.491 88.3184ZM275.53 89.2324C275.917 89.2324 276.255 89.1152 276.544 88.8809C276.833 88.6465 276.993 88.3535 277.024 88.002H278.049C278.03 88.3652 277.905 88.7109 277.674 89.0391C277.444 89.3672 277.135 89.6289 276.749 89.8242C276.366 90.0195 275.96 90.1172 275.53 90.1172C274.667 90.1172 273.979 89.8301 273.467 89.2559C272.96 88.6777 272.706 87.8887 272.706 86.8887V86.707C272.706 86.0898 272.819 85.541 273.046 85.0605C273.272 84.5801 273.596 84.207 274.018 83.9414C274.444 83.6758 274.946 83.543 275.524 83.543C276.235 83.543 276.825 83.7559 277.294 84.1816C277.766 84.6074 278.018 85.1602 278.049 85.8398H277.024C276.993 85.4297 276.837 85.0938 276.555 84.832C276.278 84.5664 275.934 84.4336 275.524 84.4336C274.973 84.4336 274.546 84.6328 274.241 85.0312C273.94 85.4258 273.79 85.998 273.79 86.748V86.9531C273.79 87.6836 273.94 88.2461 274.241 88.6406C274.542 89.0352 274.971 89.2324 275.53 89.2324ZM280.446 90H279.362V83.6602H280.446V90ZM279.274 81.9785C279.274 81.8027 279.327 81.6543 279.432 81.5332C279.542 81.4121 279.702 81.3516 279.913 81.3516C280.124 81.3516 280.284 81.4121 280.393 81.5332C280.503 81.6543 280.557 81.8027 280.557 81.9785C280.557 82.1543 280.503 82.3008 280.393 82.418C280.284 82.5352 280.124 82.5938 279.913 82.5938C279.702 82.5938 279.542 82.5352 279.432 82.418C279.327 82.3008 279.274 82.1543 279.274 81.9785ZM283.212 83.6602L283.247 84.457C283.731 83.8477 284.364 83.543 285.145 83.543C286.485 83.543 287.161 84.2988 287.173 85.8105V90H286.089V85.8047C286.085 85.3477 285.979 85.0098 285.772 84.791C285.569 84.5723 285.251 84.4629 284.817 84.4629C284.465 84.4629 284.157 84.5566 283.891 84.7441C283.626 84.9316 283.419 85.1777 283.27 85.4824V90H282.186V83.6602H283.212ZM288.549 86.7773C288.549 85.7891 288.778 85.0039 289.235 84.4219C289.692 83.8359 290.298 83.543 291.051 83.543C291.825 83.543 292.428 83.8164 292.862 84.3633L292.915 83.6602H293.905V89.8477C293.905 90.668 293.661 91.3145 293.173 91.7871C292.688 92.2598 292.036 92.4961 291.215 92.4961C290.758 92.4961 290.311 92.3984 289.874 92.2031C289.436 92.0078 289.102 91.7402 288.872 91.4004L289.434 90.75C289.899 91.3242 290.467 91.6113 291.139 91.6113C291.667 91.6113 292.077 91.4629 292.37 91.166C292.667 90.8691 292.815 90.4512 292.815 89.9121V89.3672C292.382 89.8672 291.79 90.1172 291.04 90.1172C290.298 90.1172 289.696 89.8184 289.235 89.2207C288.778 88.623 288.549 87.8086 288.549 86.7773ZM289.639 86.9004C289.639 87.6152 289.786 88.1777 290.079 88.5879C290.372 88.9941 290.782 89.1973 291.309 89.1973C291.993 89.1973 292.495 88.8867 292.815 88.2656V85.3711C292.483 84.7656 291.985 84.4629 291.321 84.4629C290.794 84.4629 290.382 84.668 290.085 85.0781C289.788 85.4883 289.639 86.0957 289.639 86.9004ZM302.538 90.1172C301.679 90.1172 300.98 89.8359 300.441 89.2734C299.902 88.707 299.632 87.9512 299.632 87.0059V86.8066C299.632 86.1777 299.751 85.6172 299.99 85.125C300.232 84.6289 300.568 84.2422 300.997 83.9648C301.431 83.6836 301.9 83.543 302.404 83.543C303.228 83.543 303.868 83.8145 304.326 84.3574C304.783 84.9004 305.011 85.6777 305.011 86.6895V87.1406H300.716C300.732 87.7656 300.913 88.2715 301.261 88.6582C301.613 89.041 302.058 89.2324 302.597 89.2324C302.98 89.2324 303.304 89.1543 303.57 88.998C303.835 88.8418 304.068 88.6348 304.267 88.377L304.929 88.8926C304.398 89.709 303.601 90.1172 302.538 90.1172ZM302.404 84.4336C301.966 84.4336 301.599 84.5938 301.302 84.9141C301.005 85.2305 300.822 85.6758 300.751 86.25H303.927V86.168C303.896 85.6172 303.747 85.1914 303.482 84.8906C303.216 84.5859 302.857 84.4336 302.404 84.4336ZM307.449 90H306.365V81H307.449V90ZM310.367 90H309.283V83.6602H310.367V90ZM309.195 81.9785C309.195 81.8027 309.247 81.6543 309.353 81.5332C309.462 81.4121 309.622 81.3516 309.833 81.3516C310.044 81.3516 310.204 81.4121 310.314 81.5332C310.423 81.6543 310.478 81.8027 310.478 81.9785C310.478 82.1543 310.423 82.3008 310.314 82.418C310.204 82.5352 310.044 82.5938 309.833 82.5938C309.622 82.5938 309.462 82.5352 309.353 82.418C309.247 82.3008 309.195 82.1543 309.195 81.9785ZM313.577 82.125V83.6602H314.761V84.498H313.577V88.4297C313.577 88.6836 313.63 88.875 313.736 89.0039C313.841 89.1289 314.021 89.1914 314.275 89.1914C314.4 89.1914 314.572 89.168 314.79 89.1211V90C314.505 90.0781 314.228 90.1172 313.958 90.1172C313.474 90.1172 313.109 89.9707 312.863 89.6777C312.617 89.3848 312.493 88.9688 312.493 88.4297V84.498H311.339V83.6602H312.493V82.125H313.577ZM316.056 89.4316C316.056 89.2441 316.111 89.0879 316.22 88.9629C316.333 88.8379 316.501 88.7754 316.724 88.7754C316.947 88.7754 317.115 88.8379 317.228 88.9629C317.345 89.0879 317.404 89.2441 317.404 89.4316C317.404 89.6113 317.345 89.7617 317.228 89.8828C317.115 90.0039 316.947 90.0645 316.724 90.0645C316.501 90.0645 316.333 90.0039 316.22 89.8828C316.111 89.7617 316.056 89.6113 316.056 89.4316ZM326.242 86.1973C325.277 85.9199 324.574 85.5801 324.133 85.1777C323.695 84.7715 323.477 84.2715 323.477 83.6777C323.477 83.0059 323.744 82.4512 324.279 82.0137C324.818 81.5723 325.518 81.3516 326.377 81.3516C326.963 81.3516 327.484 81.4648 327.941 81.6914C328.402 81.918 328.758 82.2305 329.008 82.6289C329.262 83.0273 329.389 83.4629 329.389 83.9355H328.258C328.258 83.4199 328.094 83.0156 327.766 82.7227C327.438 82.4258 326.975 82.2773 326.377 82.2773C325.822 82.2773 325.389 82.4004 325.076 82.6465C324.768 82.8887 324.613 83.2266 324.613 83.6602C324.613 84.0078 324.76 84.3027 325.053 84.5449C325.35 84.7832 325.852 85.002 326.559 85.2012C327.27 85.4004 327.824 85.6211 328.223 85.8633C328.625 86.1016 328.922 86.3809 329.113 86.7012C329.309 87.0215 329.406 87.3984 329.406 87.832C329.406 88.5234 329.137 89.0781 328.598 89.4961C328.059 89.9102 327.338 90.1172 326.436 90.1172C325.85 90.1172 325.303 90.0059 324.795 89.7832C324.287 89.5566 323.895 89.248 323.617 88.8574C323.344 88.4668 323.207 88.0234 323.207 87.5273H324.338C324.338 88.043 324.527 88.4512 324.906 88.752C325.289 89.0488 325.799 89.1973 326.436 89.1973C327.029 89.1973 327.484 89.0762 327.801 88.834C328.117 88.5918 328.275 88.2617 328.275 87.8438C328.275 87.4258 328.129 87.1035 327.836 86.877C327.543 86.6465 327.012 86.4199 326.242 86.1973ZM333.314 90.1172C332.455 90.1172 331.756 89.8359 331.217 89.2734C330.678 88.707 330.408 87.9512 330.408 87.0059V86.8066C330.408 86.1777 330.527 85.6172 330.766 85.125C331.008 84.6289 331.344 84.2422 331.773 83.9648C332.207 83.6836 332.676 83.543 333.18 83.543C334.004 83.543 334.645 83.8145 335.102 84.3574C335.559 84.9004 335.787 85.6777 335.787 86.6895V87.1406H331.492C331.508 87.7656 331.689 88.2715 332.037 88.6582C332.389 89.041 332.834 89.2324 333.373 89.2324C333.756 89.2324 334.08 89.1543 334.346 88.998C334.611 88.8418 334.844 88.6348 335.043 88.377L335.705 88.8926C335.174 89.709 334.377 90.1172 333.314 90.1172ZM333.18 84.4336C332.742 84.4336 332.375 84.5938 332.078 84.9141C331.781 85.2305 331.598 85.6758 331.527 86.25H334.703V86.168C334.672 85.6172 334.523 85.1914 334.258 84.8906C333.992 84.5859 333.633 84.4336 333.18 84.4336ZM336.783 86.7773C336.783 85.8047 337.014 85.0234 337.475 84.4336C337.936 83.8398 338.539 83.543 339.285 83.543C340.027 83.543 340.615 83.7969 341.049 84.3047V81H342.133V90H341.137L341.084 89.3203C340.65 89.8516 340.047 90.1172 339.273 90.1172C338.539 90.1172 337.939 89.8164 337.475 89.2148C337.014 88.6133 336.783 87.8281 336.783 86.8594V86.7773ZM337.867 86.9004C337.867 87.6191 338.016 88.1816 338.312 88.5879C338.609 88.9941 339.02 89.1973 339.543 89.1973C340.23 89.1973 340.732 88.8887 341.049 88.2715V85.3594C340.725 84.7617 340.227 84.4629 339.555 84.4629C339.023 84.4629 338.609 84.668 338.312 85.0781C338.016 85.4883 337.867 86.0957 337.867 86.9004ZM215.451 104.117C214.592 104.117 213.893 103.836 213.354 103.273C212.814 102.707 212.545 101.951 212.545 101.006V100.807C212.545 100.178 212.664 99.6172 212.902 99.125C213.145 98.6289 213.48 98.2422 213.91 97.9648C214.344 97.6836 214.812 97.543 215.316 97.543C216.141 97.543 216.781 97.8145 217.238 98.3574C217.695 98.9004 217.924 99.6777 217.924 100.689V101.141H213.629C213.645 101.766 213.826 102.271 214.174 102.658C214.525 103.041 214.971 103.232 215.51 103.232C215.893 103.232 216.217 103.154 216.482 102.998C216.748 102.842 216.98 102.635 217.18 102.377L217.842 102.893C217.311 103.709 216.514 104.117 215.451 104.117ZM215.316 98.4336C214.879 98.4336 214.512 98.5938 214.215 98.9141C213.918 99.2305 213.734 99.6758 213.664 100.25H216.84V100.168C216.809 99.6172 216.66 99.1914 216.395 98.8906C216.129 98.5859 215.77 98.4336 215.316 98.4336ZM220.361 104H219.277V95H220.361V104ZM223.279 104H222.195V97.6602H223.279V104ZM222.107 95.9785C222.107 95.8027 222.16 95.6543 222.266 95.5332C222.375 95.4121 222.535 95.3516 222.746 95.3516C222.957 95.3516 223.117 95.4121 223.227 95.5332C223.336 95.6543 223.391 95.8027 223.391 95.9785C223.391 96.1543 223.336 96.3008 223.227 96.418C223.117 96.5352 222.957 96.5938 222.746 96.5938C222.535 96.5938 222.375 96.5352 222.266 96.418C222.16 96.3008 222.107 96.1543 222.107 95.9785ZM226.49 96.125V97.6602H227.674V98.498H226.49V102.43C226.49 102.684 226.543 102.875 226.648 103.004C226.754 103.129 226.934 103.191 227.188 103.191C227.312 103.191 227.484 103.168 227.703 103.121V104C227.418 104.078 227.141 104.117 226.871 104.117C226.387 104.117 226.021 103.971 225.775 103.678C225.529 103.385 225.406 102.969 225.406 102.43V98.498H224.252V97.6602H225.406V96.125H226.49ZM238.536 104H237.452V97.6602H238.536V104ZM237.364 95.9785C237.364 95.8027 237.417 95.6543 237.522 95.5332C237.632 95.4121 237.792 95.3516 238.003 95.3516C238.214 95.3516 238.374 95.4121 238.483 95.5332C238.592 95.6543 238.647 95.8027 238.647 95.9785C238.647 96.1543 238.592 96.3008 238.483 96.418C238.374 96.5352 238.214 96.5938 238.003 96.5938C237.792 96.5938 237.632 96.5352 237.522 96.418C237.417 96.3008 237.364 96.1543 237.364 95.9785ZM245.632 100.9C245.632 101.865 245.411 102.643 244.969 103.232C244.528 103.822 243.93 104.117 243.176 104.117C242.407 104.117 241.801 103.873 241.36 103.385V106.438H240.276V97.6602H241.266L241.319 98.3633C241.76 97.8164 242.374 97.543 243.159 97.543C243.921 97.543 244.522 97.8301 244.964 98.4043C245.409 98.9785 245.632 99.7773 245.632 100.801V100.9ZM244.548 100.777C244.548 100.062 244.395 99.498 244.09 99.084C243.786 98.6699 243.368 98.4629 242.837 98.4629C242.18 98.4629 241.688 98.7539 241.36 99.3359V102.365C241.684 102.943 242.18 103.232 242.848 103.232C243.368 103.232 243.78 103.027 244.085 102.617C244.393 102.203 244.548 101.59 244.548 100.777ZM250.706 102.318C250.706 102.025 250.594 101.799 250.372 101.639C250.153 101.475 249.768 101.334 249.217 101.217C248.671 101.1 248.235 100.959 247.911 100.795C247.59 100.631 247.352 100.436 247.196 100.209C247.044 99.9824 246.967 99.7129 246.967 99.4004C246.967 98.8809 247.186 98.4414 247.624 98.082C248.065 97.7227 248.628 97.543 249.311 97.543C250.03 97.543 250.612 97.7285 251.057 98.0996C251.507 98.4707 251.731 98.9453 251.731 99.5234H250.641C250.641 99.2266 250.514 98.9707 250.26 98.7559C250.01 98.541 249.694 98.4336 249.311 98.4336C248.917 98.4336 248.608 98.5195 248.385 98.6914C248.163 98.8633 248.051 99.0879 248.051 99.3652C248.051 99.627 248.155 99.8242 248.362 99.957C248.569 100.09 248.942 100.217 249.481 100.338C250.024 100.459 250.464 100.604 250.799 100.771C251.135 100.939 251.383 101.143 251.544 101.381C251.708 101.615 251.79 101.902 251.79 102.242C251.79 102.809 251.563 103.264 251.11 103.607C250.657 103.947 250.069 104.117 249.346 104.117C248.839 104.117 248.389 104.027 247.999 103.848C247.608 103.668 247.301 103.418 247.079 103.098C246.86 102.773 246.751 102.424 246.751 102.049H247.835C247.854 102.412 247.999 102.701 248.268 102.916C248.542 103.127 248.901 103.232 249.346 103.232C249.757 103.232 250.085 103.15 250.331 102.986C250.581 102.818 250.706 102.596 250.706 102.318ZM257.116 103.373C256.694 103.869 256.075 104.117 255.258 104.117C254.583 104.117 254.067 103.922 253.712 103.531C253.36 103.137 253.182 102.555 253.178 101.785V97.6602H254.262V101.756C254.262 102.717 254.653 103.197 255.434 103.197C256.262 103.197 256.813 102.889 257.087 102.271V97.6602H258.171V104H257.139L257.116 103.373ZM260.842 97.6602L260.872 98.3633C261.337 97.8164 261.964 97.543 262.753 97.543C263.639 97.543 264.243 97.8828 264.563 98.5625C264.774 98.2578 265.048 98.0117 265.383 97.8242C265.723 97.6367 266.124 97.543 266.585 97.543C267.975 97.543 268.682 98.2793 268.706 99.752V104H267.622V99.8164C267.622 99.3633 267.518 99.0254 267.311 98.8027C267.104 98.5762 266.757 98.4629 266.268 98.4629C265.866 98.4629 265.532 98.584 265.266 98.8262C265.001 99.0645 264.846 99.3867 264.803 99.793V104H263.714V99.8457C263.714 98.9238 263.262 98.4629 262.36 98.4629C261.649 98.4629 261.163 98.7656 260.901 99.3711V104H259.817V97.6602H260.842ZM270.311 105.699L269.696 105.277C270.063 104.766 270.255 104.238 270.27 103.695V102.717H271.331V103.566C271.331 103.961 271.233 104.355 271.038 104.75C270.846 105.145 270.604 105.461 270.311 105.699ZM282.585 96.125V97.6602H283.769V98.498H282.585V102.43C282.585 102.684 282.638 102.875 282.743 103.004C282.849 103.129 283.029 103.191 283.283 103.191C283.408 103.191 283.579 103.168 283.798 103.121V104C283.513 104.078 283.236 104.117 282.966 104.117C282.482 104.117 282.117 103.971 281.87 103.678C281.624 103.385 281.501 102.969 281.501 102.43V98.498H280.347V97.6602H281.501V96.125H282.585ZM288.105 98.6328C287.941 98.6055 287.763 98.5918 287.572 98.5918C286.861 98.5918 286.378 98.8945 286.124 99.5V104H285.04V97.6602H286.095L286.113 98.3926C286.468 97.8262 286.972 97.543 287.624 97.543C287.835 97.543 287.995 97.5703 288.105 97.625V98.6328ZM290.285 104H289.201V97.6602H290.285V104ZM289.113 95.9785C289.113 95.8027 289.165 95.6543 289.271 95.5332C289.38 95.4121 289.54 95.3516 289.751 95.3516C289.962 95.3516 290.122 95.4121 290.232 95.5332C290.341 95.6543 290.396 95.8027 290.396 95.9785C290.396 96.1543 290.341 96.3008 290.232 96.418C290.122 96.5352 289.962 96.5938 289.751 96.5938C289.54 96.5938 289.38 96.5352 289.271 96.418C289.165 96.3008 289.113 96.1543 289.113 95.9785ZM295.716 102.318C295.716 102.025 295.605 101.799 295.382 101.639C295.163 101.475 294.779 101.334 294.228 101.217C293.681 101.1 293.245 100.959 292.921 100.795C292.601 100.631 292.363 100.436 292.206 100.209C292.054 99.9824 291.978 99.7129 291.978 99.4004C291.978 98.8809 292.197 98.4414 292.634 98.082C293.076 97.7227 293.638 97.543 294.322 97.543C295.04 97.543 295.622 97.7285 296.068 98.0996C296.517 98.4707 296.742 98.9453 296.742 99.5234H295.652C295.652 99.2266 295.525 98.9707 295.271 98.7559C295.021 98.541 294.704 98.4336 294.322 98.4336C293.927 98.4336 293.618 98.5195 293.396 98.6914C293.173 98.8633 293.062 99.0879 293.062 99.3652C293.062 99.627 293.165 99.8242 293.372 99.957C293.579 100.09 293.952 100.217 294.492 100.338C295.035 100.459 295.474 100.604 295.81 100.771C296.146 100.939 296.394 101.143 296.554 101.381C296.718 101.615 296.8 101.902 296.8 102.242C296.8 102.809 296.574 103.264 296.12 103.607C295.667 103.947 295.079 104.117 294.357 104.117C293.849 104.117 293.4 104.027 293.009 103.848C292.618 103.668 292.312 103.418 292.089 103.098C291.87 102.773 291.761 102.424 291.761 102.049H292.845C292.865 102.412 293.009 102.701 293.279 102.916C293.552 103.127 293.911 103.232 294.357 103.232C294.767 103.232 295.095 103.15 295.341 102.986C295.591 102.818 295.716 102.596 295.716 102.318ZM299.683 96.125V97.6602H300.867V98.498H299.683V102.43C299.683 102.684 299.736 102.875 299.841 103.004C299.947 103.129 300.126 103.191 300.38 103.191C300.505 103.191 300.677 103.168 300.896 103.121V104C300.611 104.078 300.333 104.117 300.064 104.117C299.579 104.117 299.214 103.971 298.968 103.678C298.722 103.385 298.599 102.969 298.599 102.43V98.498H297.445V97.6602H298.599V96.125H299.683ZM303.316 104H302.232V97.6602H303.316V104ZM302.144 95.9785C302.144 95.8027 302.197 95.6543 302.302 95.5332C302.411 95.4121 302.572 95.3516 302.783 95.3516C302.993 95.3516 303.154 95.4121 303.263 95.5332C303.372 95.6543 303.427 95.8027 303.427 95.9785C303.427 96.1543 303.372 96.3008 303.263 96.418C303.154 96.5352 302.993 96.5938 302.783 96.5938C302.572 96.5938 302.411 96.5352 302.302 96.418C302.197 96.3008 302.144 96.1543 302.144 95.9785ZM304.792 100.777C304.792 99.7812 305.021 98.9941 305.478 98.416C305.935 97.834 306.548 97.543 307.318 97.543C308.068 97.543 308.66 97.7949 309.093 98.2988L309.14 97.6602H310.136V106.438H309.052V103.414C308.615 103.883 308.033 104.117 307.306 104.117C306.54 104.117 305.929 103.82 305.472 103.227C305.019 102.629 304.792 101.838 304.792 100.854V100.777ZM305.876 100.9C305.876 101.627 306.029 102.197 306.333 102.611C306.642 103.025 307.056 103.232 307.576 103.232C308.22 103.232 308.712 102.947 309.052 102.377V99.2715C308.708 98.7129 308.22 98.4336 307.587 98.4336C307.064 98.4336 306.648 98.6426 306.339 99.0605C306.031 99.4746 305.876 100.088 305.876 100.9ZM315.79 103.373C315.368 103.869 314.749 104.117 313.933 104.117C313.257 104.117 312.742 103.922 312.386 103.531C312.035 103.137 311.857 102.555 311.853 101.785V97.6602H312.937V101.756C312.937 102.717 313.327 103.197 314.109 103.197C314.937 103.197 315.488 102.889 315.761 102.271V97.6602H316.845V104H315.814L315.79 103.373ZM321.128 104.117C320.269 104.117 319.57 103.836 319.031 103.273C318.492 102.707 318.222 101.951 318.222 101.006V100.807C318.222 100.178 318.341 99.6172 318.579 99.125C318.822 98.6289 319.158 98.2422 319.587 97.9648C320.021 97.6836 320.49 97.543 320.993 97.543C321.818 97.543 322.458 97.8145 322.915 98.3574C323.372 98.9004 323.601 99.6777 323.601 100.689V101.141H319.306C319.322 101.766 319.503 102.271 319.851 102.658C320.202 103.041 320.648 103.232 321.187 103.232C321.57 103.232 321.894 103.154 322.16 102.998C322.425 102.842 322.658 102.635 322.857 102.377L323.519 102.893C322.988 103.709 322.191 104.117 321.128 104.117ZM320.993 98.4336C320.556 98.4336 320.189 98.5938 319.892 98.9141C319.595 99.2305 319.411 99.6758 319.341 100.25H322.517V100.168C322.486 99.6172 322.337 99.1914 322.072 98.8906C321.806 98.5859 321.447 98.4336 320.993 98.4336ZM337.188 103.373C336.766 103.869 336.146 104.117 335.33 104.117C334.654 104.117 334.139 103.922 333.783 103.531C333.432 103.137 333.254 102.555 333.25 101.785V97.6602H334.334V101.756C334.334 102.717 334.725 103.197 335.506 103.197C336.334 103.197 336.885 102.889 337.158 102.271V97.6602H338.242V104H337.211L337.188 103.373ZM341.365 96.125V97.6602H342.549V98.498H341.365V102.43C341.365 102.684 341.418 102.875 341.523 103.004C341.629 103.129 341.809 103.191 342.062 103.191C342.188 103.191 342.359 103.168 342.578 103.121V104C342.293 104.078 342.016 104.117 341.746 104.117C341.262 104.117 340.896 103.971 340.65 103.678C340.404 103.385 340.281 102.969 340.281 102.43V98.498H339.127V97.6602H340.281V96.125H341.365ZM215.451 118.117C214.592 118.117 213.893 117.836 213.354 117.273C212.814 116.707 212.545 115.951 212.545 115.006V114.807C212.545 114.178 212.664 113.617 212.902 113.125C213.145 112.629 213.48 112.242 213.91 111.965C214.344 111.684 214.812 111.543 215.316 111.543C216.141 111.543 216.781 111.814 217.238 112.357C217.695 112.9 217.924 113.678 217.924 114.689V115.141H213.629C213.645 115.766 213.826 116.271 214.174 116.658C214.525 117.041 214.971 117.232 215.51 117.232C215.893 117.232 216.217 117.154 216.482 116.998C216.748 116.842 216.98 116.635 217.18 116.377L217.842 116.893C217.311 117.709 216.514 118.117 215.451 118.117ZM215.316 112.434C214.879 112.434 214.512 112.594 214.215 112.914C213.918 113.23 213.734 113.676 213.664 114.25H216.84V114.168C216.809 113.617 216.66 113.191 216.395 112.891C216.129 112.586 215.77 112.434 215.316 112.434ZM220.209 111.66L220.244 112.457C220.729 111.848 221.361 111.543 222.143 111.543C223.482 111.543 224.158 112.299 224.17 113.811V118H223.086V113.805C223.082 113.348 222.977 113.01 222.77 112.791C222.566 112.572 222.248 112.463 221.814 112.463C221.463 112.463 221.154 112.557 220.889 112.744C220.623 112.932 220.416 113.178 220.268 113.482V118H219.184V111.66H220.209ZM226.982 118H225.898V111.66H226.982V118ZM225.811 109.979C225.811 109.803 225.863 109.654 225.969 109.533C226.078 109.412 226.238 109.352 226.449 109.352C226.66 109.352 226.82 109.412 226.93 109.533C227.039 109.654 227.094 109.803 227.094 109.979C227.094 110.154 227.039 110.301 226.93 110.418C226.82 110.535 226.66 110.594 226.449 110.594C226.238 110.594 226.078 110.535 225.969 110.418C225.863 110.301 225.811 110.154 225.811 109.979ZM229.742 111.66L229.771 112.363C230.236 111.816 230.863 111.543 231.652 111.543C232.539 111.543 233.143 111.883 233.463 112.562C233.674 112.258 233.947 112.012 234.283 111.824C234.623 111.637 235.023 111.543 235.484 111.543C236.875 111.543 237.582 112.279 237.605 113.752V118H236.521V113.816C236.521 113.363 236.418 113.025 236.211 112.803C236.004 112.576 235.656 112.463 235.168 112.463C234.766 112.463 234.432 112.584 234.166 112.826C233.9 113.064 233.746 113.387 233.703 113.793V118H232.613V113.846C232.613 112.924 232.162 112.463 231.26 112.463C230.549 112.463 230.062 112.766 229.801 113.371V118H228.717V111.66H229.742ZM243.248 111.66L243.283 112.457C243.768 111.848 244.4 111.543 245.182 111.543C246.521 111.543 247.197 112.299 247.209 113.811V118H246.125V113.805C246.121 113.348 246.016 113.01 245.809 112.791C245.605 112.572 245.287 112.463 244.854 112.463C244.502 112.463 244.193 112.557 243.928 112.744C243.662 112.932 243.455 113.178 243.307 113.482V118H242.223V111.66H243.248ZM248.557 114.771C248.557 114.15 248.678 113.592 248.92 113.096C249.166 112.6 249.506 112.217 249.939 111.947C250.377 111.678 250.875 111.543 251.434 111.543C252.297 111.543 252.994 111.842 253.525 112.439C254.061 113.037 254.328 113.832 254.328 114.824V114.9C254.328 115.518 254.209 116.072 253.971 116.564C253.736 117.053 253.398 117.434 252.957 117.707C252.52 117.98 252.016 118.117 251.445 118.117C250.586 118.117 249.889 117.818 249.354 117.221C248.822 116.623 248.557 115.832 248.557 114.848V114.771ZM249.646 114.9C249.646 115.604 249.809 116.168 250.133 116.594C250.461 117.02 250.898 117.232 251.445 117.232C251.996 117.232 252.434 117.018 252.758 116.588C253.082 116.154 253.244 115.549 253.244 114.771C253.244 114.076 253.078 113.514 252.746 113.084C252.418 112.65 251.98 112.434 251.434 112.434C250.898 112.434 250.467 112.646 250.139 113.072C249.811 113.498 249.646 114.107 249.646 114.9ZM256.713 111.66L256.748 112.457C257.232 111.848 257.865 111.543 258.646 111.543C259.986 111.543 260.662 112.299 260.674 113.811V118H259.59V113.805C259.586 113.348 259.48 113.01 259.273 112.791C259.07 112.572 258.752 112.463 258.318 112.463C257.967 112.463 257.658 112.557 257.393 112.744C257.127 112.932 256.92 113.178 256.771 113.482V118H255.688V111.66H256.713ZM262.332 117.432C262.332 117.244 262.387 117.088 262.496 116.963C262.609 116.838 262.777 116.775 263 116.775C263.223 116.775 263.391 116.838 263.504 116.963C263.621 117.088 263.68 117.244 263.68 117.432C263.68 117.611 263.621 117.762 263.504 117.883C263.391 118.004 263.223 118.064 263 118.064C262.777 118.064 262.609 118.004 262.496 117.883C262.387 117.762 262.332 117.611 262.332 117.432Z" fill="#9B9393"/>
<path d="M213.104 39V29.0469H216.59C217.798 29.0469 218.714 29.2793 219.338 29.7441C219.962 30.2044 220.274 30.8812 220.274 31.7744C220.274 32.262 220.149 32.6927 219.898 33.0664C219.648 33.4355 219.299 33.7067 218.853 33.8799C219.363 34.0075 219.764 34.265 220.056 34.6523C220.352 35.0397 220.5 35.5137 220.5 36.0742C220.5 37.0312 220.195 37.7559 219.584 38.248C218.973 38.7402 218.103 38.9909 216.973 39H213.104ZM215.154 34.666V37.3525H216.911C217.394 37.3525 217.77 37.2386 218.039 37.0107C218.312 36.7783 218.449 36.4593 218.449 36.0537C218.449 35.1423 217.978 34.6797 217.034 34.666H215.154ZM215.154 33.2168H216.672C217.706 33.1986 218.224 32.7861 218.224 31.9795C218.224 31.5283 218.091 31.2048 217.827 31.0088C217.567 30.8083 217.155 30.708 216.59 30.708H215.154V33.2168ZM228.033 34.6865H224.096V37.3525H228.717V39H222.045V29.0469H228.703V30.708H224.096V33.0801H228.033V34.6865ZM235.081 36.3887C235.081 36.0013 234.944 35.7051 234.671 35.5C234.397 35.2904 233.905 35.0716 233.194 34.8438C232.483 34.6113 231.921 34.3835 231.506 34.1602C230.376 33.5495 229.811 32.7269 229.811 31.6924C229.811 31.1546 229.961 30.6761 230.262 30.2568C230.567 29.833 231.002 29.5026 231.567 29.2656C232.137 29.0286 232.775 28.9102 233.481 28.9102C234.192 28.9102 234.826 29.04 235.382 29.2998C235.938 29.555 236.368 29.9173 236.674 30.3867C236.984 30.8561 237.139 31.3893 237.139 31.9863H235.088C235.088 31.5306 234.944 31.1774 234.657 30.9268C234.37 30.6715 233.967 30.5439 233.447 30.5439C232.946 30.5439 232.556 30.651 232.278 30.8652C232 31.0749 231.861 31.3529 231.861 31.6992C231.861 32.0228 232.023 32.2939 232.347 32.5127C232.675 32.7314 233.156 32.9365 233.789 33.1279C234.956 33.4788 235.806 33.9141 236.339 34.4336C236.872 34.9531 237.139 35.6003 237.139 36.375C237.139 37.2363 236.813 37.9131 236.161 38.4053C235.509 38.8929 234.632 39.1367 233.529 39.1367C232.764 39.1367 232.066 38.9977 231.438 38.7197C230.809 38.4372 230.328 38.0521 229.995 37.5645C229.667 37.0768 229.503 36.5117 229.503 35.8691H231.561C231.561 36.9674 232.217 37.5166 233.529 37.5166C234.017 37.5166 234.397 37.4186 234.671 37.2227C234.944 37.0221 235.081 36.7441 235.081 36.3887ZM246.025 30.708H242.977V39H240.926V30.708H237.918V29.0469H246.025V30.708Z" fill="#2C3574"/>
<path d="M258.863 34.249C258.863 35.2288 258.69 36.0879 258.344 36.8262C257.997 37.5645 257.501 38.1341 256.854 38.5352C256.211 38.9362 255.473 39.1367 254.639 39.1367C253.814 39.1367 253.078 38.9385 252.431 38.542C251.784 38.1455 251.282 37.5804 250.927 36.8467C250.571 36.1084 250.391 35.2607 250.387 34.3037V33.8115C250.387 32.8317 250.562 31.9704 250.913 31.2275C251.269 30.4801 251.768 29.9082 252.41 29.5117C253.057 29.1107 253.796 28.9102 254.625 28.9102C255.454 28.9102 256.19 29.1107 256.833 29.5117C257.48 29.9082 257.979 30.4801 258.33 31.2275C258.686 31.9704 258.863 32.8294 258.863 33.8047V34.249ZM256.785 33.7979C256.785 32.7542 256.598 31.9613 256.225 31.4189C255.851 30.8766 255.318 30.6055 254.625 30.6055C253.937 30.6055 253.406 30.8743 253.032 31.4121C252.659 31.9453 252.469 32.7292 252.465 33.7637V34.249C252.465 35.2653 252.652 36.0537 253.025 36.6143C253.399 37.1748 253.937 37.4551 254.639 37.4551C255.327 37.4551 255.855 37.1862 256.225 36.6484C256.594 36.1061 256.781 35.3177 256.785 34.2832V33.7979ZM268.447 39H266.396L262.404 32.4512V39H260.354V29.0469H262.404L266.403 35.6094V29.0469H268.447V39ZM272.289 37.3525H276.644V39H270.238V29.0469H272.289V37.3525ZM280.007 39H277.956V29.0469H280.007V39ZM290.008 39H287.957L283.965 32.4512V39H281.914V29.0469H283.965L287.964 35.6094V29.0469H290.008V39ZM297.787 34.6865H293.85V37.3525H298.471V39H291.799V29.0469H298.457V30.708H293.85V33.0801H297.787V34.6865Z" fill="#F39200"/>
<defs>
<filter id="filter0_d" x="0" y="0" width="358" height="158" filterUnits="userSpaceOnUse" color-interpolation-filters="sRGB">
<feFlood flood-opacity="0" result="BackgroundImageFix"/>
<feColorMatrix in="SourceAlpha" type="matrix" values="0 0 0 0 0 0 0 0 0 0 0 0 0 0 0 0 0 0 127 0"/>
<feOffset dy="4"/>
<feGaussianBlur stdDeviation="2"/>
<feColorMatrix type="matrix" values="0 0 0 0 0 0 0 0 0 0 0 0 0 0 0 0 0 0 0.25 0"/>
<feBlend mode="normal" in2="BackgroundImageFix" result="effect1_dropShadow"/>
<feBlend mode="normal" in="SourceGraphic" in2="effect1_dropShadow" result="shape"/>
</filter>
<linearGradient id="paint0_linear" x1="35.1719" y1="116" x2="-42.436" y2="25.8938" gradientUnits="userSpaceOnUse">
<stop stop-color="#2C3574"/>
<stop offset="1" stop-color="#FFC772"/>
</linearGradient>
</defs>
</svg>
